<svg width="274" height="338" viewBox="0 0 274 338" fill="none" xmlns="http://www.w3.org/2000/svg">
<path fill-rule="evenodd" clip-rule="evenodd" d="M219.346 0H10C4.47715 0 0 4.47716 0 10V79.2988C0 82.0226 2.20813 84.2308 4.93201 84.2308V84.2308C7.65588 84.2308 9.86401 86.4389 9.86401 89.1628V123.711C9.86401 126.435 7.65588 128.643 4.93201 128.643V128.643C2.20813 128.643 0 130.851 0 133.575V324V327.734V328C0 333.523 4.47715 338 10 338H103.867C106.702 338 109 335.702 109 332.867V332.867C109 330.032 111.298 327.734 114.133 327.734H159.867C162.702 327.734 165 330.032 165 332.867V332.867C165 335.702 167.298 338 170.133 338H264C269.523 338 274 333.523 274 328V324L274 133.575C274 130.851 271.792 128.643 269.068 128.643V128.643C266.344 128.643 264.136 126.435 264.136 123.711V89.1626C264.136 86.4387 266.344 84.2306 269.068 84.2306V84.2306C271.792 84.2306 274 82.0225 274 79.2986V57.6365C274 55.0477 272.996 52.5598 271.199 50.6961L222.37 0.0442931C222.343 0.0159894 222.305 0 222.266 0V0H219.346Z" fill="#17181C"/>
<path fill-rule="evenodd" clip-rule="evenodd" d="M219.346 0H10C4.47715 0 0 4.47716 0 10V79.2988C0 82.0226 2.20813 84.2308 4.93201 84.2308V84.2308C7.65588 84.2308 9.86401 86.4389 9.86401 89.1628V123.711C9.86401 126.435 7.65588 128.643 4.93201 128.643V128.643C2.20813 128.643 0 130.851 0 133.575V324V327.734V328C0 333.523 4.47715 338 10 338H103.867C106.702 338 109 335.702 109 332.867V332.867C109 330.032 111.298 327.734 114.133 327.734H159.867C162.702 327.734 165 330.032 165 332.867V332.867C165 335.702 167.298 338 170.133 338H264C269.523 338 274 333.523 274 328V324L274 133.575C274 130.851 271.792 128.643 269.068 128.643V128.643C266.344 128.643 264.136 126.435 264.136 123.711V89.1626C264.136 86.4387 266.344 84.2306 269.068 84.2306V84.2306C271.792 84.2306 274 82.0225 274 79.2986V57.6365C274 55.0477 272.996 52.5598 271.199 50.6961L222.37 0.0442931C222.343 0.0159894 222.305 0 222.266 0V0H219.346Z" fill="#17181C"/>
<rect x="28" y="66" width="218" height="247" rx="12" fill="#3D414A"/>
<path fill-rule="evenodd" clip-rule="evenodd" d="M52 149.8L56.7826 143H127.217L132 149.8L132 170.2L127.217 177H56.7826L52 170.2L52 149.8Z" fill="#5E6477"/>
<path d="M64.9967 163.894V155.614L63.9707 155.56V154.03H68.3267V155.488L67.7327 155.542C67.3847 155.578 67.2107 155.77 67.2107 156.118V164.416L68.2367 164.47V166H63.8807V164.542L64.4747 164.488C64.6547 164.464 64.7867 164.416 64.8707 164.344C64.9547 164.26 64.9967 164.11 64.9967 163.894ZM73.9362 156.676C74.4522 156.676 74.9442 156.748 75.4122 156.892V155.074C75.4122 154.81 75.2562 154.666 74.9442 154.642L74.1702 154.588V153.166H77.5182V164.11C77.5302 164.386 77.6802 164.524 77.9682 164.524L78.5982 164.56V166H75.6822V164.938L75.6282 164.92C75.0882 165.796 74.2722 166.234 73.1802 166.234C71.8122 166.234 70.8522 165.778 70.3002 164.866C69.7962 164.038 69.5442 163.024 69.5442 161.824C69.5442 160.264 69.9282 159.016 70.6962 158.08C71.4762 157.144 72.5562 156.676 73.9362 156.676ZM75.4122 163.192V158.53C74.9802 158.338 74.5242 158.242 74.0442 158.242C73.2522 158.242 72.6702 158.56 72.2982 159.196C71.9382 159.832 71.7582 160.642 71.7582 161.626C71.7582 163.642 72.4062 164.65 73.7022 164.65C74.1942 164.65 74.6022 164.512 74.9262 164.236C75.2502 163.948 75.4122 163.6 75.4122 163.192ZM82.9067 156.946V164.506L83.9327 164.56V166H79.6487V164.632L80.2427 164.578C80.5907 164.542 80.7647 164.35 80.7647 164.002V158.998C80.7647 158.794 80.7287 158.656 80.6567 158.584C80.5967 158.512 80.4827 158.476 80.3147 158.476L79.6847 158.44V156.946H82.9067ZM80.6387 155.398C80.3867 155.146 80.2607 154.828 80.2607 154.444C80.2607 154.06 80.3867 153.742 80.6387 153.49C80.8907 153.226 81.2207 153.094 81.6287 153.094C82.0367 153.094 82.3667 153.226 82.6187 153.49C82.8827 153.742 83.0147 154.06 83.0147 154.444C83.0147 154.828 82.8827 155.146 82.6187 155.398C82.3667 155.638 82.0367 155.758 81.6287 155.758C81.2207 155.758 80.8907 155.638 80.6387 155.398ZM89.1149 164.686C90.4229 164.686 91.0769 163.63 91.0769 161.518C91.0769 160.45 90.9269 159.64 90.6269 159.088C90.3389 158.536 89.8469 158.26 89.1509 158.26C88.4669 158.26 87.9629 158.524 87.6389 159.052C87.3149 159.58 87.1529 160.3 87.1529 161.212C87.1529 162.904 87.4649 163.966 88.0889 164.398C88.3649 164.59 88.7069 164.686 89.1149 164.686ZM84.9749 161.464C84.9749 160.576 85.1069 159.808 85.3709 159.16C85.6349 158.5 85.9889 157.996 86.4329 157.648C87.2849 157 88.2269 156.676 89.2589 156.676C89.9789 156.676 90.5849 156.796 91.0769 157.036C91.5809 157.264 91.9709 157.534 92.2469 157.846C92.5349 158.146 92.7749 158.59 92.9669 159.178C93.1709 159.754 93.2729 160.438 93.2729 161.23C93.2729 162.886 92.8709 164.14 92.0669 164.992C91.2629 165.844 90.2309 166.27 88.9709 166.27C87.7229 166.27 86.7449 165.868 86.0369 165.064C85.3289 164.248 84.9749 163.048 84.9749 161.464ZM94.3766 158.404V156.946H97.4186V158.116C98.0906 157.156 99.0086 156.676 100.173 156.676C101.349 156.676 102.141 157.156 102.549 158.116C103.221 157.156 104.133 156.676 105.285 156.676C106.149 156.676 106.815 156.94 107.283 157.468C107.751 157.984 107.985 158.764 107.985 159.808V164.506L109.011 164.56V166H104.727V164.632L105.321 164.578C105.501 164.554 105.627 164.506 105.699 164.434C105.783 164.35 105.831 164.206 105.843 164.002V160.276C105.843 159.616 105.765 159.13 105.609 158.818C105.465 158.494 105.117 158.332 104.565 158.332C104.013 158.332 103.587 158.5 103.287 158.836C102.999 159.172 102.855 159.622 102.855 160.186V164.506L103.845 164.56V166H99.5966V164.632L100.191 164.578C100.371 164.554 100.503 164.506 100.587 164.434C100.671 164.35 100.713 164.2 100.713 163.984V160.276C100.713 159.616 100.635 159.13 100.479 158.818C100.335 158.494 99.9806 158.332 99.4166 158.332C98.8646 158.332 98.4446 158.506 98.1566 158.854C97.8686 159.202 97.7246 159.634 97.7246 160.15V164.506L98.6966 164.56V166H94.4486V164.632L95.0426 164.578C95.2226 164.554 95.3546 164.506 95.4386 164.434C95.5226 164.35 95.5646 164.2 95.5646 163.984H95.5826V159.016C95.5826 158.812 95.5466 158.674 95.4746 158.602C95.4146 158.518 95.3006 158.47 95.1326 158.458L94.3766 158.404ZM118.158 157.306V164.002C118.158 164.194 118.188 164.326 118.248 164.398C118.32 164.47 118.44 164.512 118.608 164.524L119.184 164.56V166H116.322V164.956L116.268 164.938C115.668 165.802 114.846 166.234 113.802 166.234C112.578 166.234 111.672 165.844 111.084 165.064C110.496 164.284 110.202 163.216 110.202 161.86C110.202 160.228 110.598 158.956 111.39 158.044C112.182 157.132 113.37 156.676 114.954 156.676C115.974 156.676 117.042 156.886 118.158 157.306ZM116.07 163.138V158.476C115.734 158.32 115.272 158.242 114.684 158.242C113.88 158.242 113.298 158.566 112.938 159.214C112.578 159.862 112.398 160.72 112.398 161.788C112.398 163.732 113.022 164.704 114.27 164.704C114.798 164.704 115.23 164.548 115.566 164.236C115.902 163.912 116.07 163.546 116.07 163.138Z" fill="#17181C"/>
<path fill-rule="evenodd" clip-rule="evenodd" d="M62 126L45 101L62 76H212L229 101L212 126H62Z" fill="#5E6477"/>
<path d="M93.553 101.376C93.553 99.752 93.7116 98.3707 94.029 97.232C94.365 96.0933 94.869 95.16 95.541 94.432C96.2316 93.704 97.0996 93.1813 98.145 92.864C99.209 92.528 100.469 92.36 101.925 92.36C102.112 92.36 102.289 92.3693 102.457 92.388C102.625 92.388 102.793 92.388 102.961 92.388H104.641C105.313 92.388 105.91 92.3693 106.433 92.332C106.956 92.2947 107.394 92.2107 107.749 92.08C108.104 91.9307 108.374 91.7253 108.561 91.464C108.748 91.2027 108.841 90.8387 108.841 90.372H110.353C110.353 91.436 110.092 92.2013 109.569 92.668C109.046 93.116 108.272 93.4147 107.245 93.564C108.309 94.236 109.084 95.2067 109.569 96.476C110.073 97.7453 110.325 99.3787 110.325 101.376C110.325 103 110.157 104.391 109.821 105.548C109.504 106.687 109 107.62 108.309 108.348C107.637 109.076 106.769 109.608 105.705 109.944C104.641 110.261 103.381 110.42 101.925 110.42C100.469 110.42 99.209 110.261 98.145 109.944C97.0996 109.608 96.2316 109.076 95.541 108.348C94.869 107.62 94.365 106.687 94.029 105.548C93.7116 104.391 93.553 103 93.553 101.376ZM98.789 101.376C98.789 102.44 98.8263 103.42 98.901 104.316C98.9943 105.212 99.0876 105.987 99.181 106.64C99.293 107.405 99.433 108.115 99.601 108.768C99.7876 108.824 99.993 108.871 100.217 108.908C100.422 108.945 100.665 108.973 100.945 108.992C101.225 109.011 101.552 109.02 101.925 109.02C102.298 109.02 102.634 109.011 102.933 108.992C103.232 108.973 103.484 108.945 103.689 108.908C103.913 108.871 104.109 108.824 104.277 108.768C104.426 108.077 104.557 107.34 104.669 106.556C104.762 105.884 104.856 105.109 104.949 104.232C105.042 103.336 105.089 102.384 105.089 101.376C105.089 100.331 105.042 99.36 104.949 98.464C104.856 97.568 104.762 96.7933 104.669 96.14C104.557 95.3747 104.426 94.6653 104.277 94.012C104.09 93.9747 103.885 93.9373 103.661 93.9C103.456 93.8627 103.204 93.8347 102.905 93.816C102.625 93.7787 102.298 93.76 101.925 93.76C101.552 93.76 101.225 93.7787 100.945 93.816C100.665 93.8347 100.422 93.8627 100.217 93.9C99.993 93.9373 99.7876 93.9747 99.601 94.012C99.433 94.7027 99.293 95.44 99.181 96.224C99.0876 96.896 98.9943 97.68 98.901 98.576C98.8263 99.4533 98.789 100.387 98.789 101.376ZM112.325 97.932H113.977L118.205 97.12V98.884C118.746 98.38 119.344 97.988 119.997 97.708C120.65 97.4093 121.341 97.26 122.069 97.26C122.834 97.26 123.516 97.3813 124.113 97.624C124.71 97.848 125.205 98.2213 125.597 98.744C126.008 99.248 126.316 99.92 126.521 100.76C126.726 101.581 126.829 102.58 126.829 103.756C126.829 104.951 126.717 105.968 126.493 106.808C126.269 107.629 125.896 108.301 125.373 108.824C124.85 109.328 124.169 109.692 123.329 109.916C122.508 110.14 121.5 110.252 120.305 110.252C119.969 110.252 119.642 110.233 119.325 110.196C119.008 110.159 118.7 110.121 118.401 110.084V114.62H112.325V113.192H113.977V99.332H112.325V97.932ZM121.733 98.772C121.117 98.772 120.52 98.968 119.941 99.36C119.362 99.752 118.849 100.237 118.401 100.816V108.74C118.718 108.833 119.045 108.899 119.381 108.936C119.717 108.973 120.025 108.992 120.305 108.992C120.753 108.992 121.108 108.964 121.369 108.908C121.518 108.889 121.64 108.861 121.733 108.824C121.826 108.395 121.91 107.919 121.985 107.396C122.041 106.948 122.097 106.416 122.153 105.8C122.209 105.165 122.237 104.484 122.237 103.756C122.237 102.86 122.209 102.104 122.153 101.488C122.097 100.853 122.041 100.331 121.985 99.92C121.91 99.4347 121.826 99.052 121.733 98.772ZM139.181 101.74C138.397 101.74 137.762 101.609 137.277 101.348C136.81 101.068 136.437 100.751 136.157 100.396C135.877 100.041 135.681 99.6867 135.569 99.332C135.457 98.9587 135.391 98.6787 135.373 98.492H134.701C134.57 98.492 134.458 98.5013 134.365 98.52C134.271 98.5387 134.187 98.5573 134.113 98.576C134.038 98.6133 133.963 98.6413 133.889 98.66C133.795 99.108 133.711 99.5933 133.637 100.116C133.562 100.564 133.497 101.105 133.441 101.74C133.403 102.356 133.385 103.028 133.385 103.756C133.385 104.484 133.403 105.156 133.441 105.772C133.497 106.388 133.562 106.92 133.637 107.368C133.711 107.891 133.795 108.367 133.889 108.796C133.963 108.833 134.066 108.861 134.197 108.88C134.29 108.899 134.421 108.917 134.589 108.936C134.757 108.936 134.962 108.936 135.204 108.936C135.615 108.936 136.007 108.899 136.381 108.824C136.754 108.749 137.071 108.619 137.333 108.432C137.613 108.227 137.827 107.956 137.977 107.62C138.145 107.284 138.229 106.855 138.229 106.332H139.573C139.573 107.228 139.423 107.937 139.125 108.46C138.826 108.983 138.443 109.384 137.977 109.664C137.529 109.925 137.034 110.093 136.493 110.168C136.213 110.205 135.942 110.233 135.681 110.252V110.952H135.877C136.418 110.952 136.857 111.101 137.193 111.4C137.529 111.717 137.697 112.128 137.697 112.632C137.697 113.229 137.501 113.715 137.109 114.088C136.717 114.461 136.147 114.648 135.401 114.648H133.749V113.248H135.401C135.606 113.248 135.774 113.211 135.905 113.136C136.054 113.061 136.129 112.903 136.129 112.66C136.129 112.455 136.054 112.305 135.905 112.212C135.755 112.119 135.569 112.072 135.345 112.072H133.945V110.224C133.254 110.187 132.647 110.093 132.125 109.944C131.341 109.701 130.697 109.328 130.193 108.824C129.707 108.301 129.353 107.629 129.129 106.808C128.905 105.968 128.793 104.951 128.793 103.756C128.793 102.561 128.886 101.553 129.073 100.732C129.278 99.892 129.623 99.22 130.109 98.716C130.594 98.1933 131.238 97.82 132.041 97.596C132.862 97.3533 133.898 97.232 135.149 97.232C135.597 97.232 136.054 97.2413 136.521 97.26C137.006 97.2787 137.445 97.3067 137.837 97.344C138.303 97.3813 138.751 97.4093 139.181 97.428V101.74ZM145.853 103.756C145.853 104.484 145.872 105.165 145.909 105.8C145.965 106.416 146.031 106.948 146.105 107.396C146.18 107.937 146.264 108.423 146.357 108.852C146.451 108.889 146.572 108.917 146.721 108.936C146.964 108.992 147.319 109.02 147.785 109.02C148.233 109.02 148.588 108.992 148.849 108.936C148.999 108.917 149.12 108.889 149.213 108.852C149.307 108.423 149.391 107.937 149.465 107.396C149.521 106.948 149.577 106.416 149.633 105.8C149.689 105.165 149.717 104.484 149.717 103.756C149.717 103.028 149.689 102.356 149.633 101.74C149.577 101.124 149.521 100.583 149.465 100.116C149.391 99.5933 149.307 99.108 149.213 98.66C149.101 98.6413 148.971 98.6133 148.821 98.576C148.691 98.5573 148.532 98.5387 148.345 98.52C148.177 98.5013 147.991 98.492 147.785 98.492C147.543 98.492 147.337 98.5013 147.169 98.52C147.001 98.5387 146.852 98.5573 146.721 98.576C146.572 98.6133 146.451 98.6413 146.357 98.66C146.264 99.108 146.18 99.5933 146.105 100.116C146.031 100.583 145.965 101.124 145.909 101.74C145.872 102.356 145.853 103.028 145.853 103.756ZM141.261 103.756C141.261 102.561 141.373 101.553 141.597 100.732C141.821 99.892 142.195 99.22 142.717 98.716C143.24 98.1933 143.912 97.82 144.733 97.596C145.555 97.3533 146.572 97.232 147.785 97.232C148.98 97.232 149.988 97.3533 150.809 97.596C151.649 97.82 152.331 98.1933 152.853 98.716C153.376 99.22 153.749 99.892 153.973 100.732C154.197 101.553 154.309 102.561 154.309 103.756C154.309 104.951 154.197 105.968 153.973 106.808C153.749 107.629 153.376 108.301 152.853 108.824C152.331 109.328 151.649 109.701 150.809 109.944C149.988 110.168 148.98 110.28 147.785 110.28C146.572 110.28 145.555 110.168 144.733 109.944C143.912 109.701 143.24 109.328 142.717 108.824C142.195 108.301 141.821 107.629 141.597 106.808C141.373 105.968 141.261 104.951 141.261 103.756ZM143.697 94.404C143.884 93.6387 144.164 93.1067 144.537 92.808C144.929 92.5093 145.415 92.36 145.993 92.36C146.292 92.36 146.591 92.416 146.889 92.528C147.188 92.6213 147.477 92.7333 147.757 92.864C148.056 92.976 148.345 93.088 148.625 93.2C148.905 93.2933 149.176 93.34 149.437 93.34C149.755 93.34 149.988 93.2467 150.137 93.06C150.305 92.8547 150.436 92.612 150.529 92.332L151.901 92.92C151.715 93.6853 151.425 94.2173 151.033 94.516C150.66 94.8147 150.193 94.964 149.633 94.964C149.316 94.964 149.008 94.9173 148.709 94.824C148.411 94.712 148.112 94.6 147.813 94.488C147.533 94.3573 147.253 94.2453 146.973 94.152C146.693 94.04 146.423 93.984 146.161 93.984C145.844 93.984 145.601 94.0867 145.433 94.292C145.284 94.4787 145.163 94.712 145.069 94.992L143.697 94.404ZM162.629 97.232C163.656 97.232 164.505 97.3347 165.177 97.54C165.849 97.7267 166.39 98.0347 166.801 98.464C167.212 98.8933 167.501 99.4627 167.669 100.172C167.837 100.863 167.921 101.721 167.921 102.748C167.921 103.065 167.912 103.345 167.893 103.588C167.874 103.812 167.856 103.999 167.837 104.148C167.818 104.335 167.8 104.475 167.781 104.568H160.865C160.884 105.203 160.921 105.781 160.977 106.304C161.033 106.808 161.089 107.247 161.145 107.62C161.22 108.068 161.294 108.46 161.369 108.796C161.425 108.833 161.509 108.861 161.621 108.88C161.714 108.899 161.845 108.917 162.013 108.936C162.2 108.936 162.433 108.936 162.713 108.936C163.18 108.936 163.618 108.908 164.029 108.852C164.458 108.777 164.832 108.665 165.149 108.516C165.466 108.367 165.709 108.161 165.877 107.9C166.064 107.62 166.157 107.284 166.157 106.892H167.669C167.669 107.676 167.492 108.292 167.137 108.74C166.801 109.188 166.372 109.533 165.849 109.776C165.345 110 164.794 110.14 164.197 110.196C163.6 110.252 163.04 110.28 162.517 110.28C161.378 110.28 160.408 110.168 159.605 109.944C158.821 109.701 158.177 109.328 157.673 108.824C157.188 108.301 156.833 107.629 156.609 106.808C156.385 105.968 156.273 104.951 156.273 103.756C156.273 102.561 156.366 101.553 156.553 100.732C156.758 99.892 157.104 99.22 157.589 98.716C158.074 98.1933 158.718 97.82 159.521 97.596C160.342 97.3533 161.378 97.232 162.629 97.232ZM161.369 98.66C161.276 99.0707 161.192 99.5187 161.117 100.004C161.061 100.433 161.005 100.937 160.949 101.516C160.893 102.076 160.865 102.692 160.865 103.364H163.581C163.544 102.58 163.497 101.899 163.441 101.32C163.385 100.723 163.32 100.228 163.245 99.836C163.17 99.3693 163.086 98.9773 162.993 98.66C162.937 98.6413 162.872 98.6133 162.797 98.576C162.722 98.5573 162.629 98.5387 162.517 98.52C162.424 98.5013 162.312 98.492 162.181 98.492C162.05 98.492 161.938 98.5013 161.845 98.52C161.752 98.5387 161.668 98.5573 161.593 98.576C161.518 98.6133 161.444 98.6413 161.369 98.66ZM175.854 97.288C176.283 97.288 176.675 97.3253 177.03 97.4C177.385 97.456 177.702 97.5307 177.982 97.624L179.858 97.204V101.516C179.149 101.516 178.561 101.413 178.094 101.208C177.646 100.984 177.282 100.723 177.002 100.424C176.722 100.107 176.507 99.78 176.358 99.444C176.227 99.0893 176.134 98.7907 176.078 98.548H175.854C175.686 98.548 175.537 98.5573 175.406 98.576C175.294 98.576 175.191 98.5853 175.098 98.604C175.005 98.6227 174.93 98.6413 174.874 98.66C174.818 98.7347 174.771 98.828 174.734 98.94C174.697 99.0333 174.669 99.164 174.65 99.332C174.631 99.5 174.622 99.696 174.622 99.92C174.622 100.275 174.659 100.564 174.734 100.788C174.809 101.012 174.921 101.199 175.07 101.348C175.238 101.497 175.453 101.619 175.714 101.712C175.975 101.805 176.302 101.908 176.694 102.02C177.198 102.151 177.693 102.319 178.178 102.524C178.682 102.711 179.13 102.963 179.522 103.28C179.914 103.597 180.231 103.999 180.474 104.484C180.735 104.951 180.866 105.52 180.866 106.192C180.866 106.939 180.735 107.573 180.474 108.096C180.213 108.6 179.839 109.011 179.354 109.328C178.887 109.645 178.299 109.869 177.59 110C176.899 110.149 176.125 110.224 175.266 110.224C174.557 110.224 173.959 110.187 173.474 110.112C173.007 110.056 172.634 109.981 172.354 109.888L170.422 110.308V105.716C171.113 105.716 171.691 105.837 172.158 106.08C172.625 106.323 172.998 106.612 173.278 106.948C173.558 107.284 173.763 107.639 173.894 108.012C174.025 108.367 174.118 108.675 174.174 108.936C174.286 108.955 174.389 108.964 174.482 108.964H175.294C175.462 108.964 175.611 108.955 175.742 108.936C175.891 108.917 176.031 108.899 176.162 108.88C176.199 108.805 176.237 108.703 176.274 108.572C176.311 108.46 176.339 108.311 176.358 108.124C176.395 107.937 176.414 107.713 176.414 107.452C176.414 106.911 176.255 106.481 175.938 106.164C175.639 105.847 175.257 105.585 174.79 105.38C174.323 105.156 173.819 104.951 173.278 104.764C172.755 104.559 172.261 104.316 171.794 104.036C171.327 103.737 170.935 103.355 170.618 102.888C170.319 102.403 170.17 101.759 170.17 100.956C170.17 100.396 170.263 99.892 170.45 99.444C170.655 98.9773 170.973 98.5853 171.402 98.268C171.85 97.9507 172.438 97.708 173.166 97.54C173.894 97.372 174.79 97.288 175.854 97.288Z" fill="#17181C"/>
</svg>
