<svg width="195" height="15" viewBox="0 0 195 15" fill="none" xmlns="http://www.w3.org/2000/svg">
<g clip-path="url(#clip0_876_16483)">
<path fill-rule="evenodd" clip-rule="evenodd" d="M189.334 0L195 3L195 12L189.334 15H176H170.334H169.714H108.104H105.896H89.1036H86.8963H25.2859H24.6656H19.0002H5.66554L0 12L1.52588e-05 3L5.66556 0H19.0002H24.6656H25.2859H86.8963H89.1036H105.896H108.104H169.714H170.334H176H189.334Z" fill="#921F20"/>
<g style="mix-blend-mode:screen" opacity="0.6">
<path d="M186 7.5C186 6.11929 184.862 5 183.458 5H11.5422C10.1382 5 9 6.11929 9 7.5V7.5C9 8.88071 10.1382 10 11.5422 10H183.458C184.862 10 186 8.88071 186 7.5V7.5Z" fill="#921F20"/>
</g>
</g>
<defs>
<clipPath id="clip0_876_16483">
<rect width="195" height="15" fill="white"/>
</clipPath>
</defs>
</svg>
