<svg width="844" height="390" viewBox="0 0 844 390" fill="none" xmlns="http://www.w3.org/2000/svg">
<g clip-path="url(#clip0_1753_19849)">
<rect width="844" height="390" fill="white"/>
<rect width="844" height="390" fill="black"/>
<path d="M290.953 119.56C289.299 119.56 287.993 119.24 287.033 118.6C286.073 117.96 285.339 117.24 284.833 116.44C284.353 115.64 284.033 114.88 283.873 114.16C283.713 113.44 283.633 112.987 283.633 112.8C283.179 112.827 282.766 112.853 282.393 112.88C282.046 112.907 281.753 112.947 281.513 113C281.219 113.053 280.966 113.107 280.753 113.16C280.513 114.093 280.313 115.12 280.153 116.24C280.019 117.2 279.886 118.32 279.753 119.6C279.646 120.88 279.593 122.24 279.593 123.68C279.593 125.147 279.646 126.52 279.753 127.8C279.886 129.053 280.019 130.16 280.153 131.12C280.313 132.24 280.513 133.28 280.753 134.24C280.913 134.293 281.126 134.347 281.393 134.4C281.819 134.48 282.499 134.52 283.433 134.52C284.313 134.52 285.113 134.427 285.833 134.24C286.579 134.027 287.219 133.707 287.753 133.28C288.286 132.827 288.699 132.253 288.993 131.56C289.313 130.84 289.473 129.987 289.473 129V127.76H291.793V128.88C291.793 130.24 291.566 131.413 291.113 132.4C290.659 133.36 290.046 134.16 289.273 134.8C288.499 135.413 287.606 135.867 286.593 136.16C285.606 136.453 284.553 136.6 283.433 136.6C281.513 136.6 279.846 136.373 278.433 135.92C277.019 135.44 275.833 134.68 274.873 133.64C273.939 132.6 273.246 131.267 272.793 129.64C272.339 127.987 272.113 126 272.113 123.68C272.113 121.36 272.339 119.387 272.793 117.76C273.273 116.133 273.993 114.8 274.953 113.76C275.939 112.72 277.179 111.973 278.673 111.52C280.193 111.04 281.993 110.8 284.073 110.8C284.979 110.8 285.846 110.84 286.673 110.92C287.499 110.973 288.233 111.04 288.873 111.12C289.619 111.227 290.313 111.32 290.953 111.4V119.56ZM301.163 127.08C301.163 128.12 301.19 129.093 301.243 130C301.323 130.88 301.416 131.64 301.523 132.28C301.63 133.053 301.75 133.747 301.883 134.36C302.016 134.413 302.19 134.453 302.403 134.48C302.75 134.56 303.256 134.6 303.923 134.6C304.563 134.6 305.07 134.56 305.443 134.48C305.656 134.453 305.83 134.413 305.963 134.36C306.096 133.747 306.216 133.053 306.323 132.28C306.403 131.64 306.483 130.88 306.563 130C306.643 129.093 306.683 128.12 306.683 127.08C306.683 126.04 306.643 125.08 306.563 124.2C306.483 123.32 306.403 122.547 306.323 121.88C306.216 121.133 306.096 120.44 305.963 119.8C305.803 119.773 305.616 119.733 305.403 119.68C305.216 119.653 304.99 119.627 304.723 119.6C304.483 119.573 304.216 119.56 303.923 119.56C303.576 119.56 303.283 119.573 303.043 119.6C302.803 119.627 302.59 119.653 302.403 119.68C302.19 119.733 302.016 119.773 301.883 119.8C301.75 120.44 301.63 121.133 301.523 121.88C301.416 122.547 301.323 123.32 301.243 124.2C301.19 125.08 301.163 126.04 301.163 127.08ZM294.603 127.08C294.603 125.373 294.763 123.933 295.083 122.76C295.403 121.56 295.936 120.6 296.683 119.88C297.43 119.133 298.39 118.6 299.563 118.28C300.736 117.933 302.19 117.76 303.923 117.76C305.63 117.76 307.07 117.933 308.243 118.28C309.443 118.6 310.416 119.133 311.163 119.88C311.91 120.6 312.443 121.56 312.763 122.76C313.083 123.933 313.243 125.373 313.243 127.08C313.243 128.787 313.083 130.24 312.763 131.44C312.443 132.613 311.91 133.573 311.163 134.32C310.416 135.04 309.443 135.573 308.243 135.92C307.07 136.24 305.63 136.4 303.923 136.4C302.19 136.4 300.736 136.24 299.563 135.92C298.39 135.573 297.43 135.04 296.683 134.32C295.936 133.573 295.403 132.613 295.083 131.44C294.763 130.24 294.603 128.787 294.603 127.08ZM315.848 118.76H318.208L324.248 117.6V120.4C324.302 120.32 324.448 120.133 324.688 119.84C324.928 119.547 325.288 119.253 325.768 118.96C326.248 118.64 326.875 118.36 327.648 118.12C328.422 117.88 329.368 117.76 330.488 117.76C331.102 117.76 331.715 117.813 332.328 117.92C332.968 118.027 333.542 118.227 334.048 118.52C334.582 118.787 335.008 119.16 335.328 119.64C335.648 120.12 335.808 120.747 335.808 121.52V133.96H338.168V136H329.488V120.24C329.435 120.24 329.355 120.227 329.248 120.2C329.035 120.147 328.742 120.12 328.368 120.12C327.808 120.12 327.302 120.24 326.848 120.48C326.422 120.693 326.048 120.947 325.728 121.24C325.408 121.533 325.142 121.84 324.928 122.16C324.742 122.453 324.608 122.68 324.528 122.84V133.96H326.888V136H315.848V133.96H318.208V120.76H315.848V118.76ZM341.35 116.2L347.67 114.48V118.04H352.47V120.04H347.67V134H348.51C350.057 134 350.83 132.827 350.83 130.48H352.87C352.87 131.333 352.817 132.107 352.71 132.8C352.63 133.493 352.377 134.093 351.95 134.6C351.55 135.107 350.937 135.493 350.11 135.76C349.31 136.027 348.19 136.16 346.75 136.16C345.763 136.16 344.923 136.053 344.23 135.84C343.537 135.6 342.977 135.293 342.55 134.92C342.123 134.547 341.817 134.133 341.63 133.68C341.443 133.227 341.35 132.76 341.35 132.28V116.2ZM363.957 117.76C365.423 117.76 366.637 117.907 367.597 118.2C368.557 118.467 369.33 118.907 369.917 119.52C370.503 120.133 370.917 120.947 371.157 121.96C371.397 122.947 371.517 124.173 371.517 125.64C371.517 126.093 371.503 126.493 371.477 126.84C371.45 127.16 371.423 127.427 371.397 127.64C371.37 127.907 371.343 128.107 371.317 128.24H361.437C361.463 129.147 361.517 129.973 361.597 130.72C361.677 131.44 361.757 132.067 361.837 132.6C361.943 133.24 362.05 133.8 362.157 134.28C362.237 134.333 362.357 134.373 362.517 134.4C362.65 134.427 362.837 134.453 363.077 134.48C363.343 134.48 363.677 134.48 364.077 134.48C364.743 134.48 365.37 134.44 365.957 134.36C366.57 134.253 367.103 134.093 367.557 133.88C368.01 133.667 368.357 133.373 368.597 133C368.863 132.6 368.997 132.12 368.997 131.56H371.157C371.157 132.68 370.903 133.56 370.397 134.2C369.917 134.84 369.303 135.333 368.557 135.68C367.837 136 367.05 136.2 366.197 136.28C365.343 136.36 364.543 136.4 363.797 136.4C362.17 136.4 360.783 136.24 359.637 135.92C358.517 135.573 357.597 135.04 356.877 134.32C356.183 133.573 355.677 132.613 355.357 131.44C355.037 130.24 354.877 128.787 354.877 127.08C354.877 125.373 355.01 123.933 355.277 122.76C355.57 121.56 356.063 120.6 356.757 119.88C357.45 119.133 358.37 118.6 359.517 118.28C360.69 117.933 362.17 117.76 363.957 117.76ZM362.157 119.8C362.023 120.387 361.903 121.027 361.797 121.72C361.717 122.333 361.637 123.053 361.557 123.88C361.477 124.68 361.437 125.56 361.437 126.52H365.317C365.263 125.4 365.197 124.427 365.117 123.6C365.037 122.747 364.943 122.04 364.837 121.48C364.73 120.813 364.61 120.253 364.477 119.8C364.397 119.773 364.303 119.733 364.197 119.68C364.09 119.653 363.957 119.627 363.797 119.6C363.663 119.573 363.503 119.56 363.317 119.56C363.13 119.56 362.97 119.573 362.837 119.6C362.703 119.627 362.583 119.653 362.477 119.68C362.37 119.733 362.263 119.773 362.157 119.8ZM374.13 118.76H376.49L382.53 117.6V120.4C382.583 120.32 382.73 120.133 382.97 119.84C383.21 119.547 383.57 119.253 384.05 118.96C384.53 118.64 385.156 118.36 385.93 118.12C386.703 117.88 387.65 117.76 388.77 117.76C389.383 117.76 389.996 117.813 390.61 117.92C391.25 118.027 391.823 118.227 392.33 118.52C392.863 118.787 393.29 119.16 393.61 119.64C393.93 120.12 394.09 120.747 394.09 121.52V133.96H396.45V136H387.77V120.24C387.716 120.24 387.636 120.227 387.53 120.2C387.316 120.147 387.023 120.12 386.65 120.12C386.09 120.12 385.583 120.24 385.13 120.48C384.703 120.693 384.33 120.947 384.01 121.24C383.69 121.533 383.423 121.84 383.21 122.16C383.023 122.453 382.89 122.68 382.81 122.84V133.96H385.17V136H374.13V133.96H376.49V120.76H374.13V118.76ZM399.631 116.2L405.951 114.48V118.04H410.751V120.04H405.951V134H406.791C408.338 134 409.111 132.827 409.111 130.48H411.151C411.151 131.333 411.098 132.107 410.991 132.8C410.911 133.493 410.658 134.093 410.231 134.6C409.831 135.107 409.218 135.493 408.391 135.76C407.591 136.027 406.471 136.16 405.031 136.16C404.045 136.16 403.205 136.053 402.511 135.84C401.818 135.6 401.258 135.293 400.831 134.92C400.405 134.547 400.098 134.133 399.911 133.68C399.725 133.227 399.631 132.76 399.631 132.28V116.2ZM452.444 113.72L444.964 136.56H443.964L436.244 120.4L430.964 136.56H429.964L418.364 112.24V111.4H425.644L432.084 125.56L434.764 117.32L432.364 112.24V111.4H439.644L446.084 125.56L449.964 113.72H445.604V111.4H455.084V113.72H452.444ZM471.397 134H471.917C472.157 134 472.397 133.987 472.637 133.96L473.517 133.88V135.8C473.037 135.88 472.57 135.947 472.117 136C471.743 136.053 471.343 136.093 470.917 136.12C470.49 136.147 470.143 136.16 469.877 136.16C468.57 136.16 467.583 135.92 466.917 135.44C466.25 134.96 465.77 134.44 465.477 133.88C464.89 134.627 464.21 135.227 463.437 135.68C462.69 136.107 461.823 136.32 460.837 136.32C459.023 136.32 457.677 135.987 456.797 135.32C455.917 134.627 455.477 133.44 455.477 131.76C455.477 131.173 455.477 130.613 455.477 130.08C455.503 129.547 455.543 129.08 455.597 128.68C455.65 128.2 455.703 127.773 455.757 127.4L465.037 125.12C465.01 124.347 464.983 123.64 464.957 123C464.93 122.333 464.903 121.773 464.877 121.32C464.823 120.787 464.783 120.307 464.757 119.88C464.677 119.853 464.557 119.827 464.397 119.8C464.263 119.773 464.063 119.747 463.797 119.72C463.53 119.693 463.21 119.68 462.837 119.68C462.597 119.68 462.37 119.693 462.157 119.72C461.943 119.72 461.73 119.733 461.517 119.76C461.437 120.133 461.303 120.587 461.117 121.12C460.93 121.627 460.637 122.12 460.237 122.6C459.837 123.053 459.303 123.453 458.637 123.8C457.997 124.12 457.17 124.28 456.157 124.28V118.24C457.01 118.16 457.877 118.08 458.757 118C459.53 117.947 460.357 117.893 461.237 117.84C462.117 117.787 462.97 117.76 463.797 117.76C465.53 117.76 466.89 117.907 467.877 118.2C468.89 118.493 469.65 119 470.157 119.72C470.69 120.44 471.023 121.4 471.157 122.6C471.317 123.8 471.397 125.293 471.397 127.08V134ZM462.117 134.16C462.65 134.027 463.157 133.693 463.637 133.16C464.143 132.6 464.623 131.933 465.077 131.16V126.92L462.037 127.76C461.983 128.187 461.943 128.627 461.917 129.08C461.89 129.507 461.877 129.933 461.877 130.36C461.877 130.893 461.877 131.387 461.877 131.84C461.903 132.293 461.943 132.693 461.997 133.04C462.023 133.44 462.063 133.813 462.117 134.16ZM475.302 118.76H477.662L483.702 117.6V120.16C483.728 120.08 483.822 119.92 483.982 119.68C484.168 119.413 484.448 119.147 484.822 118.88C485.222 118.587 485.728 118.333 486.342 118.12C486.982 117.88 487.782 117.76 488.742 117.76C489.328 117.76 489.782 117.773 490.102 117.8C490.448 117.827 490.715 117.853 490.902 117.88C491.115 117.907 491.248 117.933 491.302 117.96V125.68C490.342 125.68 489.542 125.493 488.902 125.12C488.262 124.747 487.742 124.28 487.342 123.72C486.942 123.16 486.635 122.573 486.422 121.96C486.208 121.347 486.062 120.8 485.982 120.32C485.742 120.453 485.515 120.64 485.302 120.88C485.088 121.093 484.888 121.333 484.702 121.6C484.542 121.84 484.395 122.08 484.262 122.32C484.128 122.533 484.035 122.707 483.982 122.84V133.96H486.342V136H475.302V133.96H477.662V120.76H475.302V118.76ZM493.114 118.76H495.474L501.514 117.6V120.4C501.567 120.32 501.714 120.133 501.954 119.84C502.194 119.547 502.554 119.253 503.034 118.96C503.514 118.64 504.141 118.36 504.914 118.12C505.687 117.88 506.634 117.76 507.754 117.76C508.367 117.76 508.981 117.813 509.594 117.92C510.234 118.027 510.807 118.227 511.314 118.52C511.847 118.787 512.274 119.16 512.594 119.64C512.914 120.12 513.074 120.747 513.074 121.52V133.96H515.434V136H506.754V120.24C506.701 120.24 506.621 120.227 506.514 120.2C506.301 120.147 506.007 120.12 505.634 120.12C505.074 120.12 504.567 120.24 504.114 120.48C503.687 120.693 503.314 120.947 502.994 121.24C502.674 121.533 502.407 121.84 502.194 122.16C502.007 122.453 501.874 122.68 501.794 122.84V133.96H504.154V136H493.114V133.96H495.474V120.76H493.114V118.76ZM517.216 118.36H519.576L525.896 117.4V133.96H528.256V136H517.216V133.96H519.576V120.36H517.216V118.36ZM519.576 112.12C519.576 111 519.816 110.173 520.296 109.64C520.776 109.08 521.589 108.8 522.736 108.8C523.936 108.8 524.762 109.08 525.216 109.64C525.669 110.173 525.896 111 525.896 112.12C525.896 113.267 525.642 114.107 525.136 114.64C524.656 115.147 523.856 115.4 522.736 115.4C521.589 115.4 520.776 115.147 520.296 114.64C519.816 114.107 519.576 113.267 519.576 112.12ZM530.263 118.76H532.623L538.663 117.6V120.4C538.716 120.32 538.863 120.133 539.103 119.84C539.343 119.547 539.703 119.253 540.183 118.96C540.663 118.64 541.289 118.36 542.063 118.12C542.836 117.88 543.783 117.76 544.903 117.76C545.516 117.76 546.129 117.813 546.743 117.92C547.383 118.027 547.956 118.227 548.463 118.52C548.996 118.787 549.423 119.16 549.743 119.64C550.063 120.12 550.223 120.747 550.223 121.52V133.96H552.582V136H543.903V120.24C543.849 120.24 543.769 120.227 543.663 120.2C543.449 120.147 543.156 120.12 542.783 120.12C542.223 120.12 541.716 120.24 541.263 120.48C540.836 120.693 540.463 120.947 540.143 121.24C539.823 121.533 539.556 121.84 539.342 122.16C539.156 122.453 539.023 122.68 538.943 122.84V133.96H541.303V136H530.263V133.96H532.623V120.76H530.263V118.76ZM568.244 140.56H569.844C570.724 140.56 571.271 140.467 571.484 140.28C571.724 140.12 571.844 139.827 571.844 139.4V138.8H561.564C560.284 138.8 559.204 138.693 558.324 138.48C557.444 138.293 556.737 137.987 556.204 137.56C555.697 137.16 555.324 136.64 555.084 136C554.871 135.333 554.764 134.547 554.764 133.64C554.764 132.947 554.857 132.347 555.044 131.84C555.231 131.333 555.457 130.907 555.724 130.56C556.017 130.213 556.324 129.933 556.644 129.72C556.991 129.507 557.311 129.347 557.604 129.24C556.751 128.76 556.137 128.107 555.764 127.28C555.417 126.427 555.244 125.36 555.244 124.08C555.244 122.933 555.391 121.96 555.684 121.16C556.004 120.333 556.511 119.68 557.204 119.2C557.897 118.693 558.804 118.333 559.924 118.12C561.044 117.88 562.417 117.76 564.044 117.76H568.844C569.511 117.76 570.031 117.707 570.404 117.6C570.804 117.493 571.097 117.333 571.284 117.12C571.471 116.88 571.577 116.6 571.604 116.28C571.657 115.933 571.684 115.52 571.684 115.04H573.844C573.844 116.48 573.617 117.52 573.164 118.16C572.711 118.8 572.057 119.24 571.204 119.48C572.297 120.467 572.844 122 572.844 124.08C572.844 125.253 572.684 126.24 572.364 127.04C572.071 127.84 571.577 128.493 570.884 129C570.191 129.48 569.284 129.84 568.164 130.08C567.044 130.293 565.671 130.4 564.044 130.4C562.311 130.4 560.871 130.28 559.724 130.04C559.404 130.12 559.071 130.24 558.724 130.4C558.404 130.533 558.097 130.72 557.804 130.96C557.511 131.173 557.271 131.427 557.084 131.72C556.897 132.013 556.804 132.347 556.804 132.72H568.404C570.617 132.72 572.177 133.133 573.084 133.96C574.017 134.76 574.484 136.013 574.484 137.72C574.484 138.573 574.417 139.307 574.284 139.92C574.151 140.533 573.911 141.04 573.564 141.44C573.244 141.84 572.777 142.133 572.164 142.32C571.551 142.533 570.764 142.64 569.804 142.64H568.244V140.56ZM561.804 124.08C561.804 124.72 561.831 125.307 561.884 125.84C561.937 126.373 562.004 126.827 562.084 127.2C562.164 127.653 562.257 128.067 562.364 128.44C562.497 128.467 562.644 128.493 562.804 128.52C562.937 128.547 563.097 128.573 563.284 128.6C563.497 128.6 563.737 128.6 564.004 128.6C564.271 128.6 564.511 128.6 564.724 128.6C564.937 128.573 565.111 128.547 565.244 128.52C565.404 128.493 565.551 128.467 565.684 128.44C565.764 128.067 565.857 127.653 565.964 127.2C566.017 126.827 566.071 126.373 566.124 125.84C566.204 125.307 566.244 124.72 566.244 124.08C566.244 123.467 566.204 122.893 566.124 122.36C566.071 121.8 566.017 121.333 565.964 120.96C565.857 120.507 565.764 120.093 565.684 119.72L565.204 119.64C565.071 119.613 564.897 119.6 564.684 119.6C564.471 119.573 564.244 119.56 564.004 119.56C563.737 119.56 563.497 119.573 563.284 119.6C563.097 119.6 562.937 119.613 562.804 119.64C562.644 119.667 562.497 119.693 562.364 119.72C562.257 120.093 562.164 120.507 562.084 120.96C562.004 121.333 561.937 121.8 561.884 122.36C561.831 122.893 561.804 123.467 561.804 124.08Z" fill="#921F20"/>
<path d="M134.91 234.64V221.02H132.57C132.11 221.02 131.88 221.33 131.88 221.95V223.36L128.82 223.15V218.05H144.51V223.15L141.45 223.36V221.95C141.45 221.61 141.4 221.37 141.3 221.23C141.2 221.09 140.96 221.02 140.58 221.02H138.54V235.36L140.91 235.45V238H132.45V235.57L134.04 235.48C134.62 235.42 134.91 235.14 134.91 234.64ZM147.772 234.64V220.03C147.772 219.71 147.712 219.49 147.592 219.37C147.492 219.25 147.302 219.18 147.022 219.16L145.972 219.1V216.61H151.312V224.68C152.352 223.2 153.812 222.46 155.692 222.46C157.212 222.46 158.382 222.9 159.202 223.78C160.042 224.64 160.462 225.94 160.462 227.68V235.51L162.172 235.6V238H155.032V235.72L156.022 235.63C156.322 235.59 156.542 235.51 156.682 235.39C156.822 235.25 156.892 235 156.892 234.64V228.46C156.892 227.42 156.722 226.62 156.382 226.06C156.062 225.5 155.422 225.22 154.462 225.22C153.522 225.22 152.762 225.52 152.182 226.12C151.622 226.7 151.342 227.41 151.342 228.25V235.51L153.052 235.6V238H145.912V235.72L146.902 235.63C147.202 235.59 147.422 235.51 147.562 235.39C147.702 235.25 147.772 235 147.772 234.64ZM171.46 222.46C172.96 222.46 174.15 222.83 175.03 223.57C175.91 224.29 176.35 225.31 176.35 226.63C176.35 227.51 176.16 228.29 175.78 228.97C175.4 229.63 174.93 230.15 174.37 230.53C173.81 230.91 173.13 231.22 172.33 231.46C170.99 231.86 169.48 232.06 167.8 232.06C167.86 233.12 168.19 233.98 168.79 234.64C169.39 235.28 170.31 235.6 171.55 235.6C172.79 235.6 174.03 235.16 175.27 234.28L176.41 236.71C176.01 237.07 175.33 237.44 174.37 237.82C173.43 238.2 172.35 238.39 171.13 238.39C168.69 238.39 166.9 237.72 165.76 236.38C164.62 235.02 164.05 233.16 164.05 230.8C164.05 228.44 164.7 226.46 166 224.86C167.3 223.26 169.12 222.46 171.46 222.46ZM170.08 229.33C170.82 229.19 171.5 228.9 172.12 228.46C172.74 228 173.05 227.46 173.05 226.84C173.05 225.62 172.45 225.01 171.25 225.01C170.13 225.01 169.27 225.46 168.67 226.36C168.07 227.24 167.74 228.3 167.68 229.54C168.56 229.52 169.36 229.45 170.08 229.33ZM186.358 234.64V225.43H183.778V222.91H186.358V221.77C186.358 219.81 186.808 218.4 187.708 217.54C188.548 216.72 189.778 216.31 191.398 216.31C193.018 216.31 194.458 216.66 195.718 217.36L194.848 219.76C193.888 219.26 192.988 219.01 192.148 219.01C191.308 219.01 190.728 219.22 190.408 219.64C190.088 220.04 189.928 220.66 189.928 221.5V222.91H194.368V225.43H189.928V235.48L192.448 235.6V238H184.498V235.72L185.488 235.63C185.788 235.59 186.008 235.51 186.148 235.39C186.288 235.25 186.358 235 186.358 234.64ZM202.178 235.81C204.358 235.81 205.448 234.05 205.448 230.53C205.448 228.75 205.198 227.4 204.698 226.48C204.218 225.56 203.398 225.1 202.238 225.1C201.098 225.1 200.258 225.54 199.718 226.42C199.178 227.3 198.908 228.5 198.908 230.02C198.908 232.84 199.428 234.61 200.468 235.33C200.928 235.65 201.498 235.81 202.178 235.81ZM195.278 230.44C195.278 228.96 195.498 227.68 195.938 226.6C196.378 225.5 196.968 224.66 197.708 224.08C199.128 223 200.698 222.46 202.418 222.46C203.618 222.46 204.628 222.66 205.448 223.06C206.288 223.44 206.938 223.89 207.398 224.41C207.878 224.91 208.278 225.65 208.598 226.63C208.938 227.59 209.108 228.73 209.108 230.05C209.108 232.81 208.438 234.9 207.098 236.32C205.758 237.74 204.038 238.45 201.938 238.45C199.858 238.45 198.228 237.78 197.048 236.44C195.868 235.08 195.278 233.08 195.278 230.44ZM216.498 216.61V235.51L218.208 235.6V238H211.068V235.72L212.058 235.63C212.638 235.57 212.928 235.25 212.928 234.67V219.88C212.928 219.44 212.678 219.2 212.178 219.16L211.128 219.1V216.61H216.498ZM225.433 216.61V235.51L227.143 235.6V238H220.003V235.72L220.993 235.63C221.573 235.57 221.863 235.25 221.863 234.67V219.88C221.863 219.44 221.613 219.2 221.113 219.16L220.063 219.1V216.61H225.433ZM235.899 235.81C238.079 235.81 239.169 234.05 239.169 230.53C239.169 228.75 238.919 227.4 238.419 226.48C237.939 225.56 237.119 225.1 235.959 225.1C234.819 225.1 233.979 225.54 233.439 226.42C232.899 227.3 232.629 228.5 232.629 230.02C232.629 232.84 233.149 234.61 234.189 235.33C234.649 235.65 235.219 235.81 235.899 235.81ZM228.999 230.44C228.999 228.96 229.219 227.68 229.659 226.6C230.099 225.5 230.689 224.66 231.429 224.08C232.849 223 234.419 222.46 236.139 222.46C237.339 222.46 238.349 222.66 239.169 223.06C240.009 223.44 240.659 223.89 241.119 224.41C241.599 224.91 241.999 225.65 242.319 226.63C242.659 227.59 242.829 228.73 242.829 230.05C242.829 232.81 242.159 234.9 240.819 236.32C239.479 237.74 237.759 238.45 235.659 238.45C233.579 238.45 231.949 237.78 230.769 236.44C229.589 235.08 228.999 233.08 228.999 230.44ZM254.778 223.51H257.688L260.808 234.67H260.868L262.908 225.4L261.378 225.31V222.91H267.408V225.22L266.418 225.28C266.018 225.32 265.748 225.56 265.608 226L262.758 238H258.438L255.978 229.06H255.888L253.338 238H248.928L245.898 226.03C245.798 225.75 245.688 225.56 245.568 225.46C245.468 225.36 245.288 225.3 245.028 225.28L244.158 225.22V222.91H251.028V225.31L249.348 225.4L251.418 234.61H251.478L254.778 223.51ZM274.126 222.91V235.51L275.836 235.6V238H268.696V235.72L269.686 235.63C270.266 235.57 270.556 235.25 270.556 234.67V226.33C270.556 225.99 270.496 225.76 270.376 225.64C270.276 225.52 270.086 225.46 269.806 225.46L268.756 225.4V222.91H274.126ZM270.346 220.33C269.926 219.91 269.716 219.38 269.716 218.74C269.716 218.1 269.926 217.57 270.346 217.15C270.766 216.71 271.316 216.49 271.996 216.49C272.676 216.49 273.226 216.71 273.646 217.15C274.086 217.57 274.306 218.1 274.306 218.74C274.306 219.38 274.086 219.91 273.646 220.33C273.226 220.73 272.676 220.93 271.996 220.93C271.316 220.93 270.766 220.73 270.346 220.33ZM277.393 225.31V222.91H282.463V224.86C282.983 224.12 283.673 223.54 284.533 223.12C285.393 222.68 286.323 222.46 287.323 222.46C288.843 222.46 290.013 222.9 290.833 223.78C291.673 224.64 292.093 225.94 292.093 227.68V235.51L293.803 235.6V238H286.663V235.72L287.653 235.63C287.953 235.59 288.173 235.51 288.313 235.39C288.453 235.25 288.523 235 288.523 234.64V228.46C288.523 227.36 288.353 226.55 288.013 226.03C287.673 225.49 287.023 225.22 286.063 225.22C285.123 225.22 284.373 225.52 283.813 226.12C283.253 226.72 282.973 227.43 282.973 228.25V235.51L284.683 235.6V238H277.543V235.72L278.533 235.63C278.833 235.59 279.053 235.51 279.193 235.39C279.333 235.25 279.403 235 279.403 234.64V226.33C279.403 225.73 279.153 225.42 278.653 225.4L277.393 225.31ZM308.911 237.97C308.731 240.19 308.091 241.82 306.991 242.86C305.891 243.9 304.171 244.42 301.831 244.42C299.491 244.42 297.661 244.09 296.341 243.43V239.26L299.191 239.02V240.46C299.191 241 299.441 241.36 299.941 241.54C300.441 241.74 301.131 241.84 302.011 241.84C303.291 241.84 304.191 241.45 304.711 240.67C305.231 239.91 305.491 238.83 305.491 237.43V235.78C304.531 236.9 303.201 237.46 301.501 237.46C300.461 237.46 299.541 237.26 298.741 236.86C297.961 236.46 297.351 235.92 296.911 235.24C296.051 233.88 295.621 232.28 295.621 230.44C295.621 227.82 296.331 225.84 297.751 224.5C299.171 223.14 301.061 222.46 303.421 222.46C305.381 222.46 307.231 222.83 308.971 223.57V234.7C308.971 236.4 308.951 237.49 308.911 237.97ZM305.491 231.88V225.43C304.791 225.19 303.991 225.07 303.091 225.07C301.871 225.07 300.931 225.52 300.271 226.42C299.631 227.32 299.311 228.54 299.311 230.08C299.311 233.24 300.351 234.82 302.431 234.82C303.291 234.82 304.011 234.56 304.591 234.04C305.191 233.5 305.491 232.78 305.491 231.88ZM331.236 237.97C331.056 240.19 330.416 241.82 329.316 242.86C328.216 243.9 326.496 244.42 324.156 244.42C321.816 244.42 319.986 244.09 318.666 243.43V239.26L321.516 239.02V240.46C321.516 241 321.766 241.36 322.266 241.54C322.766 241.74 323.456 241.84 324.336 241.84C325.616 241.84 326.516 241.45 327.036 240.67C327.556 239.91 327.816 238.83 327.816 237.43V235.78C326.856 236.9 325.526 237.46 323.826 237.46C322.786 237.46 321.866 237.26 321.066 236.86C320.286 236.46 319.676 235.92 319.236 235.24C318.376 233.88 317.946 232.28 317.946 230.44C317.946 227.82 318.656 225.84 320.076 224.5C321.496 223.14 323.386 222.46 325.746 222.46C327.706 222.46 329.556 222.83 331.296 223.57V234.7C331.296 236.4 331.276 237.49 331.236 237.97ZM327.816 231.88V225.43C327.116 225.19 326.316 225.07 325.416 225.07C324.196 225.07 323.256 225.52 322.596 226.42C321.956 227.32 321.636 228.54 321.636 230.08C321.636 233.24 322.676 234.82 324.756 234.82C325.616 234.82 326.336 234.56 326.916 234.04C327.516 233.5 327.816 232.78 327.816 231.88ZM347.674 223.51V234.67C347.674 234.99 347.724 235.21 347.824 235.33C347.944 235.45 348.144 235.52 348.424 235.54L349.384 235.6V238H344.614V236.26L344.524 236.23C343.524 237.67 342.154 238.39 340.414 238.39C338.374 238.39 336.864 237.74 335.884 236.44C334.904 235.14 334.414 233.36 334.414 231.1C334.414 228.38 335.074 226.26 336.394 224.74C337.714 223.22 339.694 222.46 342.334 222.46C344.034 222.46 345.814 222.81 347.674 223.51ZM344.194 233.23V225.46C343.634 225.2 342.864 225.07 341.884 225.07C340.544 225.07 339.574 225.61 338.974 226.69C338.374 227.77 338.074 229.2 338.074 230.98C338.074 234.22 339.114 235.84 341.194 235.84C342.074 235.84 342.794 235.58 343.354 235.06C343.914 234.52 344.194 233.91 344.194 233.23ZM351.045 225.34V222.91H356.115V224.86C357.235 223.26 358.765 222.46 360.705 222.46C362.665 222.46 363.985 223.26 364.665 224.86C365.785 223.26 367.305 222.46 369.225 222.46C370.665 222.46 371.775 222.9 372.555 223.78C373.335 224.64 373.725 225.94 373.725 227.68V235.51L375.435 235.6V238H368.295V235.72L369.285 235.63C369.585 235.59 369.795 235.51 369.915 235.39C370.055 235.25 370.135 235.01 370.155 234.67V228.46C370.155 227.36 370.025 226.55 369.765 226.03C369.525 225.49 368.945 225.22 368.025 225.22C367.105 225.22 366.395 225.5 365.895 226.06C365.415 226.62 365.175 227.37 365.175 228.31V235.51L366.825 235.6V238H359.745V235.72L360.735 235.63C361.035 235.59 361.255 235.51 361.395 235.39C361.535 235.25 361.605 235 361.605 234.64V228.46C361.605 227.36 361.475 226.55 361.215 226.03C360.975 225.49 360.385 225.22 359.445 225.22C358.525 225.22 357.825 225.51 357.345 226.09C356.865 226.67 356.625 227.39 356.625 228.25V235.51L358.245 235.6V238H351.165V235.72L352.155 235.63C352.455 235.59 352.675 235.51 352.815 235.39C352.955 235.25 353.025 235 353.025 234.64H353.055V226.36C353.055 226.02 352.995 225.79 352.875 225.67C352.775 225.53 352.585 225.45 352.305 225.43L351.045 225.34ZM384.742 222.46C386.242 222.46 387.432 222.83 388.312 223.57C389.192 224.29 389.632 225.31 389.632 226.63C389.632 227.51 389.442 228.29 389.062 228.97C388.682 229.63 388.212 230.15 387.652 230.53C387.092 230.91 386.412 231.22 385.612 231.46C384.272 231.86 382.762 232.06 381.082 232.06C381.142 233.12 381.472 233.98 382.072 234.64C382.672 235.28 383.592 235.6 384.832 235.6C386.072 235.6 387.312 235.16 388.552 234.28L389.692 236.71C389.292 237.07 388.612 237.44 387.652 237.82C386.712 238.2 385.632 238.39 384.412 238.39C381.972 238.39 380.182 237.72 379.042 236.38C377.902 235.02 377.332 233.16 377.332 230.8C377.332 228.44 377.982 226.46 379.282 224.86C380.582 223.26 382.402 222.46 384.742 222.46ZM383.362 229.33C384.102 229.19 384.782 228.9 385.402 228.46C386.022 228 386.332 227.46 386.332 226.84C386.332 225.62 385.732 225.01 384.532 225.01C383.412 225.01 382.552 225.46 381.952 226.36C381.352 227.24 381.022 228.3 380.962 229.54C381.842 229.52 382.642 229.45 383.362 229.33ZM405.279 222.46C406.139 222.46 406.959 222.58 407.739 222.82V219.79C407.739 219.35 407.479 219.11 406.959 219.07L405.669 218.98V216.61H411.249V234.85C411.269 235.31 411.519 235.54 411.999 235.54L413.049 235.6V238H408.189V236.23L408.099 236.2C407.199 237.66 405.839 238.39 404.019 238.39C401.739 238.39 400.139 237.63 399.219 236.11C398.379 234.73 397.959 233.04 397.959 231.04C397.959 228.44 398.599 226.36 399.879 224.8C401.179 223.24 402.979 222.46 405.279 222.46ZM407.739 233.32V225.55C407.019 225.23 406.259 225.07 405.459 225.07C404.139 225.07 403.169 225.6 402.549 226.66C401.949 227.72 401.649 229.07 401.649 230.71C401.649 234.07 402.729 235.75 404.889 235.75C405.709 235.75 406.389 235.52 406.929 235.06C407.469 234.58 407.739 234 407.739 233.32ZM422.33 222.46C423.83 222.46 425.02 222.83 425.9 223.57C426.78 224.29 427.22 225.31 427.22 226.63C427.22 227.51 427.03 228.29 426.65 228.97C426.27 229.63 425.8 230.15 425.24 230.53C424.68 230.91 424 231.22 423.2 231.46C421.86 231.86 420.35 232.06 418.67 232.06C418.73 233.12 419.06 233.98 419.66 234.64C420.26 235.28 421.18 235.6 422.42 235.6C423.66 235.6 424.9 235.16 426.14 234.28L427.28 236.71C426.88 237.07 426.2 237.44 425.24 237.82C424.3 238.2 423.22 238.39 422 238.39C419.56 238.39 417.77 237.72 416.63 236.38C415.49 235.02 414.92 233.16 414.92 230.8C414.92 228.44 415.57 226.46 416.87 224.86C418.17 223.26 419.99 222.46 422.33 222.46ZM420.95 229.33C421.69 229.19 422.37 228.9 422.99 228.46C423.61 228 423.92 227.46 423.92 226.84C423.92 225.62 423.32 225.01 422.12 225.01C421 225.01 420.14 225.46 419.54 226.36C418.94 227.24 418.61 228.3 418.55 229.54C419.43 229.52 420.23 229.45 420.95 229.33ZM431.011 240.85V226.33C431.011 225.99 430.951 225.76 430.831 225.64C430.731 225.5 430.541 225.43 430.261 225.43L429.001 225.34V222.91H434.071V224.86C434.391 224.26 434.971 223.71 435.811 223.21C436.651 222.71 437.651 222.46 438.811 222.46C442.431 222.46 444.241 225 444.241 230.08C444.241 232.78 443.651 234.85 442.471 236.29C441.291 237.73 439.691 238.45 437.671 238.45C436.471 238.45 435.401 238.16 434.461 237.58V241.72L436.891 241.84V244.21H429.151V241.93L430.141 241.84C430.441 241.8 430.661 241.71 430.801 241.57C430.941 241.45 431.011 241.21 431.011 240.85ZM440.521 230.38C440.521 227.04 439.511 225.37 437.491 225.37C436.651 225.37 435.931 225.63 435.331 226.15C434.751 226.65 434.461 227.25 434.461 227.95V234.85C435.221 235.35 436.141 235.6 437.221 235.6C438.321 235.6 439.141 235.1 439.681 234.1C440.241 233.1 440.521 231.86 440.521 230.38ZM451.812 222.91V235.51L453.522 235.6V238H446.382V235.72L447.372 235.63C447.952 235.57 448.242 235.25 448.242 234.67V226.33C448.242 225.99 448.182 225.76 448.062 225.64C447.962 225.52 447.772 225.46 447.492 225.46L446.442 225.4V222.91H451.812ZM448.032 220.33C447.612 219.91 447.402 219.38 447.402 218.74C447.402 218.1 447.612 217.57 448.032 217.15C448.452 216.71 449.002 216.49 449.682 216.49C450.362 216.49 450.912 216.71 451.332 217.15C451.772 217.57 451.992 218.1 451.992 218.74C451.992 219.38 451.772 219.91 451.332 220.33C450.912 220.73 450.362 220.93 449.682 220.93C449.002 220.93 448.452 220.73 448.032 220.33ZM458.889 230.29C458.889 231.99 459.209 233.31 459.849 234.25C460.489 235.19 461.409 235.66 462.609 235.66C463.829 235.66 465.029 235.23 466.209 234.37L467.499 236.68C466.079 237.84 464.299 238.42 462.159 238.42C460.019 238.42 458.329 237.75 457.089 236.41C455.869 235.05 455.259 233.05 455.259 230.41C455.259 227.77 455.959 225.79 457.359 224.47C458.779 223.13 460.369 222.46 462.129 222.46C463.909 222.46 465.559 222.87 467.079 223.69V227.59L464.319 227.8V226.36C464.319 225.82 464.119 225.49 463.719 225.37C463.339 225.23 462.939 225.16 462.519 225.16C460.099 225.16 458.889 226.87 458.889 230.29ZM472.71 219.73H474.66V222.91H478.65L478.35 225.43H474.66V233.32C474.66 234.2 474.82 234.82 475.14 235.18C475.46 235.52 475.95 235.69 476.61 235.69C477.29 235.69 477.97 235.48 478.65 235.06L479.55 237.37C478.55 238.07 477.28 238.42 475.74 238.42C474.84 238.42 474.08 238.3 473.46 238.06C472.84 237.84 472.38 237.59 472.08 237.31C471.78 237.03 471.55 236.62 471.39 236.08C471.23 235.54 471.14 235.12 471.12 234.82C471.1 234.5 471.09 234.04 471.09 233.44V225.43H468.96L469.26 223.24C470.2 223.16 470.91 222.83 471.39 222.25C471.87 221.65 472.31 220.81 472.71 219.73ZM488.548 225.19C488.068 225.01 487.488 224.92 486.808 224.92C486.128 224.92 485.578 225.08 485.158 225.4C484.758 225.7 484.558 226.08 484.558 226.54C484.558 226.98 484.628 227.33 484.768 227.59C484.928 227.83 485.168 228.04 485.488 228.22C485.988 228.48 486.588 228.71 487.288 228.91C487.988 229.09 488.508 229.24 488.848 229.36C489.188 229.46 489.608 229.64 490.108 229.9C490.628 230.16 491.018 230.44 491.278 230.74C491.978 231.48 492.328 232.43 492.328 233.59C492.328 235.09 491.778 236.27 490.678 237.13C489.598 237.97 488.218 238.39 486.538 238.39C484.098 238.39 482.258 238.08 481.018 237.46V233.29L483.718 233.08V234.52C483.718 235.4 484.558 235.84 486.238 235.84C487.918 235.84 488.758 235.23 488.758 234.01C488.758 233.57 488.608 233.21 488.308 232.93C488.028 232.65 487.748 232.46 487.468 232.36C487.188 232.26 486.848 232.16 486.448 232.06C486.068 231.96 485.688 231.86 485.308 231.76C484.948 231.66 484.548 231.53 484.108 231.37C483.688 231.19 483.218 230.94 482.698 230.62C481.678 229.96 481.168 228.86 481.168 227.32C481.168 225.76 481.718 224.56 482.818 223.72C483.918 222.88 485.298 222.46 486.958 222.46C488.638 222.46 490.298 222.86 491.938 223.66V227.26L489.238 227.47V226.21C489.238 225.71 489.008 225.37 488.548 225.19ZM503.559 219.73H505.509V222.91H509.499L509.199 225.43H505.509V233.32C505.509 234.2 505.669 234.82 505.989 235.18C506.309 235.52 506.799 235.69 507.459 235.69C508.139 235.69 508.819 235.48 509.499 235.06L510.399 237.37C509.399 238.07 508.129 238.42 506.589 238.42C505.689 238.42 504.929 238.3 504.309 238.06C503.689 237.84 503.229 237.59 502.929 237.31C502.629 237.03 502.399 236.62 502.239 236.08C502.079 235.54 501.989 235.12 501.969 234.82C501.949 234.5 501.939 234.04 501.939 233.44V225.43H499.809L500.109 223.24C501.049 223.16 501.759 222.83 502.239 222.25C502.719 221.65 503.159 220.81 503.559 219.73ZM517.852 235.81C520.032 235.81 521.122 234.05 521.122 230.53C521.122 228.75 520.872 227.4 520.372 226.48C519.892 225.56 519.072 225.1 517.912 225.1C516.772 225.1 515.932 225.54 515.392 226.42C514.852 227.3 514.582 228.5 514.582 230.02C514.582 232.84 515.102 234.61 516.142 235.33C516.602 235.65 517.172 235.81 517.852 235.81ZM510.952 230.44C510.952 228.96 511.172 227.68 511.612 226.6C512.052 225.5 512.642 224.66 513.382 224.08C514.802 223 516.372 222.46 518.092 222.46C519.292 222.46 520.302 222.66 521.122 223.06C521.962 223.44 522.612 223.89 523.072 224.41C523.552 224.91 523.952 225.65 524.272 226.63C524.612 227.59 524.782 228.73 524.782 230.05C524.782 232.81 524.112 234.9 522.772 236.32C521.432 237.74 519.712 238.45 517.612 238.45C515.532 238.45 513.902 237.78 512.722 236.44C511.542 235.08 510.952 233.08 510.952 230.44ZM528.482 240.85V226.33C528.482 225.99 528.422 225.76 528.302 225.64C528.202 225.5 528.012 225.43 527.732 225.43L526.472 225.34V222.91H531.542V224.86C531.862 224.26 532.442 223.71 533.282 223.21C534.122 222.71 535.122 222.46 536.282 222.46C539.902 222.46 541.712 225 541.712 230.08C541.712 232.78 541.122 234.85 539.942 236.29C538.762 237.73 537.162 238.45 535.142 238.45C533.942 238.45 532.872 238.16 531.932 237.58V241.72L534.362 241.84V244.21H526.622V241.93L527.612 241.84C527.912 241.8 528.132 241.71 528.272 241.57C528.412 241.45 528.482 241.21 528.482 240.85ZM537.992 230.38C537.992 227.04 536.982 225.37 534.962 225.37C534.122 225.37 533.402 225.63 532.802 226.15C532.222 226.65 531.932 227.25 531.932 227.95V234.85C532.692 235.35 533.612 235.6 534.692 235.6C535.792 235.6 536.612 235.1 537.152 234.1C537.712 233.1 537.992 231.86 537.992 230.38ZM549.282 222.91V235.51L550.992 235.6V238H543.852V235.72L544.842 235.63C545.422 235.57 545.712 235.25 545.712 234.67V226.33C545.712 225.99 545.652 225.76 545.532 225.64C545.432 225.52 545.242 225.46 544.962 225.46L543.912 225.4V222.91H549.282ZM545.502 220.33C545.082 219.91 544.872 219.38 544.872 218.74C544.872 218.1 545.082 217.57 545.502 217.15C545.922 216.71 546.472 216.49 547.152 216.49C547.832 216.49 548.382 216.71 548.802 217.15C549.242 217.57 549.462 218.1 549.462 218.74C549.462 219.38 549.242 219.91 548.802 220.33C548.382 220.73 547.832 220.93 547.152 220.93C546.472 220.93 545.922 220.73 545.502 220.33ZM556.359 230.29C556.359 231.99 556.679 233.31 557.319 234.25C557.959 235.19 558.879 235.66 560.079 235.66C561.299 235.66 562.499 235.23 563.679 234.37L564.969 236.68C563.549 237.84 561.769 238.42 559.629 238.42C557.489 238.42 555.799 237.75 554.559 236.41C553.339 235.05 552.729 233.05 552.729 230.41C552.729 227.77 553.429 225.79 554.829 224.47C556.249 223.13 557.839 222.46 559.599 222.46C561.379 222.46 563.029 222.87 564.549 223.69V227.59L561.789 227.8V226.36C561.789 225.82 561.589 225.49 561.189 225.37C560.809 225.23 560.409 225.16 559.989 225.16C557.569 225.16 556.359 226.87 556.359 230.29ZM574.71 225.19C574.23 225.01 573.65 224.92 572.97 224.92C572.29 224.92 571.74 225.08 571.32 225.4C570.92 225.7 570.72 226.08 570.72 226.54C570.72 226.98 570.79 227.33 570.93 227.59C571.09 227.83 571.33 228.04 571.65 228.22C572.15 228.48 572.75 228.71 573.45 228.91C574.15 229.09 574.67 229.24 575.01 229.36C575.35 229.46 575.77 229.64 576.27 229.9C576.79 230.16 577.18 230.44 577.44 230.74C578.14 231.48 578.49 232.43 578.49 233.59C578.49 235.09 577.94 236.27 576.84 237.13C575.76 237.97 574.38 238.39 572.7 238.39C570.26 238.39 568.42 238.08 567.18 237.46V233.29L569.88 233.08V234.52C569.88 235.4 570.72 235.84 572.4 235.84C574.08 235.84 574.92 235.23 574.92 234.01C574.92 233.57 574.77 233.21 574.47 232.93C574.19 232.65 573.91 232.46 573.63 232.36C573.35 232.26 573.01 232.16 572.61 232.06C572.23 231.96 571.85 231.86 571.47 231.76C571.11 231.66 570.71 231.53 570.27 231.37C569.85 231.19 569.38 230.94 568.86 230.62C567.84 229.96 567.33 228.86 567.33 227.32C567.33 225.76 567.88 224.56 568.98 223.72C570.08 222.88 571.46 222.46 573.12 222.46C574.8 222.46 576.46 222.86 578.1 223.66V227.26L575.4 227.47V226.21C575.4 225.71 575.17 225.37 574.71 225.19ZM588.251 234.64V226.33C588.251 226.01 588.191 225.79 588.071 225.67C587.971 225.53 587.781 225.45 587.501 225.43L586.241 225.34V222.91H591.311V225.16C591.671 224.38 592.231 223.74 592.991 223.24C593.751 222.72 594.621 222.46 595.601 222.46C596.601 222.46 597.551 222.68 598.451 223.12V227.59L595.661 227.8V226.42C595.661 226.02 595.561 225.77 595.361 225.67C595.141 225.57 594.871 225.52 594.551 225.52C593.751 225.52 593.091 225.81 592.571 226.39C592.071 226.95 591.821 227.67 591.821 228.55V235.51L594.431 235.63V238H586.391V235.72L587.381 235.63C587.681 235.59 587.901 235.51 588.041 235.39C588.181 235.25 588.251 235 588.251 234.64ZM607.779 222.46C609.279 222.46 610.469 222.83 611.349 223.57C612.229 224.29 612.669 225.31 612.669 226.63C612.669 227.51 612.479 228.29 612.099 228.97C611.719 229.63 611.249 230.15 610.689 230.53C610.129 230.91 609.449 231.22 608.649 231.46C607.309 231.86 605.799 232.06 604.119 232.06C604.179 233.12 604.509 233.98 605.109 234.64C605.709 235.28 606.629 235.6 607.869 235.6C609.109 235.6 610.349 235.16 611.589 234.28L612.729 236.71C612.329 237.07 611.649 237.44 610.689 237.82C609.749 238.2 608.669 238.39 607.449 238.39C605.009 238.39 603.219 237.72 602.079 236.38C600.939 235.02 600.369 233.16 600.369 230.8C600.369 228.44 601.019 226.46 602.319 224.86C603.619 223.26 605.439 222.46 607.779 222.46ZM606.399 229.33C607.139 229.19 607.819 228.9 608.439 228.46C609.059 228 609.369 227.46 609.369 226.84C609.369 225.62 608.769 225.01 607.569 225.01C606.449 225.01 605.589 225.46 604.989 226.36C604.389 227.24 604.059 228.3 603.999 229.54C604.879 229.52 605.679 229.45 606.399 229.33ZM620.15 216.61V235.51L621.86 235.6V238H614.72V235.72L615.71 235.63C616.29 235.57 616.58 235.25 616.58 234.67V219.88C616.58 219.44 616.33 219.2 615.83 219.16L614.78 219.1V216.61H620.15ZM637.186 223.51V234.67C637.186 234.99 637.236 235.21 637.336 235.33C637.456 235.45 637.656 235.52 637.936 235.54L638.896 235.6V238H634.126V236.26L634.036 236.23C633.036 237.67 631.666 238.39 629.926 238.39C627.886 238.39 626.376 237.74 625.396 236.44C624.416 235.14 623.926 233.36 623.926 231.1C623.926 228.38 624.586 226.26 625.906 224.74C627.226 223.22 629.206 222.46 631.846 222.46C633.546 222.46 635.326 222.81 637.186 223.51ZM633.706 233.23V225.46C633.146 225.2 632.376 225.07 631.396 225.07C630.056 225.07 629.086 225.61 628.486 226.69C627.886 227.77 627.586 229.2 627.586 230.98C627.586 234.22 628.626 235.84 630.706 235.84C631.586 235.84 632.306 235.58 632.866 235.06C633.426 234.52 633.706 233.91 633.706 233.23ZM643.481 219.73H645.431V222.91H649.421L649.121 225.43H645.431V233.32C645.431 234.2 645.591 234.82 645.911 235.18C646.231 235.52 646.721 235.69 647.381 235.69C648.061 235.69 648.741 235.48 649.421 235.06L650.321 237.37C649.321 238.07 648.051 238.42 646.511 238.42C645.611 238.42 644.851 238.3 644.231 238.06C643.611 237.84 643.151 237.59 642.851 237.31C642.551 237.03 642.321 236.62 642.161 236.08C642.001 235.54 641.911 235.12 641.891 234.82C641.871 234.5 641.861 234.04 641.861 233.44V225.43H639.731L640.031 223.24C640.971 223.16 641.681 222.83 642.161 222.25C642.641 221.65 643.081 220.81 643.481 219.73ZM658.99 222.46C660.49 222.46 661.68 222.83 662.56 223.57C663.44 224.29 663.88 225.31 663.88 226.63C663.88 227.51 663.69 228.29 663.31 228.97C662.93 229.63 662.46 230.15 661.9 230.53C661.34 230.91 660.66 231.22 659.86 231.46C658.52 231.86 657.01 232.06 655.33 232.06C655.39 233.12 655.72 233.98 656.32 234.64C656.92 235.28 657.84 235.6 659.08 235.6C660.32 235.6 661.56 235.16 662.8 234.28L663.94 236.71C663.54 237.07 662.86 237.44 661.9 237.82C660.96 238.2 659.88 238.39 658.66 238.39C656.22 238.39 654.43 237.72 653.29 236.38C652.15 235.02 651.58 233.16 651.58 230.8C651.58 228.44 652.23 226.46 653.53 224.86C654.83 223.26 656.65 222.46 658.99 222.46ZM657.61 229.33C658.35 229.19 659.03 228.9 659.65 228.46C660.27 228 660.58 227.46 660.58 226.84C660.58 225.62 659.98 225.01 658.78 225.01C657.66 225.01 656.8 225.46 656.2 226.36C655.6 227.24 655.27 228.3 655.21 229.54C656.09 229.52 656.89 229.45 657.61 229.33ZM673.521 222.46C674.381 222.46 675.201 222.58 675.981 222.82V219.79C675.981 219.35 675.721 219.11 675.201 219.07L673.911 218.98V216.61H679.491V234.85C679.511 235.31 679.761 235.54 680.241 235.54L681.291 235.6V238H676.431V236.23L676.341 236.2C675.441 237.66 674.081 238.39 672.261 238.39C669.981 238.39 668.381 237.63 667.461 236.11C666.621 234.73 666.201 233.04 666.201 231.04C666.201 228.44 666.841 226.36 668.121 224.8C669.421 223.24 671.221 222.46 673.521 222.46ZM675.981 233.32V225.55C675.261 225.23 674.501 225.07 673.701 225.07C672.381 225.07 671.411 225.6 670.791 226.66C670.191 227.72 669.891 229.07 669.891 230.71C669.891 234.07 670.971 235.75 673.131 235.75C673.951 235.75 674.631 235.52 675.171 235.06C675.711 234.58 675.981 234 675.981 233.32ZM692.378 219.73H694.328V222.91H698.318L698.018 225.43H694.328V233.32C694.328 234.2 694.488 234.82 694.808 235.18C695.128 235.52 695.618 235.69 696.278 235.69C696.958 235.69 697.638 235.48 698.318 235.06L699.218 237.37C698.218 238.07 696.948 238.42 695.408 238.42C694.508 238.42 693.748 238.3 693.128 238.06C692.508 237.84 692.048 237.59 691.748 237.31C691.448 237.03 691.218 236.62 691.058 236.08C690.898 235.54 690.808 235.12 690.788 234.82C690.768 234.5 690.758 234.04 690.758 233.44V225.43H688.628L688.928 223.24C689.868 223.16 690.578 222.83 691.058 222.25C691.538 221.65 691.978 220.81 692.378 219.73ZM706.67 235.81C708.85 235.81 709.94 234.05 709.94 230.53C709.94 228.75 709.69 227.4 709.19 226.48C708.71 225.56 707.89 225.1 706.73 225.1C705.59 225.1 704.75 225.54 704.21 226.42C703.67 227.3 703.4 228.5 703.4 230.02C703.4 232.84 703.92 234.61 704.96 235.33C705.42 235.65 705.99 235.81 706.67 235.81ZM699.77 230.44C699.77 228.96 699.99 227.68 700.43 226.6C700.87 225.5 701.46 224.66 702.2 224.08C703.62 223 705.19 222.46 706.91 222.46C708.11 222.46 709.12 222.66 709.94 223.06C710.78 223.44 711.43 223.89 711.89 224.41C712.37 224.91 712.77 225.65 713.09 226.63C713.43 227.59 713.6 228.73 713.6 230.05C713.6 232.81 712.93 234.9 711.59 236.32C710.25 237.74 708.53 238.45 706.43 238.45C704.35 238.45 702.72 237.78 701.54 236.44C700.36 235.08 699.77 233.08 699.77 230.44ZM198.589 263.46C199.449 263.46 200.269 263.58 201.049 263.82V260.79C201.049 260.35 200.789 260.11 200.269 260.07L198.979 259.98V257.61H204.559V275.85C204.579 276.31 204.829 276.54 205.309 276.54L206.359 276.6V279H201.499V277.23L201.409 277.2C200.509 278.66 199.149 279.39 197.329 279.39C195.049 279.39 193.449 278.63 192.529 277.11C191.689 275.73 191.269 274.04 191.269 272.04C191.269 269.44 191.909 267.36 193.189 265.8C194.489 264.24 196.289 263.46 198.589 263.46ZM201.049 274.32V266.55C200.329 266.23 199.569 266.07 198.769 266.07C197.449 266.07 196.479 266.6 195.859 267.66C195.259 268.72 194.959 270.07 194.959 271.71C194.959 275.07 196.039 276.75 198.199 276.75C199.019 276.75 199.699 276.52 200.239 276.06C200.779 275.58 201.049 275 201.049 274.32ZM215.64 263.46C217.14 263.46 218.33 263.83 219.21 264.57C220.09 265.29 220.53 266.31 220.53 267.63C220.53 268.51 220.34 269.29 219.96 269.97C219.58 270.63 219.11 271.15 218.55 271.53C217.99 271.91 217.31 272.22 216.51 272.46C215.17 272.86 213.66 273.06 211.98 273.06C212.04 274.12 212.37 274.98 212.97 275.64C213.57 276.28 214.49 276.6 215.73 276.6C216.97 276.6 218.21 276.16 219.45 275.28L220.59 277.71C220.19 278.07 219.51 278.44 218.55 278.82C217.61 279.2 216.53 279.39 215.31 279.39C212.87 279.39 211.08 278.72 209.94 277.38C208.8 276.02 208.23 274.16 208.23 271.8C208.23 269.44 208.88 267.46 210.18 265.86C211.48 264.26 213.3 263.46 215.64 263.46ZM214.26 270.33C215 270.19 215.68 269.9 216.3 269.46C216.92 269 217.23 268.46 217.23 267.84C217.23 266.62 216.63 266.01 215.43 266.01C214.31 266.01 213.45 266.46 212.85 267.36C212.25 268.24 211.92 269.3 211.86 270.54C212.74 270.52 213.54 270.45 214.26 270.33ZM236.111 264.51V275.67C236.111 275.99 236.161 276.21 236.261 276.33C236.381 276.45 236.581 276.52 236.861 276.54L237.821 276.6V279H233.051V277.26L232.961 277.23C231.961 278.67 230.591 279.39 228.851 279.39C226.811 279.39 225.301 278.74 224.321 277.44C223.341 276.14 222.851 274.36 222.851 272.1C222.851 269.38 223.511 267.26 224.831 265.74C226.151 264.22 228.131 263.46 230.771 263.46C232.471 263.46 234.251 263.81 236.111 264.51ZM232.631 274.23V266.46C232.071 266.2 231.301 266.07 230.321 266.07C228.981 266.07 228.011 266.61 227.411 267.69C226.811 268.77 226.511 270.2 226.511 271.98C226.511 275.22 227.551 276.84 229.631 276.84C230.511 276.84 231.231 276.58 231.791 276.06C232.351 275.52 232.631 274.91 232.631 274.23ZM242.407 260.73H244.357V263.91H248.347L248.047 266.43H244.357V274.32C244.357 275.2 244.517 275.82 244.837 276.18C245.157 276.52 245.647 276.69 246.307 276.69C246.987 276.69 247.667 276.48 248.347 276.06L249.247 278.37C248.247 279.07 246.977 279.42 245.437 279.42C244.537 279.42 243.777 279.3 243.157 279.06C242.537 278.84 242.077 278.59 241.777 278.31C241.477 278.03 241.247 277.62 241.087 277.08C240.927 276.54 240.837 276.12 240.817 275.82C240.797 275.5 240.787 275.04 240.787 274.44V266.43H238.657L238.957 264.24C239.897 264.16 240.607 263.83 241.087 263.25C241.567 262.65 242.007 261.81 242.407 260.73ZM252.216 275.64V261.03C252.216 260.71 252.156 260.49 252.036 260.37C251.936 260.25 251.746 260.18 251.466 260.16L250.416 260.1V257.61H255.756V265.68C256.796 264.2 258.256 263.46 260.136 263.46C261.656 263.46 262.826 263.9 263.646 264.78C264.486 265.64 264.906 266.94 264.906 268.68V276.51L266.616 276.6V279H259.476V276.72L260.466 276.63C260.766 276.59 260.986 276.51 261.126 276.39C261.266 276.25 261.336 276 261.336 275.64V269.46C261.336 268.42 261.166 267.62 260.826 267.06C260.506 266.5 259.866 266.22 258.906 266.22C257.966 266.22 257.206 266.52 256.626 267.12C256.066 267.7 255.786 268.41 255.786 269.25V276.51L257.496 276.6V279H250.356V276.72L251.346 276.63C251.646 276.59 251.866 276.51 252.006 276.39C252.146 276.25 252.216 276 252.216 275.64ZM273.444 276.63L270.354 283.65L268.464 283.08L269.394 276.99C269.534 275.99 270.024 275.49 270.864 275.49C271.284 275.49 271.604 275.56 271.824 275.7C272.064 275.82 272.254 275.92 272.394 276C272.554 276.08 272.664 276.14 272.724 276.18C272.784 276.22 272.904 276.3 273.084 276.42C273.264 276.52 273.384 276.59 273.444 276.63ZM284.946 260.73H286.896V263.91H290.886L290.586 266.43H286.896V274.32C286.896 275.2 287.056 275.82 287.376 276.18C287.696 276.52 288.186 276.69 288.846 276.69C289.526 276.69 290.206 276.48 290.886 276.06L291.786 278.37C290.786 279.07 289.516 279.42 287.976 279.42C287.076 279.42 286.316 279.3 285.696 279.06C285.076 278.84 284.616 278.59 284.316 278.31C284.016 278.03 283.786 277.62 283.626 277.08C283.466 276.54 283.376 276.12 283.356 275.82C283.336 275.5 283.326 275.04 283.326 274.44V266.43H281.196L281.496 264.24C282.436 264.16 283.146 263.83 283.626 263.25C284.106 262.65 284.546 261.81 284.946 260.73ZM294.785 275.64V267.33C294.785 267.01 294.725 266.79 294.605 266.67C294.505 266.53 294.315 266.45 294.035 266.43L292.775 266.34V263.91H297.845V266.16C298.205 265.38 298.765 264.74 299.525 264.24C300.285 263.72 301.155 263.46 302.135 263.46C303.135 263.46 304.085 263.68 304.985 264.12V268.59L302.195 268.8V267.42C302.195 267.02 302.095 266.77 301.895 266.67C301.675 266.57 301.405 266.52 301.085 266.52C300.285 266.52 299.625 266.81 299.105 267.39C298.605 267.95 298.355 268.67 298.355 269.55V276.51L300.965 276.63V279H292.925V276.72L293.915 276.63C294.215 276.59 294.435 276.51 294.575 276.39C294.715 276.25 294.785 276 294.785 275.64ZM320.252 264.51V275.67C320.252 275.99 320.302 276.21 320.402 276.33C320.522 276.45 320.722 276.52 321.002 276.54L321.962 276.6V279H317.192V277.26L317.102 277.23C316.102 278.67 314.732 279.39 312.992 279.39C310.952 279.39 309.442 278.74 308.462 277.44C307.482 276.14 306.992 274.36 306.992 272.1C306.992 269.38 307.652 267.26 308.972 265.74C310.292 264.22 312.272 263.46 314.912 263.46C316.612 263.46 318.392 263.81 320.252 264.51ZM316.772 274.23V266.46C316.212 266.2 315.442 266.07 314.462 266.07C313.122 266.07 312.152 266.61 311.552 267.69C310.952 268.77 310.652 270.2 310.652 271.98C310.652 275.22 311.692 276.84 313.772 276.84C314.652 276.84 315.372 276.58 315.932 276.06C316.492 275.52 316.772 274.91 316.772 274.23ZM339.118 276.63V279H334.258V277.05C333.158 278.61 331.538 279.39 329.398 279.39C326.298 279.39 324.748 277.66 324.748 274.2V267.27C324.748 266.73 324.498 266.45 323.998 266.43L323.038 266.37V263.91H328.318V273.42C328.318 274.48 328.468 275.28 328.768 275.82C329.068 276.36 329.688 276.63 330.628 276.63C331.568 276.63 332.318 276.34 332.878 275.76C333.458 275.18 333.748 274.48 333.748 273.66V267.33C333.748 267.01 333.688 266.79 333.568 266.67C333.468 266.53 333.278 266.45 332.998 266.43L332.038 266.37V263.91H337.318V275.67C337.318 275.99 337.368 276.21 337.468 276.33C337.568 276.43 337.768 276.5 338.068 276.54L339.118 276.63ZM340.762 266.34V263.91H345.832V265.86C346.952 264.26 348.482 263.46 350.422 263.46C352.382 263.46 353.702 264.26 354.382 265.86C355.502 264.26 357.022 263.46 358.942 263.46C360.382 263.46 361.492 263.9 362.272 264.78C363.052 265.64 363.442 266.94 363.442 268.68V276.51L365.152 276.6V279H358.012V276.72L359.002 276.63C359.302 276.59 359.512 276.51 359.632 276.39C359.772 276.25 359.852 276.01 359.872 275.67V269.46C359.872 268.36 359.742 267.55 359.482 267.03C359.242 266.49 358.662 266.22 357.742 266.22C356.822 266.22 356.112 266.5 355.612 267.06C355.132 267.62 354.892 268.37 354.892 269.31V276.51L356.542 276.6V279H349.462V276.72L350.452 276.63C350.752 276.59 350.972 276.51 351.112 276.39C351.252 276.25 351.322 276 351.322 275.64V269.46C351.322 268.36 351.192 267.55 350.932 267.03C350.692 266.49 350.102 266.22 349.162 266.22C348.242 266.22 347.542 266.51 347.062 267.09C346.582 267.67 346.342 268.39 346.342 269.25V276.51L347.962 276.6V279H340.882V276.72L341.872 276.63C342.172 276.59 342.392 276.51 342.532 276.39C342.672 276.25 342.742 276 342.742 275.64H342.772V267.36C342.772 267.02 342.712 266.79 342.592 266.67C342.492 266.53 342.302 266.45 342.022 266.43L340.762 266.34ZM380.398 264.51V275.67C380.398 275.99 380.448 276.21 380.548 276.33C380.668 276.45 380.868 276.52 381.148 276.54L382.108 276.6V279H377.338V277.26L377.248 277.23C376.248 278.67 374.878 279.39 373.138 279.39C371.098 279.39 369.588 278.74 368.608 277.44C367.628 276.14 367.138 274.36 367.138 272.1C367.138 269.38 367.798 267.26 369.118 265.74C370.438 264.22 372.418 263.46 375.058 263.46C376.758 263.46 378.538 263.81 380.398 264.51ZM376.918 274.23V266.46C376.358 266.2 375.588 266.07 374.608 266.07C373.268 266.07 372.298 266.61 371.698 267.69C371.098 268.77 370.798 270.2 370.798 271.98C370.798 275.22 371.838 276.84 373.918 276.84C374.798 276.84 375.518 276.58 376.078 276.06C376.638 275.52 376.918 274.91 376.918 274.23ZM391.81 266.19C391.33 266.01 390.75 265.92 390.07 265.92C389.39 265.92 388.84 266.08 388.42 266.4C388.02 266.7 387.82 267.08 387.82 267.54C387.82 267.98 387.89 268.33 388.03 268.59C388.19 268.83 388.43 269.04 388.75 269.22C389.25 269.48 389.85 269.71 390.55 269.91C391.25 270.09 391.77 270.24 392.11 270.36C392.45 270.46 392.87 270.64 393.37 270.9C393.89 271.16 394.28 271.44 394.54 271.74C395.24 272.48 395.59 273.43 395.59 274.59C395.59 276.09 395.04 277.27 393.94 278.13C392.86 278.97 391.48 279.39 389.8 279.39C387.36 279.39 385.52 279.08 384.28 278.46V274.29L386.98 274.08V275.52C386.98 276.4 387.82 276.84 389.5 276.84C391.18 276.84 392.02 276.23 392.02 275.01C392.02 274.57 391.87 274.21 391.57 273.93C391.29 273.65 391.01 273.46 390.73 273.36C390.45 273.26 390.11 273.16 389.71 273.06C389.33 272.96 388.95 272.86 388.57 272.76C388.21 272.66 387.81 272.53 387.37 272.37C386.95 272.19 386.48 271.94 385.96 271.62C384.94 270.96 384.43 269.86 384.43 268.32C384.43 266.76 384.98 265.56 386.08 264.72C387.18 263.88 388.56 263.46 390.22 263.46C391.9 263.46 393.56 263.86 395.2 264.66V268.26L392.5 268.47V267.21C392.5 266.71 392.27 266.37 391.81 266.19ZM402.555 276.63L399.465 283.65L397.575 283.08L398.505 276.99C398.645 275.99 399.135 275.49 399.975 275.49C400.395 275.49 400.715 275.56 400.935 275.7C401.175 275.82 401.365 275.92 401.505 276C401.665 276.08 401.775 276.14 401.835 276.18C401.895 276.22 402.015 276.3 402.195 276.42C402.375 276.52 402.495 276.59 402.555 276.63ZM424.197 264.51V275.67C424.197 275.99 424.247 276.21 424.347 276.33C424.467 276.45 424.667 276.52 424.947 276.54L425.907 276.6V279H421.137V277.26L421.047 277.23C420.047 278.67 418.677 279.39 416.937 279.39C414.897 279.39 413.387 278.74 412.407 277.44C411.427 276.14 410.937 274.36 410.937 272.1C410.937 269.38 411.597 267.26 412.917 265.74C414.237 264.22 416.217 263.46 418.857 263.46C420.557 263.46 422.337 263.81 424.197 264.51ZM420.717 274.23V266.46C420.157 266.2 419.387 266.07 418.407 266.07C417.067 266.07 416.097 266.61 415.497 267.69C414.897 268.77 414.597 270.2 414.597 271.98C414.597 275.22 415.637 276.84 417.717 276.84C418.597 276.84 419.317 276.58 419.877 276.06C420.437 275.52 420.717 274.91 420.717 274.23ZM427.569 266.31V263.91H432.639V265.86C433.159 265.12 433.849 264.54 434.709 264.12C435.569 263.68 436.499 263.46 437.499 263.46C439.019 263.46 440.189 263.9 441.009 264.78C441.849 265.64 442.269 266.94 442.269 268.68V276.51L443.979 276.6V279H436.839V276.72L437.829 276.63C438.129 276.59 438.349 276.51 438.489 276.39C438.629 276.25 438.699 276 438.699 275.64V269.46C438.699 268.36 438.529 267.55 438.189 267.03C437.849 266.49 437.199 266.22 436.239 266.22C435.299 266.22 434.549 266.52 433.989 267.12C433.429 267.72 433.149 268.43 433.149 269.25V276.51L434.859 276.6V279H427.719V276.72L428.709 276.63C429.009 276.59 429.229 276.51 429.369 276.39C429.509 276.25 429.579 276 429.579 275.64V267.33C429.579 266.73 429.329 266.42 428.829 266.4L427.569 266.31ZM453.267 263.46C454.127 263.46 454.947 263.58 455.727 263.82V260.79C455.727 260.35 455.467 260.11 454.947 260.07L453.657 259.98V257.61H459.237V275.85C459.257 276.31 459.507 276.54 459.987 276.54L461.037 276.6V279H456.177V277.23L456.087 277.2C455.187 278.66 453.827 279.39 452.007 279.39C449.727 279.39 448.127 278.63 447.207 277.11C446.367 275.73 445.947 274.04 445.947 272.04C445.947 269.44 446.587 267.36 447.867 265.8C449.167 264.24 450.967 263.46 453.267 263.46ZM455.727 274.32V266.55C455.007 266.23 454.247 266.07 453.447 266.07C452.127 266.07 451.157 266.6 450.537 267.66C449.937 268.72 449.637 270.07 449.637 271.71C449.637 275.07 450.717 276.75 452.877 276.75C453.697 276.75 454.377 276.52 454.917 276.06C455.457 275.58 455.727 275 455.727 274.32ZM472.424 271.29C472.424 272.99 472.744 274.31 473.384 275.25C474.024 276.19 474.944 276.66 476.144 276.66C477.364 276.66 478.564 276.23 479.744 275.37L481.034 277.68C479.614 278.84 477.834 279.42 475.694 279.42C473.554 279.42 471.864 278.75 470.624 277.41C469.404 276.05 468.794 274.05 468.794 271.41C468.794 268.77 469.494 266.79 470.894 265.47C472.314 264.13 473.904 263.46 475.664 263.46C477.444 263.46 479.094 263.87 480.614 264.69V268.59L477.854 268.8V267.36C477.854 266.82 477.654 266.49 477.254 266.37C476.874 266.23 476.474 266.16 476.054 266.16C473.634 266.16 472.424 267.87 472.424 271.29ZM496.385 264.51V275.67C496.385 275.99 496.435 276.21 496.535 276.33C496.655 276.45 496.855 276.52 497.135 276.54L498.095 276.6V279H493.325V277.26L493.235 277.23C492.235 278.67 490.865 279.39 489.125 279.39C487.085 279.39 485.575 278.74 484.595 277.44C483.615 276.14 483.125 274.36 483.125 272.1C483.125 269.38 483.785 267.26 485.105 265.74C486.425 264.22 488.405 263.46 491.045 263.46C492.745 263.46 494.525 263.81 496.385 264.51ZM492.905 274.23V266.46C492.345 266.2 491.575 266.07 490.595 266.07C489.255 266.07 488.285 266.61 487.685 267.69C487.085 268.77 486.785 270.2 486.785 271.98C486.785 275.22 487.825 276.84 489.905 276.84C490.785 276.84 491.505 276.58 492.065 276.06C492.625 275.52 492.905 274.91 492.905 274.23ZM501.796 275.64V267.33C501.796 267.01 501.736 266.79 501.616 266.67C501.516 266.53 501.326 266.45 501.046 266.43L499.786 266.34V263.91H504.856V266.16C505.216 265.38 505.776 264.74 506.536 264.24C507.296 263.72 508.166 263.46 509.146 263.46C510.146 263.46 511.096 263.68 511.996 264.12V268.59L509.206 268.8V267.42C509.206 267.02 509.106 266.77 508.906 266.67C508.686 266.57 508.416 266.52 508.096 266.52C507.296 266.52 506.636 266.81 506.116 267.39C505.616 267.95 505.366 268.67 505.366 269.55V276.51L507.976 276.63V279H499.936V276.72L500.926 276.63C501.226 276.59 501.446 276.51 501.586 276.39C501.726 276.25 501.796 276 501.796 275.64ZM533.27 264.51V275.67C533.27 275.99 533.32 276.21 533.42 276.33C533.54 276.45 533.74 276.52 534.02 276.54L534.98 276.6V279H530.21V277.26L530.12 277.23C529.12 278.67 527.75 279.39 526.01 279.39C523.97 279.39 522.46 278.74 521.48 277.44C520.5 276.14 520.01 274.36 520.01 272.1C520.01 269.38 520.67 267.26 521.99 265.74C523.31 264.22 525.29 263.46 527.93 263.46C529.63 263.46 531.41 263.81 533.27 264.51ZM529.79 274.23V266.46C529.23 266.2 528.46 266.07 527.48 266.07C526.14 266.07 525.17 266.61 524.57 267.69C523.97 268.77 523.67 270.2 523.67 271.98C523.67 275.22 524.71 276.84 526.79 276.84C527.67 276.84 528.39 276.58 528.95 276.06C529.51 275.52 529.79 274.91 529.79 274.23ZM540.451 271.29C540.451 272.99 540.771 274.31 541.411 275.25C542.051 276.19 542.971 276.66 544.171 276.66C545.391 276.66 546.591 276.23 547.771 275.37L549.061 277.68C547.641 278.84 545.861 279.42 543.721 279.42C541.581 279.42 539.891 278.75 538.651 277.41C537.431 276.05 536.821 274.05 536.821 271.41C536.821 268.77 537.521 266.79 538.921 265.47C540.341 264.13 541.931 263.46 543.691 263.46C545.471 263.46 547.121 263.87 548.641 264.69V268.59L545.881 268.8V267.36C545.881 266.82 545.681 266.49 545.281 266.37C544.901 266.23 544.501 266.16 544.081 266.16C541.661 266.16 540.451 267.87 540.451 271.29ZM554.572 271.29C554.572 272.99 554.892 274.31 555.532 275.25C556.172 276.19 557.092 276.66 558.292 276.66C559.512 276.66 560.712 276.23 561.892 275.37L563.182 277.68C561.762 278.84 559.982 279.42 557.842 279.42C555.702 279.42 554.012 278.75 552.772 277.41C551.552 276.05 550.942 274.05 550.942 271.41C550.942 268.77 551.642 266.79 553.042 265.47C554.462 264.13 556.052 263.46 557.812 263.46C559.592 263.46 561.242 263.87 562.762 264.69V268.59L560.002 268.8V267.36C560.002 266.82 559.802 266.49 559.402 266.37C559.022 266.23 558.622 266.16 558.202 266.16C555.782 266.16 554.572 267.87 554.572 271.29ZM570.493 263.91V276.51L572.203 276.6V279H565.063V276.72L566.053 276.63C566.633 276.57 566.923 276.25 566.923 275.67V267.33C566.923 266.99 566.863 266.76 566.743 266.64C566.643 266.52 566.453 266.46 566.173 266.46L565.123 266.4V263.91H570.493ZM566.713 261.33C566.293 260.91 566.083 260.38 566.083 259.74C566.083 259.1 566.293 258.57 566.713 258.15C567.133 257.71 567.683 257.49 568.363 257.49C569.043 257.49 569.593 257.71 570.013 258.15C570.453 258.57 570.673 259.1 570.673 259.74C570.673 260.38 570.453 260.91 570.013 261.33C569.593 261.73 569.043 261.93 568.363 261.93C567.683 261.93 567.133 261.73 566.713 261.33ZM581.47 263.46C582.33 263.46 583.15 263.58 583.93 263.82V260.79C583.93 260.35 583.67 260.11 583.15 260.07L581.86 259.98V257.61H587.44V275.85C587.46 276.31 587.71 276.54 588.19 276.54L589.24 276.6V279H584.38V277.23L584.29 277.2C583.39 278.66 582.03 279.39 580.21 279.39C577.93 279.39 576.33 278.63 575.41 277.11C574.57 275.73 574.15 274.04 574.15 272.04C574.15 269.44 574.79 267.36 576.07 265.8C577.37 264.24 579.17 263.46 581.47 263.46ZM583.93 274.32V266.55C583.21 266.23 582.45 266.07 581.65 266.07C580.33 266.07 579.36 266.6 578.74 267.66C578.14 268.72 577.84 270.07 577.84 271.71C577.84 275.07 578.92 276.75 581.08 276.75C581.9 276.75 582.58 276.52 583.12 276.06C583.66 275.58 583.93 275 583.93 274.32ZM598.521 263.46C600.021 263.46 601.211 263.83 602.091 264.57C602.971 265.29 603.411 266.31 603.411 267.63C603.411 268.51 603.221 269.29 602.841 269.97C602.461 270.63 601.991 271.15 601.431 271.53C600.871 271.91 600.191 272.22 599.391 272.46C598.051 272.86 596.541 273.06 594.861 273.06C594.921 274.12 595.251 274.98 595.851 275.64C596.451 276.28 597.371 276.6 598.611 276.6C599.851 276.6 601.091 276.16 602.331 275.28L603.471 277.71C603.071 278.07 602.391 278.44 601.431 278.82C600.491 279.2 599.411 279.39 598.191 279.39C595.751 279.39 593.961 278.72 592.821 277.38C591.681 276.02 591.111 274.16 591.111 271.8C591.111 269.44 591.761 267.46 593.061 265.86C594.361 264.26 596.181 263.46 598.521 263.46ZM597.141 270.33C597.881 270.19 598.561 269.9 599.181 269.46C599.801 269 600.111 268.46 600.111 267.84C600.111 266.62 599.511 266.01 598.311 266.01C597.191 266.01 596.331 266.46 595.731 267.36C595.131 268.24 594.801 269.3 594.741 270.54C595.621 270.52 596.421 270.45 597.141 270.33ZM605.342 266.31V263.91H610.412V265.86C610.932 265.12 611.622 264.54 612.482 264.12C613.342 263.68 614.272 263.46 615.272 263.46C616.792 263.46 617.962 263.9 618.782 264.78C619.622 265.64 620.042 266.94 620.042 268.68V276.51L621.752 276.6V279H614.612V276.72L615.602 276.63C615.902 276.59 616.122 276.51 616.262 276.39C616.402 276.25 616.472 276 616.472 275.64V269.46C616.472 268.36 616.302 267.55 615.962 267.03C615.622 266.49 614.972 266.22 614.012 266.22C613.072 266.22 612.322 266.52 611.762 267.12C611.202 267.72 610.922 268.43 610.922 269.25V276.51L612.632 276.6V279H605.492V276.72L606.482 276.63C606.782 276.59 607.002 276.51 607.142 276.39C607.282 276.25 607.352 276 607.352 275.64V267.33C607.352 266.73 607.102 266.42 606.602 266.4L605.342 266.31ZM625.639 260.73H627.589V263.91H631.579L631.279 266.43H627.589V274.32C627.589 275.2 627.749 275.82 628.069 276.18C628.389 276.52 628.879 276.69 629.539 276.69C630.219 276.69 630.899 276.48 631.579 276.06L632.479 278.37C631.479 279.07 630.209 279.42 628.669 279.42C627.769 279.42 627.009 279.3 626.389 279.06C625.769 278.84 625.309 278.59 625.009 278.31C624.709 278.03 624.479 277.62 624.319 277.08C624.159 276.54 624.069 276.12 624.049 275.82C624.029 275.5 624.019 275.04 624.019 274.44V266.43H621.889L622.189 264.24C623.129 264.16 623.839 263.83 624.319 263.25C624.799 262.65 625.239 261.81 625.639 260.73ZM641.478 266.19C640.998 266.01 640.418 265.92 639.738 265.92C639.058 265.92 638.508 266.08 638.088 266.4C637.688 266.7 637.488 267.08 637.488 267.54C637.488 267.98 637.558 268.33 637.698 268.59C637.858 268.83 638.098 269.04 638.418 269.22C638.918 269.48 639.518 269.71 640.218 269.91C640.918 270.09 641.438 270.24 641.778 270.36C642.118 270.46 642.538 270.64 643.038 270.9C643.558 271.16 643.948 271.44 644.208 271.74C644.908 272.48 645.258 273.43 645.258 274.59C645.258 276.09 644.708 277.27 643.608 278.13C642.528 278.97 641.148 279.39 639.468 279.39C637.028 279.39 635.188 279.08 633.948 278.46V274.29L636.648 274.08V275.52C636.648 276.4 637.488 276.84 639.168 276.84C640.848 276.84 641.688 276.23 641.688 275.01C641.688 274.57 641.538 274.21 641.238 273.93C640.958 273.65 640.678 273.46 640.398 273.36C640.118 273.26 639.778 273.16 639.378 273.06C638.998 272.96 638.618 272.86 638.238 272.76C637.878 272.66 637.478 272.53 637.038 272.37C636.618 272.19 636.148 271.94 635.628 271.62C634.608 270.96 634.098 269.86 634.098 268.32C634.098 266.76 634.648 265.56 635.748 264.72C636.848 263.88 638.228 263.46 639.888 263.46C641.568 263.46 643.228 263.86 644.868 264.66V268.26L642.168 268.47V267.21C642.168 266.71 641.938 266.37 641.478 266.19ZM649.553 279.45C648.853 279.45 648.313 279.26 647.933 278.88C647.553 278.48 647.363 277.97 647.363 277.35C647.363 276.71 647.553 276.19 647.933 275.79C648.333 275.37 648.863 275.16 649.523 275.16C650.203 275.16 650.743 275.36 651.143 275.76C651.543 276.14 651.743 276.65 651.743 277.29C651.743 277.91 651.553 278.43 651.173 278.85C650.793 279.25 650.253 279.45 649.553 279.45Z" fill="#818696"/>
<path d="M216.783 170L224 177.217L231.217 170L224 162.783L216.783 170ZM629.217 170L622 162.783L614.783 170L622 177.217L629.217 170ZM224 171.25H622V168.75H224V171.25Z" fill="#921F20"/>
</g>
<defs>
<clipPath id="clip0_1753_19849">
<rect width="844" height="390" fill="white"/>
</clipPath>
</defs>
</svg>
