<svg width="199" height="50" viewBox="0 0 199 50" fill="none" xmlns="http://www.w3.org/2000/svg">
<mask id="path-1-inside-1_706_13522" fill="white">
<path fill-rule="evenodd" clip-rule="evenodd" d="M6.90951 10L17.9263 0H17.9263H180.175L191.192 10V10.0101C183.956 10.3024 178.172 16.9017 178.172 25C178.172 33.0983 183.956 39.6977 191.192 39.9899V40L180.175 50H17.9263L6.90948 40L6.90948 39.9899C14.1448 39.6977 19.9294 33.0983 19.9294 25C19.9294 16.9017 14.1448 10.3024 6.90951 10.0101L6.90951 10Z"/>
</mask>
<path fill-rule="evenodd" clip-rule="evenodd" d="M6.90951 10L17.9263 0H17.9263H180.175L191.192 10V10.0101C183.956 10.3024 178.172 16.9017 178.172 25C178.172 33.0983 183.956 39.6977 191.192 39.9899V40L180.175 50H17.9263L6.90948 40L6.90948 39.9899C14.1448 39.6977 19.9294 33.0983 19.9294 25C19.9294 16.9017 14.1448 10.3024 6.90951 10.0101L6.90951 10Z" fill="#818696"/>
<path d="M17.9263 0V-4H16.3816L15.2379 -2.96181L17.9263 0ZM6.90951 10L4.22107 7.03819L2.90951 8.2287L2.90951 10L6.90951 10ZM180.175 0L182.863 -2.96182L181.719 -4H180.175V0ZM191.192 10H195.192V8.22869L193.88 7.03818L191.192 10ZM191.192 10.0101L191.353 14.0068L195.192 13.8518V10.0101H191.192ZM191.192 39.9899H195.192V36.1482L191.353 35.9932L191.192 39.9899ZM191.192 40L193.88 42.9618L195.192 41.7713V40H191.192ZM180.175 50V54H181.719L182.863 52.9618L180.175 50ZM17.9263 50L15.2379 52.9618L16.3817 54H17.9263V50ZM6.90948 40L2.90948 40L2.90948 41.7713L4.22105 42.9618L6.90948 40ZM6.90948 39.9899L6.74805 35.9932L2.90949 36.1482L2.90948 39.9899L6.90948 39.9899ZM6.90951 10.0101L2.90951 10.0101L2.9095 13.8518L6.74807 14.0068L6.90951 10.0101ZM15.2379 -2.96181L4.22107 7.03819L9.59795 12.9618L20.6148 2.96181L15.2379 -2.96181ZM17.9263 -4H17.9263V4H17.9263V-4ZM180.175 -4H17.9263V4H180.175V-4ZM193.88 7.03818L182.863 -2.96182L177.486 2.96182L188.503 12.9618L193.88 7.03818ZM195.192 10.0101V10H187.192V10.0101H195.192ZM182.172 25C182.172 18.6794 186.613 14.1983 191.353 14.0068L191.03 6.01336C181.3 6.40639 174.172 15.1241 174.172 25H182.172ZM191.353 35.9932C186.613 35.8017 182.172 31.3206 182.172 25H174.172C174.172 34.8759 181.3 43.5936 191.03 43.9866L191.353 35.9932ZM195.192 40V39.9899H187.192V40H195.192ZM182.863 52.9618L193.88 42.9618L188.503 37.0382L177.486 47.0382L182.863 52.9618ZM17.9263 54H180.175V46H17.9263V54ZM4.22105 42.9618L15.2379 52.9618L20.6148 47.0382L9.59792 37.0382L4.22105 42.9618ZM2.90948 39.9899L2.90948 40L10.9095 40L10.9095 39.9899L2.90948 39.9899ZM15.9294 25C15.9294 31.3206 11.4886 35.8017 6.74805 35.9932L7.07092 43.9866C16.801 43.5936 23.9294 34.8759 23.9294 25H15.9294ZM6.74807 14.0068C11.4886 14.1983 15.9294 18.6794 15.9294 25H23.9294C23.9294 15.1241 16.801 6.40639 7.07095 6.01336L6.74807 14.0068ZM2.90951 10L2.90951 10.0101L10.9095 10.0101L10.9095 10L2.90951 10Z" fill="#17181C" mask="url(#path-1-inside-1_706_13522)"/>
<path fill-rule="evenodd" clip-rule="evenodd" d="M5.90797 36C11.4393 36 15.9233 31.0751 15.9233 25C15.9233 18.9249 11.4393 14 5.90797 14C3.69854 14 1.65621 14.7858 0 16.1168C4.54783 17.1271 7.91106 20.7212 7.91106 25C7.91106 29.2788 4.54783 32.8729 2.78405e-06 33.8832C1.65621 35.2142 3.69854 36 5.90797 36Z" fill="#17181C"/>
<path fill-rule="evenodd" clip-rule="evenodd" d="M192.193 36C186.662 36 182.178 31.0751 182.178 25C182.178 18.9249 186.662 14 192.193 14C194.403 14 196.445 14.7858 198.101 16.1168C193.553 17.1271 190.19 20.7212 190.19 25C190.19 29.2788 193.553 32.8729 198.101 33.8832C196.445 35.2142 194.403 36 192.193 36Z" fill="#17181C"/>
<path d="M48.3977 20.36L51.1177 27.592H51.1497L53.8857 20.36H57.0537V21.656L56.5257 21.704C56.2057 21.736 56.051 21.9227 56.0617 22.264L56.4617 29.592L57.4537 29.64V31H53.5977V29.704L54.1737 29.656C54.4617 29.6347 54.6004 29.496 54.5897 29.24L54.2857 23.592H54.2537L51.7897 29.976H50.2697L47.8377 23.656H47.8057L47.4857 29.592L48.5257 29.64V31H44.7497V29.704L45.3257 29.656C45.571 29.6347 45.7044 29.4907 45.7257 29.224L46.1577 21.784L45.1817 21.72V20.36H48.3977ZM62.3174 22.712C63.1174 22.712 63.7521 22.9093 64.2214 23.304C64.6908 23.688 64.9254 24.232 64.9254 24.936C64.9254 25.4053 64.8241 25.8213 64.6214 26.184C64.4188 26.536 64.1681 26.8133 63.8694 27.016C63.5708 27.2187 63.2081 27.384 62.7814 27.512C62.0668 27.7253 61.2614 27.832 60.3654 27.832C60.3974 28.3973 60.5734 28.856 60.8934 29.208C61.2134 29.5493 61.7041 29.72 62.3654 29.72C63.0268 29.72 63.6881 29.4853 64.3494 29.016L64.9574 30.312C64.7441 30.504 64.3814 30.7013 63.8694 30.904C63.3681 31.1067 62.7921 31.208 62.1414 31.208C60.8401 31.208 59.8854 30.8507 59.2774 30.136C58.6694 29.4107 58.3654 28.4187 58.3654 27.16C58.3654 25.9013 58.7121 24.8453 59.4054 23.992C60.0988 23.1387 61.0694 22.712 62.3174 22.712ZM61.5814 26.376C61.9761 26.3013 62.3388 26.1467 62.6694 25.912C63.0001 25.6667 63.1654 25.3787 63.1654 25.048C63.1654 24.3973 62.8454 24.072 62.2054 24.072C61.6081 24.072 61.1494 24.312 60.8294 24.792C60.5094 25.2613 60.3334 25.8267 60.3014 26.488C60.7708 26.4773 61.1974 26.44 61.5814 26.376ZM65.9554 24.232V22.952H68.6594V23.992C68.9368 23.5973 69.3048 23.288 69.7634 23.064C70.2221 22.8293 70.7181 22.712 71.2514 22.712C72.0621 22.712 72.6861 22.9467 73.1234 23.416C73.5714 23.8747 73.7954 24.568 73.7954 25.496V29.672L74.7074 29.72V31H70.8994V29.784L71.4274 29.736C71.5874 29.7147 71.7048 29.672 71.7794 29.608C71.8541 29.5333 71.8914 29.4 71.8914 29.208V25.912C71.8914 25.3253 71.8008 24.8933 71.6194 24.616C71.4381 24.328 71.0914 24.184 70.5794 24.184C70.0781 24.184 69.6781 24.344 69.3794 24.664C69.0808 24.984 68.9314 25.3627 68.9314 25.8V29.672L69.8434 29.72V31H66.0354V29.784L66.5634 29.736C66.7234 29.7147 66.8408 29.672 66.9154 29.608C66.9901 29.5333 67.0274 29.4 67.0274 29.208V24.776C67.0274 24.456 66.8941 24.2907 66.6274 24.28L65.9554 24.232ZM83.5627 29.736V31H80.9707V29.96C80.384 30.792 79.52 31.208 78.3787 31.208C76.7254 31.208 75.8987 30.2853 75.8987 28.44V24.744C75.8987 24.456 75.7654 24.3067 75.4987 24.296L74.9867 24.264V22.952H77.8027V28.024C77.8027 28.5893 77.8827 29.016 78.0427 29.304C78.2027 29.592 78.5334 29.736 79.0347 29.736C79.536 29.736 79.936 29.5813 80.2347 29.272C80.544 28.9627 80.6987 28.5893 80.6987 28.152V24.776C80.6987 24.6053 80.6667 24.488 80.6027 24.424C80.5494 24.3493 80.448 24.3067 80.2987 24.296L79.7867 24.264V22.952H82.6027V29.224C82.6027 29.3947 82.6294 29.512 82.6827 29.576C82.736 29.6293 82.8427 29.6667 83.0027 29.688L83.5627 29.736ZM87.7229 31V29.704L88.2509 29.656C88.5603 29.624 88.7149 29.4747 88.7149 29.208V21.768L87.8029 21.72V20.36H92.3789C93.5736 20.36 94.5016 20.6427 95.1629 21.208C95.8349 21.7627 96.1709 22.6 96.1709 23.72C96.1709 24.84 95.7923 25.7147 95.0349 26.344C94.2776 26.9627 93.2749 27.272 92.0269 27.272H90.6669V29.592L92.2029 29.64V31H87.7229ZM90.6669 25.72H91.8189C93.3763 25.72 94.1549 25.0853 94.1549 23.816C94.1549 23.048 93.9523 22.5413 93.5469 22.296C93.1523 22.04 92.5176 21.912 91.6429 21.912H90.6669V25.72ZM98.1684 29.208V24.776C98.1684 24.6053 98.1364 24.488 98.0724 24.424C98.0191 24.3493 97.9178 24.3067 97.7684 24.296L97.0964 24.248V22.952H99.8004V24.152C99.9924 23.736 100.291 23.3947 100.696 23.128C101.102 22.8507 101.566 22.712 102.088 22.712C102.622 22.712 103.128 22.8293 103.608 23.064V25.448L102.12 25.56V24.824C102.12 24.6107 102.067 24.4773 101.96 24.424C101.843 24.3707 101.699 24.344 101.528 24.344C101.102 24.344 100.75 24.4987 100.472 24.808C100.206 25.1067 100.072 25.4907 100.072 25.96V29.672L101.464 29.736V31H97.1764V29.784L97.7044 29.736C97.8644 29.7147 97.9818 29.672 98.0564 29.608C98.1311 29.5333 98.1684 29.4 98.1684 29.208ZM107.463 22.952V29.672L108.375 29.72V31H104.567V29.784L105.095 29.736C105.404 29.704 105.559 29.5333 105.559 29.224V24.776C105.559 24.5947 105.527 24.472 105.463 24.408C105.41 24.344 105.308 24.312 105.159 24.312L104.599 24.28V22.952H107.463ZM105.447 21.576C105.223 21.352 105.111 21.0693 105.111 20.728C105.111 20.3867 105.223 20.104 105.447 19.88C105.671 19.6453 105.964 19.528 106.327 19.528C106.69 19.528 106.983 19.6453 107.207 19.88C107.442 20.104 107.559 20.3867 107.559 20.728C107.559 21.0693 107.442 21.352 107.207 21.576C106.983 21.7893 106.69 21.896 106.327 21.896C105.964 21.896 105.671 21.7893 105.447 21.576ZM109.205 24.232V22.952H111.909V23.992C112.187 23.5973 112.555 23.288 113.013 23.064C113.472 22.8293 113.968 22.712 114.501 22.712C115.312 22.712 115.936 22.9467 116.373 23.416C116.821 23.8747 117.045 24.568 117.045 25.496V29.672L117.957 29.72V31H114.149V29.784L114.677 29.736C114.837 29.7147 114.955 29.672 115.029 29.608C115.104 29.5333 115.141 29.4 115.141 29.208V25.912C115.141 25.3253 115.051 24.8933 114.869 24.616C114.688 24.328 114.341 24.184 113.829 24.184C113.328 24.184 112.928 24.344 112.629 24.664C112.331 24.984 112.181 25.3627 112.181 25.8V29.672L113.093 29.72V31H109.285V29.784L109.813 29.736C109.973 29.7147 110.091 29.672 110.165 29.608C110.24 29.5333 110.277 29.4 110.277 29.208V24.776C110.277 24.456 110.144 24.2907 109.877 24.28L109.205 24.232ZM120.831 26.888C120.831 27.7947 121.002 28.4987 121.343 29C121.685 29.5013 122.175 29.752 122.815 29.752C123.466 29.752 124.106 29.5227 124.735 29.064L125.423 30.296C124.666 30.9147 123.717 31.224 122.575 31.224C121.434 31.224 120.533 30.8667 119.871 30.152C119.221 29.4267 118.895 28.36 118.895 26.952C118.895 25.544 119.269 24.488 120.015 23.784C120.773 23.0693 121.621 22.712 122.559 22.712C123.509 22.712 124.389 22.9307 125.199 23.368V25.448L123.727 25.56V24.792C123.727 24.504 123.621 24.328 123.407 24.264C123.205 24.1893 122.991 24.152 122.767 24.152C121.477 24.152 120.831 25.064 120.831 26.888ZM129.322 22.952V29.672L130.234 29.72V31H126.426V29.784L126.954 29.736C127.264 29.704 127.418 29.5333 127.418 29.224V24.776C127.418 24.5947 127.386 24.472 127.322 24.408C127.269 24.344 127.168 24.312 127.018 24.312L126.458 24.28V22.952H129.322ZM127.306 21.576C127.082 21.352 126.97 21.0693 126.97 20.728C126.97 20.3867 127.082 20.104 127.306 19.88C127.53 19.6453 127.824 19.528 128.186 19.528C128.549 19.528 128.842 19.6453 129.066 19.88C129.301 20.104 129.418 20.3867 129.418 20.728C129.418 21.0693 129.301 21.352 129.066 21.576C128.842 21.7893 128.549 21.896 128.186 21.896C127.824 21.896 127.53 21.7893 127.306 21.576ZM132.057 32.52V24.776C132.057 24.5947 132.025 24.472 131.961 24.408C131.907 24.3333 131.806 24.296 131.657 24.296L130.985 24.248V22.952H133.689V23.992C133.859 23.672 134.169 23.3787 134.617 23.112C135.065 22.8453 135.598 22.712 136.217 22.712C138.147 22.712 139.113 24.0667 139.113 26.776C139.113 28.216 138.798 29.32 138.169 30.088C137.539 30.856 136.686 31.24 135.609 31.24C134.969 31.24 134.398 31.0853 133.897 30.776V32.984L135.193 33.048V34.312H131.065V33.096L131.593 33.048C131.753 33.0267 131.87 32.9787 131.945 32.904C132.019 32.84 132.057 32.712 132.057 32.52ZM137.129 26.936C137.129 25.1547 136.59 24.264 135.513 24.264C135.065 24.264 134.681 24.4027 134.361 24.68C134.051 24.9467 133.897 25.2667 133.897 25.64V29.32C134.302 29.5867 134.793 29.72 135.369 29.72C135.955 29.72 136.393 29.4533 136.681 28.92C136.979 28.3867 137.129 27.7253 137.129 26.936ZM147.439 23.272V29.224C147.439 29.3947 147.465 29.512 147.519 29.576C147.583 29.64 147.689 29.6773 147.839 29.688L148.351 29.72V31H145.807V30.072L145.759 30.056C145.225 30.824 144.495 31.208 143.567 31.208C142.479 31.208 141.673 30.8613 141.151 30.168C140.628 29.4747 140.367 28.5253 140.367 27.32C140.367 25.8693 140.719 24.7387 141.423 23.928C142.127 23.1173 143.183 22.712 144.591 22.712C145.497 22.712 146.447 22.8987 147.439 23.272ZM145.583 28.456V24.312C145.284 24.1733 144.873 24.104 144.351 24.104C143.636 24.104 143.119 24.392 142.799 24.968C142.479 25.544 142.319 26.3067 142.319 27.256C142.319 28.984 142.873 29.848 143.983 29.848C144.452 29.848 144.836 29.7093 145.135 29.432C145.433 29.144 145.583 28.8187 145.583 28.456ZM152.197 19.592V29.672L153.109 29.72V31H149.301V29.784L149.829 29.736C150.138 29.704 150.293 29.5333 150.293 29.224V21.336C150.293 21.1013 150.159 20.9733 149.893 20.952L149.333 20.92V19.592H152.197Z" fill="#17181C"/>
</svg>
