<svg width="844" height="390" viewBox="0 0 844 390" fill="none" xmlns="http://www.w3.org/2000/svg">
<g clip-path="url(#clip0_1753_17941)">
<rect width="844" height="390" fill="white"/>
<rect width="844" height="390" fill="black"/>
<path d="M263.51 133.68L271.03 112.08L276.15 111.16L285.15 135.16V136H277.87L275.03 128.12H267.91L265.99 133.68H270.31V136H260.83V133.68H263.51ZM268.71 125.8H274.19L271.43 118.08L268.71 125.8ZM284.947 118.04H293.307L298.467 128.32L302.067 120.08H298.867V118.04H307.187V120.08H304.387L297.027 137.2H296.187L287.107 120.08H284.947V118.04ZM307.997 118.36H310.357L316.677 117.4V133.96H319.037V136H307.997V133.96H310.357V120.36H307.997V118.36ZM310.357 112.12C310.357 111 310.597 110.173 311.077 109.64C311.557 109.08 312.37 108.8 313.517 108.8C314.717 108.8 315.544 109.08 315.997 109.64C316.45 110.173 316.677 111 316.677 112.12C316.677 113.267 316.424 114.107 315.917 114.64C315.437 115.147 314.637 115.4 313.517 115.4C312.37 115.4 311.557 115.147 311.077 114.64C310.597 114.107 310.357 113.267 310.357 112.12ZM329.764 117.84C330.377 117.84 330.937 117.893 331.444 118C331.95 118.08 332.404 118.187 332.804 118.32L335.484 117.72V123.88C334.47 123.88 333.63 123.733 332.964 123.44C332.324 123.12 331.804 122.747 331.404 122.32C331.004 121.867 330.697 121.4 330.484 120.92C330.297 120.413 330.164 119.987 330.084 119.64H329.764C329.524 119.64 329.31 119.653 329.124 119.68C328.964 119.68 328.817 119.693 328.684 119.72C328.55 119.747 328.444 119.773 328.364 119.8C328.284 119.907 328.217 120.04 328.164 120.2C328.11 120.333 328.07 120.52 328.044 120.76C328.017 121 328.004 121.28 328.004 121.6C328.004 122.107 328.057 122.52 328.164 122.84C328.27 123.16 328.43 123.427 328.644 123.64C328.884 123.853 329.19 124.027 329.564 124.16C329.937 124.293 330.404 124.44 330.964 124.6C331.684 124.787 332.39 125.027 333.084 125.32C333.804 125.587 334.444 125.947 335.004 126.4C335.564 126.853 336.017 127.427 336.364 128.12C336.737 128.787 336.924 129.6 336.924 130.56C336.924 131.627 336.737 132.533 336.364 133.28C335.99 134 335.457 134.587 334.764 135.04C334.097 135.493 333.257 135.813 332.244 136C331.257 136.213 330.15 136.32 328.924 136.32C327.91 136.32 327.057 136.267 326.364 136.16C325.697 136.08 325.164 135.973 324.764 135.84L322.004 136.44V129.88C322.99 129.88 323.817 130.053 324.484 130.4C325.15 130.747 325.684 131.16 326.084 131.64C326.484 132.12 326.777 132.627 326.964 133.16C327.15 133.667 327.284 134.107 327.364 134.48C327.524 134.507 327.67 134.52 327.804 134.52H328.964C329.204 134.52 329.417 134.507 329.604 134.48C329.817 134.453 330.017 134.427 330.204 134.4C330.257 134.293 330.31 134.147 330.364 133.96C330.417 133.8 330.457 133.587 330.484 133.32C330.537 133.053 330.564 132.733 330.564 132.36C330.564 131.587 330.337 130.973 329.884 130.52C329.457 130.067 328.91 129.693 328.244 129.4C327.577 129.08 326.857 128.787 326.084 128.52C325.337 128.227 324.63 127.88 323.964 127.48C323.297 127.053 322.737 126.507 322.284 125.84C321.857 125.147 321.644 124.227 321.644 123.08C321.644 122.28 321.777 121.56 322.044 120.92C322.337 120.253 322.79 119.693 323.404 119.24C324.044 118.787 324.884 118.44 325.924 118.2C326.964 117.96 328.244 117.84 329.764 117.84ZM346.085 127.08C346.085 128.12 346.112 129.093 346.165 130C346.245 130.88 346.338 131.64 346.445 132.28C346.552 133.053 346.672 133.747 346.805 134.36C346.938 134.413 347.112 134.453 347.325 134.48C347.672 134.56 348.178 134.6 348.845 134.6C349.485 134.6 349.992 134.56 350.365 134.48C350.578 134.453 350.752 134.413 350.885 134.36C351.018 133.747 351.138 133.053 351.245 132.28C351.325 131.64 351.405 130.88 351.485 130C351.565 129.093 351.605 128.12 351.605 127.08C351.605 126.04 351.565 125.08 351.485 124.2C351.405 123.32 351.325 122.547 351.245 121.88C351.138 121.133 351.018 120.44 350.885 119.8C350.725 119.773 350.538 119.733 350.325 119.68C350.138 119.653 349.912 119.627 349.645 119.6C349.405 119.573 349.138 119.56 348.845 119.56C348.498 119.56 348.205 119.573 347.965 119.6C347.725 119.627 347.512 119.653 347.325 119.68C347.112 119.733 346.938 119.773 346.805 119.8C346.672 120.44 346.552 121.133 346.445 121.88C346.338 122.547 346.245 123.32 346.165 124.2C346.112 125.08 346.085 126.04 346.085 127.08ZM339.525 127.08C339.525 125.373 339.685 123.933 340.005 122.76C340.325 121.56 340.858 120.6 341.605 119.88C342.352 119.133 343.312 118.6 344.485 118.28C345.658 117.933 347.112 117.76 348.845 117.76C350.552 117.76 351.992 117.933 353.165 118.28C354.365 118.6 355.338 119.133 356.085 119.88C356.832 120.6 357.365 121.56 357.685 122.76C358.005 123.933 358.165 125.373 358.165 127.08C358.165 128.787 358.005 130.24 357.685 131.44C357.365 132.613 356.832 133.573 356.085 134.32C355.338 135.04 354.365 135.573 353.165 135.92C351.992 136.24 350.552 136.4 348.845 136.4C347.112 136.4 345.658 136.24 344.485 135.92C343.312 135.573 342.352 135.04 341.605 134.32C340.858 133.573 340.325 132.613 340.005 131.44C339.685 130.24 339.525 128.787 339.525 127.08ZM377.097 111.4H379.457L385.777 110.24V134H386.297C386.537 134 386.777 133.987 387.017 133.96L387.897 133.88V135.8C387.417 135.88 386.95 135.947 386.497 136C386.123 136.053 385.723 136.093 385.297 136.12C384.87 136.147 384.523 136.16 384.257 136.16C382.95 136.16 381.963 135.92 381.297 135.44C380.63 134.96 380.15 134.44 379.857 133.88C379.083 134.653 378.203 135.253 377.217 135.68C376.257 136.107 375.243 136.32 374.177 136.32C373.083 136.32 372.11 136.16 371.257 135.84C370.403 135.493 369.683 134.96 369.097 134.24C368.537 133.493 368.11 132.533 367.817 131.36C367.523 130.16 367.377 128.72 367.377 127.04C367.377 125.333 367.537 123.893 367.857 122.72C368.177 121.52 368.71 120.56 369.457 119.84C370.203 119.093 371.163 118.56 372.337 118.24C373.51 117.92 374.963 117.76 376.697 117.76C377.177 117.76 377.643 117.787 378.097 117.84L379.457 118V113.4H377.097V111.4ZM374.657 134.16C375.537 134.16 376.39 133.88 377.217 133.32C378.07 132.76 378.817 132.053 379.457 131.2V119.96C379.003 119.827 378.523 119.733 378.017 119.68C377.537 119.6 377.097 119.56 376.697 119.56C376.35 119.56 376.057 119.573 375.817 119.6C375.577 119.627 375.363 119.653 375.177 119.68C374.963 119.733 374.79 119.773 374.657 119.8C374.523 120.44 374.403 121.133 374.297 121.88C374.19 122.52 374.097 123.28 374.017 124.16C373.963 125.04 373.937 126 373.937 127.04C373.937 128.32 373.963 129.413 374.017 130.32C374.097 131.2 374.19 131.933 374.297 132.52C374.403 133.213 374.523 133.76 374.657 134.16ZM399.191 117.76C400.658 117.76 401.871 117.907 402.831 118.2C403.791 118.467 404.564 118.907 405.151 119.52C405.738 120.133 406.151 120.947 406.391 121.96C406.631 122.947 406.751 124.173 406.751 125.64C406.751 126.093 406.738 126.493 406.711 126.84C406.684 127.16 406.658 127.427 406.631 127.64C406.604 127.907 406.578 128.107 406.551 128.24H396.671C396.698 129.147 396.751 129.973 396.831 130.72C396.911 131.44 396.991 132.067 397.071 132.6C397.178 133.24 397.284 133.8 397.391 134.28C397.471 134.333 397.591 134.373 397.751 134.4C397.884 134.427 398.071 134.453 398.311 134.48C398.578 134.48 398.911 134.48 399.311 134.48C399.978 134.48 400.604 134.44 401.191 134.36C401.804 134.253 402.338 134.093 402.791 133.88C403.244 133.667 403.591 133.373 403.831 133C404.098 132.6 404.231 132.12 404.231 131.56H406.391C406.391 132.68 406.138 133.56 405.631 134.2C405.151 134.84 404.538 135.333 403.791 135.68C403.071 136 402.284 136.2 401.431 136.28C400.578 136.36 399.778 136.4 399.031 136.4C397.404 136.4 396.018 136.24 394.871 135.92C393.751 135.573 392.831 135.04 392.111 134.32C391.418 133.573 390.911 132.613 390.591 131.44C390.271 130.24 390.111 128.787 390.111 127.08C390.111 125.373 390.244 123.933 390.511 122.76C390.804 121.56 391.298 120.6 391.991 119.88C392.684 119.133 393.604 118.6 394.751 118.28C395.924 117.933 397.404 117.76 399.191 117.76ZM397.391 119.8C397.258 120.387 397.138 121.027 397.031 121.72C396.951 122.333 396.871 123.053 396.791 123.88C396.711 124.68 396.671 125.56 396.671 126.52H400.551C400.498 125.4 400.431 124.427 400.351 123.6C400.271 122.747 400.178 122.04 400.071 121.48C399.964 120.813 399.844 120.253 399.711 119.8C399.631 119.773 399.538 119.733 399.431 119.68C399.324 119.653 399.191 119.627 399.031 119.6C398.898 119.573 398.738 119.56 398.551 119.56C398.364 119.56 398.204 119.573 398.071 119.6C397.938 119.627 397.818 119.653 397.711 119.68C397.604 119.733 397.498 119.773 397.391 119.8ZM435.21 119.56C433.557 119.56 432.25 119.24 431.29 118.6C430.33 117.96 429.597 117.24 429.09 116.44C428.61 115.64 428.29 114.88 428.13 114.16C427.97 113.44 427.89 112.987 427.89 112.8C427.437 112.827 427.024 112.853 426.65 112.88C426.304 112.907 426.01 112.947 425.77 113C425.477 113.053 425.224 113.107 425.01 113.16C424.77 114.093 424.57 115.12 424.41 116.24C424.277 117.2 424.144 118.32 424.01 119.6C423.904 120.88 423.85 122.24 423.85 123.68C423.85 125.147 423.904 126.52 424.01 127.8C424.144 129.053 424.277 130.16 424.41 131.12C424.57 132.24 424.77 133.28 425.01 134.24C425.17 134.293 425.384 134.347 425.65 134.4C426.077 134.48 426.757 134.52 427.69 134.52C428.57 134.52 429.37 134.427 430.09 134.24C430.837 134.027 431.477 133.707 432.01 133.28C432.544 132.827 432.957 132.253 433.25 131.56C433.57 130.84 433.73 129.987 433.73 129V127.76H436.05V128.88C436.05 130.24 435.824 131.413 435.37 132.4C434.917 133.36 434.304 134.16 433.53 134.8C432.757 135.413 431.864 135.867 430.85 136.16C429.864 136.453 428.81 136.6 427.69 136.6C425.77 136.6 424.104 136.373 422.69 135.92C421.277 135.44 420.09 134.68 419.13 133.64C418.197 132.6 417.504 131.267 417.05 129.64C416.597 127.987 416.37 126 416.37 123.68C416.37 121.36 416.597 119.387 417.05 117.76C417.53 116.133 418.25 114.8 419.21 113.76C420.197 112.72 421.437 111.973 422.93 111.52C424.45 111.04 426.25 110.8 428.33 110.8C429.237 110.8 430.104 110.84 430.93 110.92C431.757 110.973 432.49 111.04 433.13 111.12C433.877 111.227 434.57 111.32 435.21 111.4V119.56ZM445.421 127.08C445.421 128.12 445.448 129.093 445.501 130C445.581 130.88 445.674 131.64 445.781 132.28C445.888 133.053 446.008 133.747 446.141 134.36C446.274 134.413 446.448 134.453 446.661 134.48C447.008 134.56 447.514 134.6 448.181 134.6C448.821 134.6 449.328 134.56 449.701 134.48C449.914 134.453 450.088 134.413 450.221 134.36C450.354 133.747 450.474 133.053 450.581 132.28C450.661 131.64 450.741 130.88 450.821 130C450.901 129.093 450.941 128.12 450.941 127.08C450.941 126.04 450.901 125.08 450.821 124.2C450.741 123.32 450.661 122.547 450.581 121.88C450.474 121.133 450.354 120.44 450.221 119.8C450.061 119.773 449.874 119.733 449.661 119.68C449.474 119.653 449.248 119.627 448.981 119.6C448.741 119.573 448.474 119.56 448.181 119.56C447.834 119.56 447.541 119.573 447.301 119.6C447.061 119.627 446.848 119.653 446.661 119.68C446.448 119.733 446.274 119.773 446.141 119.8C446.008 120.44 445.888 121.133 445.781 121.88C445.674 122.547 445.581 123.32 445.501 124.2C445.448 125.08 445.421 126.04 445.421 127.08ZM438.861 127.08C438.861 125.373 439.021 123.933 439.341 122.76C439.661 121.56 440.194 120.6 440.941 119.88C441.688 119.133 442.648 118.6 443.821 118.28C444.994 117.933 446.448 117.76 448.181 117.76C449.888 117.76 451.328 117.933 452.501 118.28C453.701 118.6 454.674 119.133 455.421 119.88C456.168 120.6 456.701 121.56 457.021 122.76C457.341 123.933 457.501 125.373 457.501 127.08C457.501 128.787 457.341 130.24 457.021 131.44C456.701 132.613 456.168 133.573 455.421 134.32C454.674 135.04 453.701 135.573 452.501 135.92C451.328 136.24 449.888 136.4 448.181 136.4C446.448 136.4 444.994 136.24 443.821 135.92C442.648 135.573 441.688 135.04 440.941 134.32C440.194 133.573 439.661 132.613 439.341 131.44C439.021 130.24 438.861 128.787 438.861 127.08ZM460.106 118.76H462.466L468.506 117.6V120.4C468.56 120.32 468.706 120.133 468.946 119.84C469.186 119.547 469.546 119.253 470.026 118.96C470.506 118.64 471.133 118.36 471.906 118.12C472.68 117.88 473.626 117.76 474.746 117.76C475.36 117.76 475.973 117.813 476.586 117.92C477.226 118.027 477.8 118.227 478.306 118.52C478.84 118.787 479.266 119.16 479.586 119.64C479.906 120.12 480.066 120.747 480.066 121.52V133.96H482.426V136H473.746V120.24C473.693 120.24 473.613 120.227 473.506 120.2C473.293 120.147 473 120.12 472.626 120.12C472.066 120.12 471.56 120.24 471.106 120.48C470.68 120.693 470.306 120.947 469.986 121.24C469.666 121.533 469.4 121.84 469.186 122.16C469 122.453 468.866 122.68 468.786 122.84V133.96H471.146V136H460.106V133.96H462.466V120.76H460.106V118.76ZM485.608 116.2L491.928 114.48V118.04H496.728V120.04H491.928V134H492.768C494.314 134 495.088 132.827 495.088 130.48H497.128C497.128 131.333 497.074 132.107 496.968 132.8C496.888 133.493 496.634 134.093 496.208 134.6C495.808 135.107 495.194 135.493 494.368 135.76C493.568 136.027 492.448 136.16 491.008 136.16C490.021 136.16 489.181 136.053 488.488 135.84C487.794 135.6 487.234 135.293 486.808 134.92C486.381 134.547 486.074 134.133 485.888 133.68C485.701 133.227 485.608 132.76 485.608 132.28V116.2ZM508.214 117.76C509.681 117.76 510.894 117.907 511.854 118.2C512.814 118.467 513.588 118.907 514.174 119.52C514.761 120.133 515.174 120.947 515.414 121.96C515.654 122.947 515.774 124.173 515.774 125.64C515.774 126.093 515.761 126.493 515.734 126.84C515.708 127.16 515.681 127.427 515.654 127.64C515.628 127.907 515.601 128.107 515.574 128.24H505.694C505.721 129.147 505.774 129.973 505.854 130.72C505.934 131.44 506.014 132.067 506.094 132.6C506.201 133.24 506.308 133.8 506.414 134.28C506.494 134.333 506.614 134.373 506.774 134.4C506.908 134.427 507.094 134.453 507.334 134.48C507.601 134.48 507.934 134.48 508.334 134.48C509.001 134.48 509.628 134.44 510.214 134.36C510.828 134.253 511.361 134.093 511.814 133.88C512.268 133.667 512.614 133.373 512.854 133C513.121 132.6 513.254 132.12 513.254 131.56H515.414C515.414 132.68 515.161 133.56 514.654 134.2C514.174 134.84 513.561 135.333 512.814 135.68C512.094 136 511.308 136.2 510.454 136.28C509.601 136.36 508.801 136.4 508.054 136.4C506.428 136.4 505.041 136.24 503.894 135.92C502.774 135.573 501.854 135.04 501.134 134.32C500.441 133.573 499.934 132.613 499.614 131.44C499.294 130.24 499.134 128.787 499.134 127.08C499.134 125.373 499.268 123.933 499.534 122.76C499.828 121.56 500.321 120.6 501.014 119.88C501.708 119.133 502.628 118.6 503.774 118.28C504.948 117.933 506.428 117.76 508.214 117.76ZM506.414 119.8C506.281 120.387 506.161 121.027 506.054 121.72C505.974 122.333 505.894 123.053 505.814 123.88C505.734 124.68 505.694 125.56 505.694 126.52H509.574C509.521 125.4 509.454 124.427 509.374 123.6C509.294 122.747 509.201 122.04 509.094 121.48C508.988 120.813 508.868 120.253 508.734 119.8C508.654 119.773 508.561 119.733 508.454 119.68C508.348 119.653 508.214 119.627 508.054 119.6C507.921 119.573 507.761 119.56 507.574 119.56C507.388 119.56 507.228 119.573 507.094 119.6C506.961 119.627 506.841 119.653 506.734 119.68C506.628 119.733 506.521 119.773 506.414 119.8ZM517.788 118.76H520.148L526.188 117.6V133.8C526.241 133.827 526.321 133.853 526.428 133.88C526.534 133.907 526.828 133.92 527.308 133.92C527.868 133.92 528.361 133.813 528.788 133.6C529.214 133.36 529.588 133.093 529.908 132.8C530.228 132.507 530.494 132.213 530.708 131.92C530.921 131.627 531.068 131.4 531.148 131.24V118.04H537.468V134H537.988C538.228 134 538.468 133.987 538.708 133.96L539.588 133.88V135.8C539.108 135.88 538.641 135.947 538.188 136C537.814 136.053 537.414 136.093 536.988 136.12C536.561 136.147 536.214 136.16 535.948 136.16C535.254 136.16 534.654 136.093 534.148 135.96C533.641 135.8 533.201 135.6 532.828 135.36C532.481 135.12 532.188 134.853 531.948 134.56C531.708 134.24 531.534 133.933 531.428 133.64C531.374 133.72 531.228 133.907 530.988 134.2C530.748 134.493 530.374 134.8 529.868 135.12C529.388 135.413 528.761 135.68 527.988 135.92C527.241 136.16 526.308 136.28 525.188 136.28C524.574 136.28 523.948 136.227 523.308 136.12C522.694 136.013 522.121 135.827 521.588 135.56C521.081 135.267 520.668 134.88 520.348 134.4C520.028 133.92 519.868 133.293 519.868 132.52V120.76H517.788V118.76ZM533.548 108.44C534.001 108.067 534.494 107.88 535.028 107.88C535.321 107.88 535.614 107.96 535.908 108.12C536.201 108.253 536.454 108.453 536.668 108.72C536.908 108.96 537.094 109.24 537.228 109.56C537.388 109.853 537.468 110.16 537.468 110.48C537.468 111.147 537.188 111.72 536.628 112.2L528.748 116.56L527.747 115.44L533.548 108.44ZM551.511 111.4H553.871L560.191 110.24V134H560.711C560.951 134 561.191 133.987 561.431 133.96L562.311 133.88V135.8C561.831 135.88 561.364 135.947 560.911 136C560.537 136.053 560.137 136.093 559.711 136.12C559.284 136.147 558.937 136.16 558.671 136.16C557.364 136.16 556.377 135.92 555.711 135.44C555.044 134.96 554.564 134.44 554.271 133.88C553.497 134.653 552.617 135.253 551.631 135.68C550.671 136.107 549.657 136.32 548.591 136.32C547.497 136.32 546.524 136.16 545.671 135.84C544.817 135.493 544.097 134.96 543.511 134.24C542.951 133.493 542.524 132.533 542.231 131.36C541.937 130.16 541.791 128.72 541.791 127.04C541.791 125.333 541.951 123.893 542.271 122.72C542.591 121.52 543.124 120.56 543.871 119.84C544.617 119.093 545.577 118.56 546.751 118.24C547.924 117.92 549.377 117.76 551.111 117.76C551.591 117.76 552.057 117.787 552.511 117.84L553.871 118V113.4H551.511V111.4ZM549.071 134.16C549.951 134.16 550.804 133.88 551.631 133.32C552.484 132.76 553.231 132.053 553.871 131.2V119.96C553.417 119.827 552.937 119.733 552.431 119.68C551.951 119.6 551.511 119.56 551.111 119.56C550.764 119.56 550.471 119.573 550.231 119.6C549.991 119.627 549.777 119.653 549.591 119.68C549.377 119.733 549.204 119.773 549.071 119.8C548.937 120.44 548.817 121.133 548.711 121.88C548.604 122.52 548.511 123.28 548.431 124.16C548.377 125.04 548.351 126 548.351 127.04C548.351 128.32 548.377 129.413 548.431 130.32C548.511 131.2 548.604 131.933 548.711 132.52C548.817 133.213 548.937 133.76 549.071 134.16ZM571.085 127.08C571.085 128.12 571.112 129.093 571.165 130C571.245 130.88 571.338 131.64 571.445 132.28C571.552 133.053 571.672 133.747 571.805 134.36C571.938 134.413 572.112 134.453 572.325 134.48C572.672 134.56 573.178 134.6 573.845 134.6C574.485 134.6 574.992 134.56 575.365 134.48C575.578 134.453 575.752 134.413 575.885 134.36C576.018 133.747 576.138 133.053 576.245 132.28C576.325 131.64 576.405 130.88 576.485 130C576.565 129.093 576.605 128.12 576.605 127.08C576.605 126.04 576.565 125.08 576.485 124.2C576.405 123.32 576.325 122.547 576.245 121.88C576.138 121.133 576.018 120.44 575.885 119.8C575.725 119.773 575.538 119.733 575.325 119.68C575.138 119.653 574.912 119.627 574.645 119.6C574.405 119.573 574.138 119.56 573.845 119.56C573.498 119.56 573.205 119.573 572.965 119.6C572.725 119.627 572.512 119.653 572.325 119.68C572.112 119.733 571.938 119.773 571.805 119.8C571.672 120.44 571.552 121.133 571.445 121.88C571.338 122.547 571.245 123.32 571.165 124.2C571.112 125.08 571.085 126.04 571.085 127.08ZM564.525 127.08C564.525 125.373 564.685 123.933 565.005 122.76C565.325 121.56 565.858 120.6 566.605 119.88C567.352 119.133 568.312 118.6 569.485 118.28C570.658 117.933 572.112 117.76 573.845 117.76C575.552 117.76 576.992 117.933 578.165 118.28C579.365 118.6 580.338 119.133 581.085 119.88C581.832 120.6 582.365 121.56 582.685 122.76C583.005 123.933 583.165 125.373 583.165 127.08C583.165 128.787 583.005 130.24 582.685 131.44C582.365 132.613 581.832 133.573 581.085 134.32C580.338 135.04 579.365 135.573 578.165 135.92C576.992 136.24 575.552 136.4 573.845 136.4C572.112 136.4 570.658 136.24 569.485 135.92C568.312 135.573 567.352 135.04 566.605 134.32C565.858 133.573 565.325 132.613 565.005 131.44C564.685 130.24 564.525 128.787 564.525 127.08Z" fill="#921F20"/>
<path d="M111.683 217.69C114.063 217.69 116.053 218.53 117.653 220.21C119.253 221.89 120.053 224.46 120.053 227.92C120.053 231.36 119.253 233.97 117.653 235.75C116.073 237.51 113.923 238.39 111.203 238.39C108.503 238.39 106.383 237.51 104.843 235.75C103.303 233.99 102.533 231.43 102.533 228.07C102.533 226.23 102.803 224.62 103.343 223.24C103.883 221.84 104.593 220.76 105.473 220C107.253 218.46 109.323 217.69 111.683 217.69ZM106.283 227.92C106.283 232.88 108.003 235.36 111.443 235.36C113.283 235.36 114.573 234.6 115.313 233.08C115.993 231.74 116.333 230.1 116.333 228.16C116.333 226.42 116.033 224.82 115.433 223.36C115.093 222.56 114.573 221.93 113.873 221.47C113.193 221.01 112.303 220.78 111.203 220.78C110.103 220.78 109.153 221.14 108.353 221.86C107.573 222.58 107.033 223.45 106.733 224.47C106.433 225.49 106.283 226.64 106.283 227.92ZM133.501 222.91V238.72C133.501 240.32 133.241 241.62 132.721 242.62C132.061 243.82 130.721 244.42 128.701 244.42C127.261 244.42 125.981 244.07 124.861 243.37L125.941 240.88C126.721 241.3 127.431 241.51 128.071 241.51C128.731 241.51 129.201 241.31 129.481 240.91C129.781 240.51 129.931 239.83 129.931 238.87V226.33C129.931 226.01 129.871 225.79 129.751 225.67C129.651 225.55 129.461 225.48 129.181 225.46L128.131 225.4V222.91H133.501ZM129.721 220.33C129.301 219.91 129.091 219.38 129.091 218.74C129.091 218.1 129.301 217.57 129.721 217.15C130.141 216.71 130.691 216.49 131.371 216.49C132.051 216.49 132.601 216.71 133.021 217.15C133.461 217.57 133.681 218.1 133.681 218.74C133.681 219.38 133.461 219.91 133.021 220.33C132.601 220.73 132.051 220.93 131.371 220.93C130.691 220.93 130.141 220.73 129.721 220.33ZM143.207 235.81C145.387 235.81 146.477 234.05 146.477 230.53C146.477 228.75 146.227 227.4 145.727 226.48C145.247 225.56 144.427 225.1 143.267 225.1C142.127 225.1 141.287 225.54 140.747 226.42C140.207 227.3 139.937 228.5 139.937 230.02C139.937 232.84 140.457 234.61 141.497 235.33C141.957 235.65 142.527 235.81 143.207 235.81ZM136.307 230.44C136.307 228.96 136.527 227.68 136.967 226.6C137.407 225.5 137.997 224.66 138.737 224.08C140.157 223 141.727 222.46 143.447 222.46C144.647 222.46 145.657 222.66 146.477 223.06C147.317 223.44 147.967 223.89 148.427 224.41C148.907 224.91 149.307 225.65 149.627 226.63C149.967 227.59 150.137 228.73 150.137 230.05C150.137 232.81 149.467 234.9 148.127 236.32C146.787 237.74 145.067 238.45 142.967 238.45C140.887 238.45 139.257 237.78 138.077 236.44C136.897 235.08 136.307 233.08 136.307 230.44ZM165.507 237.97C165.327 240.19 164.687 241.82 163.587 242.86C162.487 243.9 160.767 244.42 158.427 244.42C156.087 244.42 154.257 244.09 152.937 243.43V239.26L155.787 239.02V240.46C155.787 241 156.037 241.36 156.537 241.54C157.037 241.74 157.727 241.84 158.607 241.84C159.887 241.84 160.787 241.45 161.307 240.67C161.827 239.91 162.087 238.83 162.087 237.43V235.78C161.127 236.9 159.797 237.46 158.097 237.46C157.057 237.46 156.137 237.26 155.337 236.86C154.557 236.46 153.947 235.92 153.507 235.24C152.647 233.88 152.217 232.28 152.217 230.44C152.217 227.82 152.927 225.84 154.347 224.5C155.767 223.14 157.657 222.46 160.017 222.46C161.977 222.46 163.827 222.83 165.567 223.57V234.7C165.567 236.4 165.547 237.49 165.507 237.97ZM162.087 231.88V225.43C161.387 225.19 160.587 225.07 159.687 225.07C158.467 225.07 157.527 225.52 156.867 226.42C156.227 227.32 155.907 228.54 155.907 230.08C155.907 233.24 156.947 234.82 159.027 234.82C159.887 234.82 160.607 234.56 161.187 234.04C161.787 233.5 162.087 232.78 162.087 231.88ZM175.082 235.81C177.262 235.81 178.352 234.05 178.352 230.53C178.352 228.75 178.102 227.4 177.602 226.48C177.122 225.56 176.302 225.1 175.142 225.1C174.002 225.1 173.162 225.54 172.622 226.42C172.082 227.3 171.812 228.5 171.812 230.02C171.812 232.84 172.332 234.61 173.372 235.33C173.832 235.65 174.402 235.81 175.082 235.81ZM168.182 230.44C168.182 228.96 168.402 227.68 168.842 226.6C169.282 225.5 169.872 224.66 170.612 224.08C172.032 223 173.602 222.46 175.322 222.46C176.522 222.46 177.532 222.66 178.352 223.06C179.192 223.44 179.842 223.89 180.302 224.41C180.782 224.91 181.182 225.65 181.502 226.63C181.842 227.59 182.012 228.73 182.012 230.05C182.012 232.81 181.342 234.9 180.002 236.32C178.662 237.74 176.942 238.45 174.842 238.45C172.762 238.45 171.132 237.78 169.952 236.44C168.772 235.08 168.182 233.08 168.182 230.44ZM203.508 223.51V234.67C203.508 234.99 203.558 235.21 203.658 235.33C203.778 235.45 203.978 235.52 204.258 235.54L205.218 235.6V238H200.448V236.26L200.358 236.23C199.358 237.67 197.988 238.39 196.248 238.39C194.208 238.39 192.698 237.74 191.718 236.44C190.738 235.14 190.248 233.36 190.248 231.1C190.248 228.38 190.908 226.26 192.228 224.74C193.548 223.22 195.528 222.46 198.168 222.46C199.868 222.46 201.648 222.81 203.508 223.51ZM200.028 233.23V225.46C199.468 225.2 198.698 225.07 197.718 225.07C196.378 225.07 195.408 225.61 194.808 226.69C194.208 227.77 193.908 229.2 193.908 230.98C193.908 234.22 194.948 235.84 197.028 235.84C197.908 235.84 198.628 235.58 199.188 235.06C199.748 234.52 200.028 233.91 200.028 233.23ZM220.925 225.19C220.445 225.01 219.865 224.92 219.185 224.92C218.505 224.92 217.955 225.08 217.535 225.4C217.135 225.7 216.935 226.08 216.935 226.54C216.935 226.98 217.005 227.33 217.145 227.59C217.305 227.83 217.545 228.04 217.865 228.22C218.365 228.48 218.965 228.71 219.665 228.91C220.365 229.09 220.885 229.24 221.225 229.36C221.565 229.46 221.985 229.64 222.485 229.9C223.005 230.16 223.395 230.44 223.655 230.74C224.355 231.48 224.705 232.43 224.705 233.59C224.705 235.09 224.155 236.27 223.055 237.13C221.975 237.97 220.595 238.39 218.915 238.39C216.475 238.39 214.635 238.08 213.395 237.46V233.29L216.095 233.08V234.52C216.095 235.4 216.935 235.84 218.615 235.84C220.295 235.84 221.135 235.23 221.135 234.01C221.135 233.57 220.985 233.21 220.685 232.93C220.405 232.65 220.125 232.46 219.845 232.36C219.565 232.26 219.225 232.16 218.825 232.06C218.445 231.96 218.065 231.86 217.685 231.76C217.325 231.66 216.925 231.53 216.485 231.37C216.065 231.19 215.595 230.94 215.075 230.62C214.055 229.96 213.545 228.86 213.545 227.32C213.545 225.76 214.095 224.56 215.195 223.72C216.295 222.88 217.675 222.46 219.335 222.46C221.015 222.46 222.675 222.86 224.315 223.66V227.26L221.615 227.47V226.21C221.615 225.71 221.385 225.37 220.925 225.19ZM234.13 222.46C235.63 222.46 236.82 222.83 237.7 223.57C238.58 224.29 239.02 225.31 239.02 226.63C239.02 227.51 238.83 228.29 238.45 228.97C238.07 229.63 237.6 230.15 237.04 230.53C236.48 230.91 235.8 231.22 235 231.46C233.66 231.86 232.15 232.06 230.47 232.06C230.53 233.12 230.86 233.98 231.46 234.64C232.06 235.28 232.98 235.6 234.22 235.6C235.46 235.6 236.7 235.16 237.94 234.28L239.08 236.71C238.68 237.07 238 237.44 237.04 237.82C236.1 238.2 235.02 238.39 233.8 238.39C231.36 238.39 229.57 237.72 228.43 236.38C227.29 235.02 226.72 233.16 226.72 230.8C226.72 228.44 227.37 226.46 228.67 224.86C229.97 223.26 231.79 222.46 234.13 222.46ZM232.75 229.33C233.49 229.19 234.17 228.9 234.79 228.46C235.41 228 235.72 227.46 235.72 226.84C235.72 225.62 235.12 225.01 233.92 225.01C232.8 225.01 231.94 225.46 231.34 226.36C230.74 227.24 230.41 228.3 230.35 229.54C231.23 229.52 232.03 229.45 232.75 229.33ZM254.482 237.97C254.302 240.19 253.662 241.82 252.562 242.86C251.462 243.9 249.742 244.42 247.402 244.42C245.062 244.42 243.232 244.09 241.912 243.43V239.26L244.762 239.02V240.46C244.762 241 245.012 241.36 245.512 241.54C246.012 241.74 246.702 241.84 247.582 241.84C248.862 241.84 249.762 241.45 250.282 240.67C250.802 239.91 251.062 238.83 251.062 237.43V235.78C250.102 236.9 248.772 237.46 247.072 237.46C246.032 237.46 245.112 237.26 244.312 236.86C243.532 236.46 242.922 235.92 242.482 235.24C241.622 233.88 241.192 232.28 241.192 230.44C241.192 227.82 241.902 225.84 243.322 224.5C244.742 223.14 246.632 222.46 248.992 222.46C250.952 222.46 252.802 222.83 254.542 223.57V234.7C254.542 236.4 254.522 237.49 254.482 237.97ZM251.062 231.88V225.43C250.362 225.19 249.562 225.07 248.662 225.07C247.442 225.07 246.502 225.52 245.842 226.42C245.202 227.32 244.882 228.54 244.882 230.08C244.882 233.24 245.922 234.82 248.002 234.82C248.862 234.82 249.582 234.56 250.162 234.04C250.762 233.5 251.062 232.78 251.062 231.88ZM272.764 235.63V238H267.904V236.05C266.804 237.61 265.184 238.39 263.044 238.39C259.944 238.39 258.394 236.66 258.394 233.2V226.27C258.394 225.73 258.144 225.45 257.644 225.43L256.684 225.37V222.91H261.964V232.42C261.964 233.48 262.114 234.28 262.414 234.82C262.714 235.36 263.334 235.63 264.274 235.63C265.214 235.63 265.964 235.34 266.524 234.76C267.104 234.18 267.394 233.48 267.394 232.66V226.33C267.394 226.01 267.334 225.79 267.214 225.67C267.114 225.53 266.924 225.45 266.644 225.43L265.684 225.37V222.91H270.964V234.67C270.964 234.99 271.014 235.21 271.114 235.33C271.214 235.43 271.414 235.5 271.714 235.54L272.764 235.63ZM280.019 222.91V235.51L281.729 235.6V238H274.589V235.72L275.579 235.63C276.159 235.57 276.449 235.25 276.449 234.67V226.33C276.449 225.99 276.389 225.76 276.269 225.64C276.169 225.52 275.979 225.46 275.699 225.46L274.649 225.4V222.91H280.019ZM276.239 220.33C275.819 219.91 275.609 219.38 275.609 218.74C275.609 218.1 275.819 217.57 276.239 217.15C276.659 216.71 277.209 216.49 277.889 216.49C278.569 216.49 279.119 216.71 279.539 217.15C279.979 217.57 280.199 218.1 280.199 218.74C280.199 219.38 279.979 219.91 279.539 220.33C279.119 220.73 278.569 220.93 277.889 220.93C277.209 220.93 276.659 220.73 276.239 220.33ZM285.326 234.64V226.33C285.326 226.01 285.266 225.79 285.146 225.67C285.046 225.53 284.856 225.45 284.576 225.43L283.316 225.34V222.91H288.386V225.16C288.746 224.38 289.306 223.74 290.066 223.24C290.826 222.72 291.696 222.46 292.676 222.46C293.676 222.46 294.626 222.68 295.526 223.12V227.59L292.736 227.8V226.42C292.736 226.02 292.636 225.77 292.436 225.67C292.216 225.57 291.946 225.52 291.626 225.52C290.826 225.52 290.166 225.81 289.646 226.39C289.146 226.95 288.896 227.67 288.896 228.55V235.51L291.506 235.63V238H283.466V235.72L284.456 235.63C284.756 235.59 284.976 235.51 285.116 235.39C285.256 235.25 285.326 235 285.326 234.64ZM316.799 223.51V234.67C316.799 234.99 316.849 235.21 316.949 235.33C317.069 235.45 317.269 235.52 317.549 235.54L318.509 235.6V238H313.739V236.26L313.649 236.23C312.649 237.67 311.279 238.39 309.539 238.39C307.499 238.39 305.989 237.74 305.009 236.44C304.029 235.14 303.539 233.36 303.539 231.1C303.539 228.38 304.199 226.26 305.519 224.74C306.839 223.22 308.819 222.46 311.459 222.46C313.159 222.46 314.939 222.81 316.799 223.51ZM313.319 233.23V225.46C312.759 225.2 311.989 225.07 311.009 225.07C309.669 225.07 308.699 225.61 308.099 226.69C307.499 227.77 307.199 229.2 307.199 230.98C307.199 234.22 308.239 235.84 310.319 235.84C311.199 235.84 311.919 235.58 312.479 235.06C313.039 234.52 313.319 233.91 313.319 233.23ZM321.737 240.85V226.33C321.737 225.99 321.677 225.76 321.557 225.64C321.457 225.5 321.267 225.43 320.987 225.43L319.727 225.34V222.91H324.797V224.86C325.117 224.26 325.697 223.71 326.537 223.21C327.377 222.71 328.377 222.46 329.537 222.46C333.157 222.46 334.967 225 334.967 230.08C334.967 232.78 334.377 234.85 333.197 236.29C332.017 237.73 330.417 238.45 328.397 238.45C327.197 238.45 326.127 238.16 325.187 237.58V241.72L327.617 241.84V244.21H319.877V241.93L320.867 241.84C321.167 241.8 321.387 241.71 321.527 241.57C321.667 241.45 321.737 241.21 321.737 240.85ZM331.247 230.38C331.247 227.04 330.237 225.37 328.217 225.37C327.377 225.37 326.657 225.63 326.057 226.15C325.477 226.65 325.187 227.25 325.187 227.95V234.85C325.947 235.35 326.867 235.6 327.947 235.6C329.047 235.6 329.867 235.1 330.407 234.1C330.967 233.1 331.247 231.86 331.247 230.38ZM338.968 234.64V226.33C338.968 226.01 338.908 225.79 338.788 225.67C338.688 225.53 338.498 225.45 338.218 225.43L336.958 225.34V222.91H342.028V225.16C342.388 224.38 342.948 223.74 343.708 223.24C344.468 222.72 345.338 222.46 346.318 222.46C347.318 222.46 348.268 222.68 349.168 223.12V227.59L346.378 227.8V226.42C346.378 226.02 346.278 225.77 346.078 225.67C345.858 225.57 345.588 225.52 345.268 225.52C344.468 225.52 343.808 225.81 343.288 226.39C342.788 226.95 342.538 227.67 342.538 228.55V235.51L345.148 235.63V238H337.108V235.72L338.098 235.63C338.398 235.59 338.618 235.51 338.758 235.39C338.898 235.25 338.968 235 338.968 234.64ZM358.496 222.46C359.996 222.46 361.186 222.83 362.066 223.57C362.946 224.29 363.386 225.31 363.386 226.63C363.386 227.51 363.196 228.29 362.816 228.97C362.436 229.63 361.966 230.15 361.406 230.53C360.846 230.91 360.166 231.22 359.366 231.46C358.026 231.86 356.516 232.06 354.836 232.06C354.896 233.12 355.226 233.98 355.826 234.64C356.426 235.28 357.346 235.6 358.586 235.6C359.826 235.6 361.066 235.16 362.306 234.28L363.446 236.71C363.046 237.07 362.366 237.44 361.406 237.82C360.466 238.2 359.386 238.39 358.166 238.39C355.726 238.39 353.936 237.72 352.796 236.38C351.656 235.02 351.086 233.16 351.086 230.8C351.086 228.44 351.736 226.46 353.036 224.86C354.336 223.26 356.156 222.46 358.496 222.46ZM357.116 229.33C357.856 229.19 358.536 228.9 359.156 228.46C359.776 228 360.086 227.46 360.086 226.84C360.086 225.62 359.486 225.01 358.286 225.01C357.166 225.01 356.306 225.46 355.706 226.36C355.106 227.24 354.776 228.3 354.716 229.54C355.596 229.52 356.396 229.45 357.116 229.33ZM373.357 225.19C372.877 225.01 372.297 224.92 371.617 224.92C370.937 224.92 370.387 225.08 369.967 225.4C369.567 225.7 369.367 226.08 369.367 226.54C369.367 226.98 369.437 227.33 369.577 227.59C369.737 227.83 369.977 228.04 370.297 228.22C370.797 228.48 371.397 228.71 372.097 228.91C372.797 229.09 373.317 229.24 373.657 229.36C373.997 229.46 374.417 229.64 374.917 229.9C375.437 230.16 375.827 230.44 376.087 230.74C376.787 231.48 377.137 232.43 377.137 233.59C377.137 235.09 376.587 236.27 375.487 237.13C374.407 237.97 373.027 238.39 371.347 238.39C368.907 238.39 367.067 238.08 365.827 237.46V233.29L368.527 233.08V234.52C368.527 235.4 369.367 235.84 371.047 235.84C372.727 235.84 373.567 235.23 373.567 234.01C373.567 233.57 373.417 233.21 373.117 232.93C372.837 232.65 372.557 232.46 372.277 232.36C371.997 232.26 371.657 232.16 371.257 232.06C370.877 231.96 370.497 231.86 370.117 231.76C369.757 231.66 369.357 231.53 368.917 231.37C368.497 231.19 368.027 230.94 367.507 230.62C366.487 229.96 365.977 228.86 365.977 227.32C365.977 225.76 366.527 224.56 367.627 223.72C368.727 222.88 370.107 222.46 371.767 222.46C373.447 222.46 375.107 222.86 376.747 223.66V227.26L374.047 227.47V226.21C374.047 225.71 373.817 225.37 373.357 225.19ZM386.562 222.46C388.062 222.46 389.252 222.83 390.132 223.57C391.012 224.29 391.452 225.31 391.452 226.63C391.452 227.51 391.262 228.29 390.882 228.97C390.502 229.63 390.032 230.15 389.472 230.53C388.912 230.91 388.232 231.22 387.432 231.46C386.092 231.86 384.582 232.06 382.902 232.06C382.962 233.12 383.292 233.98 383.892 234.64C384.492 235.28 385.412 235.6 386.652 235.6C387.892 235.6 389.132 235.16 390.372 234.28L391.512 236.71C391.112 237.07 390.432 237.44 389.472 237.82C388.532 238.2 387.452 238.39 386.232 238.39C383.792 238.39 382.002 237.72 380.862 236.38C379.722 235.02 379.152 233.16 379.152 230.8C379.152 228.44 379.802 226.46 381.102 224.86C382.402 223.26 384.222 222.46 386.562 222.46ZM385.182 229.33C385.922 229.19 386.602 228.9 387.222 228.46C387.842 228 388.152 227.46 388.152 226.84C388.152 225.62 387.552 225.01 386.352 225.01C385.232 225.01 384.372 225.46 383.772 226.36C383.172 227.24 382.842 228.3 382.782 229.54C383.662 229.52 384.462 229.45 385.182 229.33ZM393.383 225.31V222.91H398.453V224.86C398.973 224.12 399.663 223.54 400.523 223.12C401.383 222.68 402.313 222.46 403.313 222.46C404.833 222.46 406.003 222.9 406.823 223.78C407.663 224.64 408.083 225.94 408.083 227.68V235.51L409.793 235.6V238H402.653V235.72L403.643 235.63C403.943 235.59 404.163 235.51 404.303 235.39C404.443 235.25 404.513 235 404.513 234.64V228.46C404.513 227.36 404.343 226.55 404.003 226.03C403.663 225.49 403.013 225.22 402.053 225.22C401.113 225.22 400.363 225.52 399.803 226.12C399.243 226.72 398.963 227.43 398.963 228.25V235.51L400.673 235.6V238H393.533V235.72L394.523 235.63C394.823 235.59 395.043 235.51 395.183 235.39C395.323 235.25 395.393 235 395.393 234.64V226.33C395.393 225.73 395.143 225.42 394.643 225.4L393.383 225.31ZM413.68 219.73H415.63V222.91H419.62L419.32 225.43H415.63V233.32C415.63 234.2 415.79 234.82 416.11 235.18C416.43 235.52 416.92 235.69 417.58 235.69C418.26 235.69 418.94 235.48 419.62 235.06L420.52 237.37C419.52 238.07 418.25 238.42 416.71 238.42C415.81 238.42 415.05 238.3 414.43 238.06C413.81 237.84 413.35 237.59 413.05 237.31C412.75 237.03 412.52 236.62 412.36 236.08C412.2 235.54 412.11 235.12 412.09 234.82C412.07 234.5 412.06 234.04 412.06 233.44V225.43H409.93L410.23 223.24C411.17 223.16 411.88 222.83 412.36 222.25C412.84 221.65 413.28 220.81 413.68 219.73ZM435.129 223.51V234.67C435.129 234.99 435.179 235.21 435.279 235.33C435.399 235.45 435.599 235.52 435.879 235.54L436.839 235.6V238H432.069V236.26L431.979 236.23C430.979 237.67 429.609 238.39 427.869 238.39C425.829 238.39 424.319 237.74 423.339 236.44C422.359 235.14 421.869 233.36 421.869 231.1C421.869 228.38 422.529 226.26 423.849 224.74C425.169 223.22 427.149 222.46 429.789 222.46C431.489 222.46 433.269 222.81 435.129 223.51ZM431.649 233.23V225.46C431.089 225.2 430.319 225.07 429.339 225.07C427.999 225.07 427.029 225.61 426.429 226.69C425.829 227.77 425.529 229.2 425.529 230.98C425.529 234.22 426.569 235.84 428.649 235.84C429.529 235.84 430.249 235.58 430.809 235.06C431.369 234.52 431.649 233.91 431.649 233.23ZM448.016 219.73H449.966V222.91H453.956L453.656 225.43H449.966V233.32C449.966 234.2 450.126 234.82 450.446 235.18C450.766 235.52 451.256 235.69 451.916 235.69C452.596 235.69 453.276 235.48 453.956 235.06L454.856 237.37C453.856 238.07 452.586 238.42 451.046 238.42C450.146 238.42 449.386 238.3 448.766 238.06C448.146 237.84 447.686 237.59 447.386 237.31C447.086 237.03 446.856 236.62 446.696 236.08C446.536 235.54 446.446 235.12 446.426 234.82C446.406 234.5 446.396 234.04 446.396 233.44V225.43H444.266L444.566 223.24C445.506 223.16 446.216 222.83 446.696 222.25C447.176 221.65 447.616 220.81 448.016 219.73ZM462.895 235.81C465.075 235.81 466.165 234.05 466.165 230.53C466.165 228.75 465.915 227.4 465.415 226.48C464.935 225.56 464.115 225.1 462.955 225.1C461.815 225.1 460.975 225.54 460.435 226.42C459.895 227.3 459.625 228.5 459.625 230.02C459.625 232.84 460.145 234.61 461.185 235.33C461.645 235.65 462.215 235.81 462.895 235.81ZM455.995 230.44C455.995 228.96 456.215 227.68 456.655 226.6C457.095 225.5 457.685 224.66 458.425 224.08C459.845 223 461.415 222.46 463.135 222.46C464.335 222.46 465.345 222.66 466.165 223.06C467.005 223.44 467.655 223.89 468.115 224.41C468.595 224.91 468.995 225.65 469.315 226.63C469.655 227.59 469.825 228.73 469.825 230.05C469.825 232.81 469.155 234.9 467.815 236.32C466.475 237.74 464.755 238.45 462.655 238.45C460.575 238.45 458.945 237.78 457.765 236.44C456.585 235.08 455.995 233.08 455.995 230.44ZM460.585 220.18L464.065 214.42L465.475 215.08C466.055 215.4 466.345 215.76 466.345 216.16C466.345 216.56 466.095 216.99 465.595 217.45L461.755 221.17L460.585 220.18ZM473.524 240.85V226.33C473.524 225.99 473.464 225.76 473.344 225.64C473.244 225.5 473.054 225.43 472.774 225.43L471.514 225.34V222.91H476.584V224.86C476.904 224.26 477.484 223.71 478.324 223.21C479.164 222.71 480.164 222.46 481.324 222.46C484.944 222.46 486.754 225 486.754 230.08C486.754 232.78 486.164 234.85 484.984 236.29C483.804 237.73 482.204 238.45 480.184 238.45C478.984 238.45 477.914 238.16 476.974 237.58V241.72L479.404 241.84V244.21H471.664V241.93L472.654 241.84C472.954 241.8 473.174 241.71 473.314 241.57C473.454 241.45 473.524 241.21 473.524 240.85ZM483.034 230.38C483.034 227.04 482.024 225.37 480.004 225.37C479.164 225.37 478.444 225.63 477.844 226.15C477.264 226.65 476.974 227.25 476.974 227.95V234.85C477.734 235.35 478.654 235.6 479.734 235.6C480.834 235.6 481.654 235.1 482.194 234.1C482.754 233.1 483.034 231.86 483.034 230.38ZM494.325 222.91V235.51L496.035 235.6V238H488.895V235.72L489.885 235.63C490.465 235.57 490.755 235.25 490.755 234.67V226.33C490.755 225.99 490.695 225.76 490.575 225.64C490.475 225.52 490.285 225.46 490.005 225.46L488.955 225.4V222.91H494.325ZM490.545 220.33C490.125 219.91 489.915 219.38 489.915 218.74C489.915 218.1 490.125 217.57 490.545 217.15C490.965 216.71 491.515 216.49 492.195 216.49C492.875 216.49 493.425 216.71 493.845 217.15C494.285 217.57 494.505 218.1 494.505 218.74C494.505 219.38 494.285 219.91 493.845 220.33C493.425 220.73 492.875 220.93 492.195 220.93C491.515 220.93 490.965 220.73 490.545 220.33ZM501.402 230.29C501.402 231.99 501.722 233.31 502.362 234.25C503.002 235.19 503.922 235.66 505.122 235.66C506.342 235.66 507.542 235.23 508.722 234.37L510.012 236.68C508.592 237.84 506.812 238.42 504.672 238.42C502.532 238.42 500.842 237.75 499.602 236.41C498.382 235.05 497.772 233.05 497.772 230.41C497.772 227.77 498.472 225.79 499.872 224.47C501.292 223.13 502.882 222.46 504.642 222.46C506.422 222.46 508.072 222.87 509.592 223.69V227.59L506.832 227.8V226.36C506.832 225.82 506.632 225.49 506.232 225.37C505.852 225.23 505.452 225.16 505.032 225.16C502.612 225.16 501.402 226.87 501.402 230.29ZM518.5 235.81C520.68 235.81 521.77 234.05 521.77 230.53C521.77 228.75 521.52 227.4 521.02 226.48C520.54 225.56 519.72 225.1 518.56 225.1C517.42 225.1 516.58 225.54 516.04 226.42C515.5 227.3 515.23 228.5 515.23 230.02C515.23 232.84 515.75 234.61 516.79 235.33C517.25 235.65 517.82 235.81 518.5 235.81ZM511.6 230.44C511.6 228.96 511.82 227.68 512.26 226.6C512.7 225.5 513.29 224.66 514.03 224.08C515.45 223 517.02 222.46 518.74 222.46C519.94 222.46 520.95 222.66 521.77 223.06C522.61 223.44 523.26 223.89 523.72 224.41C524.2 224.91 524.6 225.65 524.92 226.63C525.26 227.59 525.43 228.73 525.43 230.05C525.43 232.81 524.76 234.9 523.42 236.32C522.08 237.74 520.36 238.45 518.26 238.45C516.18 238.45 514.55 237.78 513.37 236.44C512.19 235.08 511.6 233.08 511.6 230.44ZM535.31 225.19C534.83 225.01 534.25 224.92 533.57 224.92C532.89 224.92 532.34 225.08 531.92 225.4C531.52 225.7 531.32 226.08 531.32 226.54C531.32 226.98 531.39 227.33 531.53 227.59C531.69 227.83 531.93 228.04 532.25 228.22C532.75 228.48 533.35 228.71 534.05 228.91C534.75 229.09 535.27 229.24 535.61 229.36C535.95 229.46 536.37 229.64 536.87 229.9C537.39 230.16 537.78 230.44 538.04 230.74C538.74 231.48 539.09 232.43 539.09 233.59C539.09 235.09 538.54 236.27 537.44 237.13C536.36 237.97 534.98 238.39 533.3 238.39C530.86 238.39 529.02 238.08 527.78 237.46V233.29L530.48 233.08V234.52C530.48 235.4 531.32 235.84 533 235.84C534.68 235.84 535.52 235.23 535.52 234.01C535.52 233.57 535.37 233.21 535.07 232.93C534.79 232.65 534.51 232.46 534.23 232.36C533.95 232.26 533.61 232.16 533.21 232.06C532.83 231.96 532.45 231.86 532.07 231.76C531.71 231.66 531.31 231.53 530.87 231.37C530.45 231.19 529.98 230.94 529.46 230.62C528.44 229.96 527.93 228.86 527.93 227.32C527.93 225.76 528.48 224.56 529.58 223.72C530.68 222.88 532.06 222.46 533.72 222.46C535.4 222.46 537.06 222.86 538.7 223.66V227.26L536 227.47V226.21C536 225.71 535.77 225.37 535.31 225.19ZM548.851 234.64V226.33C548.851 226.01 548.791 225.79 548.671 225.67C548.571 225.53 548.381 225.45 548.101 225.43L546.841 225.34V222.91H551.911V225.16C552.271 224.38 552.831 223.74 553.591 223.24C554.351 222.72 555.221 222.46 556.201 222.46C557.201 222.46 558.151 222.68 559.051 223.12V227.59L556.261 227.8V226.42C556.261 226.02 556.161 225.77 555.961 225.67C555.741 225.57 555.471 225.52 555.151 225.52C554.351 225.52 553.691 225.81 553.171 226.39C552.671 226.95 552.421 227.67 552.421 228.55V235.51L555.031 235.63V238H546.991V235.72L547.981 235.63C548.281 235.59 548.501 235.51 548.641 235.39C548.781 235.25 548.851 235 548.851 234.64ZM568.378 222.46C569.878 222.46 571.068 222.83 571.948 223.57C572.828 224.29 573.268 225.31 573.268 226.63C573.268 227.51 573.078 228.29 572.698 228.97C572.318 229.63 571.848 230.15 571.288 230.53C570.728 230.91 570.048 231.22 569.248 231.46C567.908 231.86 566.398 232.06 564.718 232.06C564.778 233.12 565.108 233.98 565.708 234.64C566.308 235.28 567.228 235.6 568.468 235.6C569.708 235.6 570.948 235.16 572.188 234.28L573.328 236.71C572.928 237.07 572.248 237.44 571.288 237.82C570.348 238.2 569.268 238.39 568.048 238.39C565.608 238.39 563.818 237.72 562.678 236.38C561.538 235.02 560.968 233.16 560.968 230.8C560.968 228.44 561.618 226.46 562.918 224.86C564.218 223.26 566.038 222.46 568.378 222.46ZM566.998 229.33C567.738 229.19 568.418 228.9 569.038 228.46C569.658 228 569.968 227.46 569.968 226.84C569.968 225.62 569.368 225.01 568.168 225.01C567.048 225.01 566.188 225.46 565.588 226.36C564.988 227.24 564.658 228.3 564.598 229.54C565.478 229.52 566.278 229.45 566.998 229.33ZM580.75 216.61V235.51L582.46 235.6V238H575.32V235.72L576.31 235.63C576.89 235.57 577.18 235.25 577.18 234.67V219.88C577.18 219.44 576.93 219.2 576.43 219.16L575.38 219.1V216.61H580.75ZM597.785 223.51V234.67C597.785 234.99 597.835 235.21 597.935 235.33C598.055 235.45 598.255 235.52 598.535 235.54L599.495 235.6V238H594.725V236.26L594.635 236.23C593.635 237.67 592.265 238.39 590.525 238.39C588.485 238.39 586.975 237.74 585.995 236.44C585.015 235.14 584.525 233.36 584.525 231.1C584.525 228.38 585.185 226.26 586.505 224.74C587.825 223.22 589.805 222.46 592.445 222.46C594.145 222.46 595.925 222.81 597.785 223.51ZM594.305 233.23V225.46C593.745 225.2 592.975 225.07 591.995 225.07C590.655 225.07 589.685 225.61 589.085 226.69C588.485 227.77 588.185 229.2 588.185 230.98C588.185 234.22 589.225 235.84 591.305 235.84C592.185 235.84 592.905 235.58 593.465 235.06C594.025 234.52 594.305 233.91 594.305 233.23ZM604.967 230.29C604.967 231.99 605.287 233.31 605.927 234.25C606.567 235.19 607.487 235.66 608.687 235.66C609.907 235.66 611.107 235.23 612.287 234.37L613.577 236.68C612.157 237.84 610.377 238.42 608.237 238.42C606.097 238.42 604.407 237.75 603.167 236.41C601.947 235.05 601.337 233.05 601.337 230.41C601.337 227.77 602.037 225.79 603.437 224.47C604.857 223.13 606.447 222.46 608.207 222.46C609.987 222.46 611.637 222.87 613.157 223.69V227.59L610.397 227.8V226.36C610.397 225.82 610.197 225.49 609.797 225.37C609.417 225.23 609.017 225.16 608.597 225.16C606.177 225.16 604.967 226.87 604.967 230.29ZM620.888 222.91V235.51L622.598 235.6V238H615.458V235.72L616.448 235.63C617.028 235.57 617.318 235.25 617.318 234.67V226.33C617.318 225.99 617.258 225.76 617.138 225.64C617.038 225.52 616.848 225.46 616.568 225.46L615.518 225.4V222.91H620.888ZM617.108 220.33C616.688 219.91 616.478 219.38 616.478 218.74C616.478 218.1 616.688 217.57 617.108 217.15C617.528 216.71 618.078 216.49 618.758 216.49C619.438 216.49 619.988 216.71 620.408 217.15C620.848 217.57 621.068 218.1 621.068 218.74C621.068 219.38 620.848 219.91 620.408 220.33C619.988 220.73 619.438 220.93 618.758 220.93C618.078 220.93 617.528 220.73 617.108 220.33ZM631.235 235.81C633.415 235.81 634.505 234.05 634.505 230.53C634.505 228.75 634.255 227.4 633.755 226.48C633.275 225.56 632.455 225.1 631.295 225.1C630.155 225.1 629.315 225.54 628.775 226.42C628.235 227.3 627.965 228.5 627.965 230.02C627.965 232.84 628.485 234.61 629.525 235.33C629.985 235.65 630.555 235.81 631.235 235.81ZM624.335 230.44C624.335 228.96 624.555 227.68 624.995 226.6C625.435 225.5 626.025 224.66 626.765 224.08C628.185 223 629.755 222.46 631.475 222.46C632.675 222.46 633.685 222.66 634.505 223.06C635.345 223.44 635.995 223.89 636.455 224.41C636.935 224.91 637.335 225.65 637.655 226.63C637.995 227.59 638.165 228.73 638.165 230.05C638.165 232.81 637.495 234.9 636.155 236.32C634.815 237.74 633.095 238.45 630.995 238.45C628.915 238.45 627.285 237.78 626.105 236.44C624.925 235.08 624.335 233.08 624.335 230.44ZM640.004 225.31V222.91H645.074V224.86C645.594 224.12 646.284 223.54 647.144 223.12C648.004 222.68 648.934 222.46 649.934 222.46C651.454 222.46 652.624 222.9 653.444 223.78C654.284 224.64 654.704 225.94 654.704 227.68V235.51L656.414 235.6V238H649.274V235.72L650.264 235.63C650.564 235.59 650.784 235.51 650.924 235.39C651.064 235.25 651.134 235 651.134 234.64V228.46C651.134 227.36 650.964 226.55 650.624 226.03C650.284 225.49 649.634 225.22 648.674 225.22C647.734 225.22 646.984 225.52 646.424 226.12C645.864 226.72 645.584 227.43 645.584 228.25V235.51L647.294 235.6V238H640.154V235.72L641.144 235.63C641.444 235.59 641.664 235.51 641.804 235.39C641.944 235.25 642.014 235 642.014 234.64V226.33C642.014 225.73 641.764 225.42 641.264 225.4L640.004 225.31ZM671.643 223.51V234.67C671.643 234.99 671.693 235.21 671.793 235.33C671.913 235.45 672.113 235.52 672.393 235.54L673.353 235.6V238H668.583V236.26L668.493 236.23C667.493 237.67 666.123 238.39 664.383 238.39C662.343 238.39 660.833 237.74 659.853 236.44C658.873 235.14 658.383 233.36 658.383 231.1C658.383 228.38 659.043 226.26 660.363 224.74C661.683 223.22 663.663 222.46 666.303 222.46C668.003 222.46 669.783 222.81 671.643 223.51ZM668.163 233.23V225.46C667.603 225.2 666.833 225.07 665.853 225.07C664.513 225.07 663.543 225.61 662.943 226.69C662.343 227.77 662.043 229.2 662.043 230.98C662.043 234.22 663.083 235.84 665.163 235.84C666.043 235.84 666.763 235.58 667.323 235.06C667.883 234.52 668.163 233.91 668.163 233.23ZM682.724 222.46C683.584 222.46 684.404 222.58 685.184 222.82V219.79C685.184 219.35 684.924 219.11 684.404 219.07L683.114 218.98V216.61H688.694V234.85C688.714 235.31 688.964 235.54 689.444 235.54L690.494 235.6V238H685.634V236.23L685.544 236.2C684.644 237.66 683.284 238.39 681.464 238.39C679.184 238.39 677.584 237.63 676.664 236.11C675.824 234.73 675.404 233.04 675.404 231.04C675.404 228.44 676.044 226.36 677.324 224.8C678.624 223.24 680.424 222.46 682.724 222.46ZM685.184 233.32V225.55C684.464 225.23 683.704 225.07 682.904 225.07C681.584 225.07 680.614 225.6 679.994 226.66C679.394 227.72 679.094 229.07 679.094 230.71C679.094 234.07 680.174 235.75 682.334 235.75C683.154 235.75 683.834 235.52 684.374 235.06C684.914 234.58 685.184 234 685.184 233.32ZM699.145 235.81C701.325 235.81 702.415 234.05 702.415 230.53C702.415 228.75 702.165 227.4 701.665 226.48C701.185 225.56 700.365 225.1 699.205 225.1C698.065 225.1 697.225 225.54 696.685 226.42C696.145 227.3 695.875 228.5 695.875 230.02C695.875 232.84 696.395 234.61 697.435 235.33C697.895 235.65 698.465 235.81 699.145 235.81ZM692.245 230.44C692.245 228.96 692.465 227.68 692.905 226.6C693.345 225.5 693.935 224.66 694.675 224.08C696.095 223 697.665 222.46 699.385 222.46C700.585 222.46 701.595 222.66 702.415 223.06C703.255 223.44 703.905 223.89 704.365 224.41C704.845 224.91 705.245 225.65 705.565 226.63C705.905 227.59 706.075 228.73 706.075 230.05C706.075 232.81 705.405 234.9 704.065 236.32C702.725 237.74 701.005 238.45 698.905 238.45C696.825 238.45 695.195 237.78 694.015 236.44C692.835 235.08 692.245 233.08 692.245 230.44ZM715.954 225.19C715.474 225.01 714.894 224.92 714.214 224.92C713.534 224.92 712.984 225.08 712.564 225.4C712.164 225.7 711.964 226.08 711.964 226.54C711.964 226.98 712.034 227.33 712.174 227.59C712.334 227.83 712.574 228.04 712.894 228.22C713.394 228.48 713.994 228.71 714.694 228.91C715.394 229.09 715.914 229.24 716.254 229.36C716.594 229.46 717.014 229.64 717.514 229.9C718.034 230.16 718.424 230.44 718.684 230.74C719.384 231.48 719.734 232.43 719.734 233.59C719.734 235.09 719.184 236.27 718.084 237.13C717.004 237.97 715.624 238.39 713.944 238.39C711.504 238.39 709.664 238.08 708.424 237.46V233.29L711.124 233.08V234.52C711.124 235.4 711.964 235.84 713.644 235.84C715.324 235.84 716.164 235.23 716.164 234.01C716.164 233.57 716.014 233.21 715.714 232.93C715.434 232.65 715.154 232.46 714.874 232.36C714.594 232.26 714.254 232.16 713.854 232.06C713.474 231.96 713.094 231.86 712.714 231.76C712.354 231.66 711.954 231.53 711.514 231.37C711.094 231.19 710.624 230.94 710.104 230.62C709.084 229.96 708.574 228.86 708.574 227.32C708.574 225.76 709.124 224.56 710.224 223.72C711.324 222.88 712.704 222.46 714.364 222.46C716.044 222.46 717.704 222.86 719.344 223.66V227.26L716.644 227.47V226.21C716.644 225.71 716.414 225.37 715.954 225.19ZM741.106 223.51V234.67C741.106 234.99 741.156 235.21 741.256 235.33C741.376 235.45 741.576 235.52 741.856 235.54L742.816 235.6V238H738.046V236.26L737.956 236.23C736.956 237.67 735.586 238.39 733.846 238.39C731.806 238.39 730.296 237.74 729.316 236.44C728.336 235.14 727.846 233.36 727.846 231.1C727.846 228.38 728.506 226.26 729.826 224.74C731.146 223.22 733.126 222.46 735.766 222.46C737.466 222.46 739.246 222.81 741.106 223.51ZM737.626 233.23V225.46C737.066 225.2 736.296 225.07 735.316 225.07C733.976 225.07 733.006 225.61 732.406 226.69C731.806 227.77 731.506 229.2 731.506 230.98C731.506 234.22 732.546 235.84 734.626 235.84C735.506 235.84 736.226 235.58 736.786 235.06C737.346 234.52 737.626 233.91 737.626 233.23ZM175.268 266.34V263.91H180.338V265.86C181.458 264.26 182.988 263.46 184.928 263.46C186.888 263.46 188.208 264.26 188.888 265.86C190.008 264.26 191.528 263.46 193.448 263.46C194.888 263.46 195.998 263.9 196.778 264.78C197.558 265.64 197.948 266.94 197.948 268.68V276.51L199.658 276.6V279H192.518V276.72L193.508 276.63C193.808 276.59 194.018 276.51 194.138 276.39C194.278 276.25 194.358 276.01 194.378 275.67V269.46C194.378 268.36 194.248 267.55 193.988 267.03C193.748 266.49 193.168 266.22 192.248 266.22C191.328 266.22 190.618 266.5 190.118 267.06C189.638 267.62 189.398 268.37 189.398 269.31V276.51L191.048 276.6V279H183.968V276.72L184.958 276.63C185.258 276.59 185.478 276.51 185.618 276.39C185.758 276.25 185.828 276 185.828 275.64V269.46C185.828 268.36 185.698 267.55 185.438 267.03C185.198 266.49 184.608 266.22 183.668 266.22C182.748 266.22 182.048 266.51 181.568 267.09C181.088 267.67 180.848 268.39 180.848 269.25V276.51L182.468 276.6V279H175.388V276.72L176.378 276.63C176.678 276.59 176.898 276.51 177.038 276.39C177.178 276.25 177.248 276 177.248 275.64H177.278V267.36C177.278 267.02 177.218 266.79 177.098 266.67C176.998 266.53 176.808 266.45 176.528 266.43L175.268 266.34ZM208.334 276.81C210.514 276.81 211.604 275.05 211.604 271.53C211.604 269.75 211.354 268.4 210.854 267.48C210.374 266.56 209.554 266.1 208.394 266.1C207.254 266.1 206.414 266.54 205.874 267.42C205.334 268.3 205.064 269.5 205.064 271.02C205.064 273.84 205.584 275.61 206.624 276.33C207.084 276.65 207.654 276.81 208.334 276.81ZM201.434 271.44C201.434 269.96 201.654 268.68 202.094 267.6C202.534 266.5 203.124 265.66 203.864 265.08C205.284 264 206.854 263.46 208.574 263.46C209.774 263.46 210.784 263.66 211.604 264.06C212.444 264.44 213.094 264.89 213.554 265.41C214.034 265.91 214.434 266.65 214.754 267.63C215.094 268.59 215.264 269.73 215.264 271.05C215.264 273.81 214.594 275.9 213.254 277.32C211.914 278.74 210.194 279.45 208.094 279.45C206.014 279.45 204.384 278.78 203.204 277.44C202.024 276.08 201.434 274.08 201.434 271.44ZM219.144 275.64V267.33C219.144 267.01 219.084 266.79 218.964 266.67C218.864 266.53 218.674 266.45 218.394 266.43L217.134 266.34V263.91H222.204V266.16C222.564 265.38 223.124 264.74 223.884 264.24C224.644 263.72 225.514 263.46 226.494 263.46C227.494 263.46 228.444 263.68 229.344 264.12V268.59L226.554 268.8V267.42C226.554 267.02 226.454 266.77 226.254 266.67C226.034 266.57 225.764 266.52 225.444 266.52C224.644 266.52 223.984 266.81 223.464 267.39C222.964 267.95 222.714 268.67 222.714 269.55V276.51L225.324 276.63V279H217.284V276.72L218.274 276.63C218.574 276.59 218.794 276.51 218.934 276.39C219.074 276.25 219.144 276 219.144 275.64ZM234.471 260.73H236.421V263.91H240.411L240.111 266.43H236.421V274.32C236.421 275.2 236.581 275.82 236.901 276.18C237.221 276.52 237.711 276.69 238.371 276.69C239.051 276.69 239.731 276.48 240.411 276.06L241.311 278.37C240.311 279.07 239.041 279.42 237.501 279.42C236.601 279.42 235.841 279.3 235.221 279.06C234.601 278.84 234.141 278.59 233.841 278.31C233.541 278.03 233.311 277.62 233.151 277.08C232.991 276.54 232.901 276.12 232.881 275.82C232.861 275.5 232.851 275.04 232.851 274.44V266.43H230.721L231.021 264.24C231.961 264.16 232.671 263.83 233.151 263.25C233.631 262.65 234.071 261.81 234.471 260.73ZM249.98 263.46C251.48 263.46 252.67 263.83 253.55 264.57C254.43 265.29 254.87 266.31 254.87 267.63C254.87 268.51 254.68 269.29 254.3 269.97C253.92 270.63 253.45 271.15 252.89 271.53C252.33 271.91 251.65 272.22 250.85 272.46C249.51 272.86 248 273.06 246.32 273.06C246.38 274.12 246.71 274.98 247.31 275.64C247.91 276.28 248.83 276.6 250.07 276.6C251.31 276.6 252.55 276.16 253.79 275.28L254.93 277.71C254.53 278.07 253.85 278.44 252.89 278.82C251.95 279.2 250.87 279.39 249.65 279.39C247.21 279.39 245.42 278.72 244.28 277.38C243.14 276.02 242.57 274.16 242.57 271.8C242.57 269.44 243.22 267.46 244.52 265.86C245.82 264.26 247.64 263.46 249.98 263.46ZM248.6 270.33C249.34 270.19 250.02 269.9 250.64 269.46C251.26 269 251.57 268.46 251.57 267.84C251.57 266.62 250.97 266.01 249.77 266.01C248.65 266.01 247.79 266.46 247.19 267.36C246.59 268.24 246.26 269.3 246.2 270.54C247.08 270.52 247.88 270.45 248.6 270.33ZM262.051 276.63L258.961 283.65L257.071 283.08L258.001 276.99C258.141 275.99 258.631 275.49 259.471 275.49C259.891 275.49 260.211 275.56 260.431 275.7C260.671 275.82 260.861 275.92 261.001 276C261.161 276.08 261.271 276.14 261.331 276.18C261.391 276.22 261.511 276.3 261.691 276.42C261.871 276.52 261.991 276.59 262.051 276.63ZM273.553 260.73H275.503V263.91H279.493L279.193 266.43H275.503V274.32C275.503 275.2 275.663 275.82 275.983 276.18C276.303 276.52 276.793 276.69 277.453 276.69C278.133 276.69 278.813 276.48 279.493 276.06L280.393 278.37C279.393 279.07 278.123 279.42 276.583 279.42C275.683 279.42 274.923 279.3 274.303 279.06C273.683 278.84 273.223 278.59 272.923 278.31C272.623 278.03 272.393 277.62 272.233 277.08C272.073 276.54 271.983 276.12 271.963 275.82C271.943 275.5 271.933 275.04 271.933 274.44V266.43H269.803L270.103 264.24C271.043 264.16 271.753 263.83 272.233 263.25C272.713 262.65 273.153 261.81 273.553 260.73ZM283.392 275.64V267.33C283.392 267.01 283.332 266.79 283.212 266.67C283.112 266.53 282.922 266.45 282.642 266.43L281.382 266.34V263.91H286.452V266.16C286.812 265.38 287.372 264.74 288.132 264.24C288.892 263.72 289.762 263.46 290.742 263.46C291.742 263.46 292.692 263.68 293.592 264.12V268.59L290.802 268.8V267.42C290.802 267.02 290.702 266.77 290.502 266.67C290.282 266.57 290.012 266.52 289.692 266.52C288.892 266.52 288.232 266.81 287.712 267.39C287.212 267.95 286.962 268.67 286.962 269.55V276.51L289.572 276.63V279H281.532V276.72L282.522 276.63C282.822 276.59 283.042 276.51 283.182 276.39C283.322 276.25 283.392 276 283.392 275.64ZM308.859 264.51V275.67C308.859 275.99 308.909 276.21 309.009 276.33C309.129 276.45 309.329 276.52 309.609 276.54L310.569 276.6V279H305.799V277.26L305.709 277.23C304.709 278.67 303.339 279.39 301.599 279.39C299.559 279.39 298.049 278.74 297.069 277.44C296.089 276.14 295.599 274.36 295.599 272.1C295.599 269.38 296.259 267.26 297.579 265.74C298.899 264.22 300.879 263.46 303.519 263.46C305.219 263.46 306.999 263.81 308.859 264.51ZM305.379 274.23V266.46C304.819 266.2 304.049 266.07 303.069 266.07C301.729 266.07 300.759 266.61 300.159 267.69C299.559 268.77 299.259 270.2 299.259 271.98C299.259 275.22 300.299 276.84 302.379 276.84C303.259 276.84 303.979 276.58 304.539 276.06C305.099 275.52 305.379 274.91 305.379 274.23ZM327.725 276.63V279H322.865V277.05C321.765 278.61 320.145 279.39 318.005 279.39C314.905 279.39 313.355 277.66 313.355 274.2V267.27C313.355 266.73 313.105 266.45 312.605 266.43L311.645 266.37V263.91H316.925V273.42C316.925 274.48 317.075 275.28 317.375 275.82C317.675 276.36 318.295 276.63 319.235 276.63C320.175 276.63 320.925 276.34 321.485 275.76C322.065 275.18 322.355 274.48 322.355 273.66V267.33C322.355 267.01 322.295 266.79 322.175 266.67C322.075 266.53 321.885 266.45 321.605 266.43L320.645 266.37V263.91H325.925V275.67C325.925 275.99 325.975 276.21 326.075 276.33C326.175 276.43 326.375 276.5 326.675 276.54L327.725 276.63ZM329.37 266.34V263.91H334.44V265.86C335.56 264.26 337.09 263.46 339.03 263.46C340.99 263.46 342.31 264.26 342.99 265.86C344.11 264.26 345.63 263.46 347.55 263.46C348.99 263.46 350.1 263.9 350.88 264.78C351.66 265.64 352.05 266.94 352.05 268.68V276.51L353.76 276.6V279H346.62V276.72L347.61 276.63C347.91 276.59 348.12 276.51 348.24 276.39C348.38 276.25 348.46 276.01 348.48 275.67V269.46C348.48 268.36 348.35 267.55 348.09 267.03C347.85 266.49 347.27 266.22 346.35 266.22C345.43 266.22 344.72 266.5 344.22 267.06C343.74 267.62 343.5 268.37 343.5 269.31V276.51L345.15 276.6V279H338.07V276.72L339.06 276.63C339.36 276.59 339.58 276.51 339.72 276.39C339.86 276.25 339.93 276 339.93 275.64V269.46C339.93 268.36 339.8 267.55 339.54 267.03C339.3 266.49 338.71 266.22 337.77 266.22C336.85 266.22 336.15 266.51 335.67 267.09C335.19 267.67 334.95 268.39 334.95 269.25V276.51L336.57 276.6V279H329.49V276.72L330.48 276.63C330.78 276.59 331 276.51 331.14 276.39C331.28 276.25 331.35 276 331.35 275.64H331.38V267.36C331.38 267.02 331.32 266.79 331.2 266.67C331.1 266.53 330.91 266.45 330.63 266.43L329.37 266.34ZM369.006 264.51V275.67C369.006 275.99 369.056 276.21 369.156 276.33C369.276 276.45 369.476 276.52 369.756 276.54L370.716 276.6V279H365.946V277.26L365.856 277.23C364.856 278.67 363.486 279.39 361.746 279.39C359.706 279.39 358.196 278.74 357.216 277.44C356.236 276.14 355.746 274.36 355.746 272.1C355.746 269.38 356.406 267.26 357.726 265.74C359.046 264.22 361.026 263.46 363.666 263.46C365.366 263.46 367.146 263.81 369.006 264.51ZM365.526 274.23V266.46C364.966 266.2 364.196 266.07 363.216 266.07C361.876 266.07 360.906 266.61 360.306 267.69C359.706 268.77 359.406 270.2 359.406 271.98C359.406 275.22 360.446 276.84 362.526 276.84C363.406 276.84 364.126 276.58 364.686 276.06C365.246 275.52 365.526 274.91 365.526 274.23ZM380.417 266.19C379.937 266.01 379.357 265.92 378.677 265.92C377.997 265.92 377.447 266.08 377.027 266.4C376.627 266.7 376.427 267.08 376.427 267.54C376.427 267.98 376.497 268.33 376.637 268.59C376.797 268.83 377.037 269.04 377.357 269.22C377.857 269.48 378.457 269.71 379.157 269.91C379.857 270.09 380.377 270.24 380.717 270.36C381.057 270.46 381.477 270.64 381.977 270.9C382.497 271.16 382.887 271.44 383.147 271.74C383.847 272.48 384.197 273.43 384.197 274.59C384.197 276.09 383.647 277.27 382.547 278.13C381.467 278.97 380.087 279.39 378.407 279.39C375.967 279.39 374.127 279.08 372.887 278.46V274.29L375.587 274.08V275.52C375.587 276.4 376.427 276.84 378.107 276.84C379.787 276.84 380.627 276.23 380.627 275.01C380.627 274.57 380.477 274.21 380.177 273.93C379.897 273.65 379.617 273.46 379.337 273.36C379.057 273.26 378.717 273.16 378.317 273.06C377.937 272.96 377.557 272.86 377.177 272.76C376.817 272.66 376.417 272.53 375.977 272.37C375.557 272.19 375.087 271.94 374.567 271.62C373.547 270.96 373.037 269.86 373.037 268.32C373.037 266.76 373.587 265.56 374.687 264.72C375.787 263.88 377.167 263.46 378.827 263.46C380.507 263.46 382.167 263.86 383.807 264.66V268.26L381.107 268.47V267.21C381.107 266.71 380.877 266.37 380.417 266.19ZM391.163 276.63L388.073 283.65L386.183 283.08L387.113 276.99C387.253 275.99 387.743 275.49 388.583 275.49C389.003 275.49 389.323 275.56 389.543 275.7C389.783 275.82 389.973 275.92 390.113 276C390.273 276.08 390.383 276.14 390.443 276.18C390.503 276.22 390.623 276.3 390.803 276.42C390.983 276.52 391.103 276.59 391.163 276.63ZM406.865 263.46C408.365 263.46 409.555 263.83 410.435 264.57C411.315 265.29 411.755 266.31 411.755 267.63C411.755 268.51 411.565 269.29 411.185 269.97C410.805 270.63 410.335 271.15 409.775 271.53C409.215 271.91 408.535 272.22 407.735 272.46C406.395 272.86 404.885 273.06 403.205 273.06C403.265 274.12 403.595 274.98 404.195 275.64C404.795 276.28 405.715 276.6 406.955 276.6C408.195 276.6 409.435 276.16 410.675 275.28L411.815 277.71C411.415 278.07 410.735 278.44 409.775 278.82C408.835 279.2 407.755 279.39 406.535 279.39C404.095 279.39 402.305 278.72 401.165 277.38C400.025 276.02 399.455 274.16 399.455 271.8C399.455 269.44 400.105 267.46 401.405 265.86C402.705 264.26 404.525 263.46 406.865 263.46ZM405.485 270.33C406.225 270.19 406.905 269.9 407.525 269.46C408.145 269 408.455 268.46 408.455 267.84C408.455 266.62 407.855 266.01 406.655 266.01C405.535 266.01 404.675 266.46 404.075 267.36C403.475 268.24 403.145 269.3 403.085 270.54C403.965 270.52 404.765 270.45 405.485 270.33ZM433.342 264.51V275.67C433.342 275.99 433.392 276.21 433.492 276.33C433.612 276.45 433.812 276.52 434.092 276.54L435.052 276.6V279H430.282V277.26L430.192 277.23C429.192 278.67 427.822 279.39 426.082 279.39C424.042 279.39 422.532 278.74 421.552 277.44C420.572 276.14 420.082 274.36 420.082 272.1C420.082 269.38 420.742 267.26 422.062 265.74C423.382 264.22 425.362 263.46 428.002 263.46C429.702 263.46 431.482 263.81 433.342 264.51ZM429.862 274.23V266.46C429.302 266.2 428.532 266.07 427.552 266.07C426.212 266.07 425.242 266.61 424.642 267.69C424.042 268.77 423.742 270.2 423.742 271.98C423.742 275.22 424.782 276.84 426.862 276.84C427.742 276.84 428.462 276.58 429.022 276.06C429.582 275.52 429.862 274.91 429.862 274.23ZM440.523 271.29C440.523 272.99 440.843 274.31 441.483 275.25C442.123 276.19 443.043 276.66 444.243 276.66C445.463 276.66 446.663 276.23 447.843 275.37L449.133 277.68C447.713 278.84 445.933 279.42 443.793 279.42C441.653 279.42 439.963 278.75 438.723 277.41C437.503 276.05 436.893 274.05 436.893 271.41C436.893 268.77 437.593 266.79 438.993 265.47C440.413 264.13 442.003 263.46 443.763 263.46C445.543 263.46 447.193 263.87 448.713 264.69V268.59L445.953 268.8V267.36C445.953 266.82 445.753 266.49 445.353 266.37C444.973 266.23 444.573 266.16 444.153 266.16C441.733 266.16 440.523 267.87 440.523 271.29ZM456.444 263.91V276.51L458.154 276.6V279H451.014V276.72L452.004 276.63C452.584 276.57 452.874 276.25 452.874 275.67V267.33C452.874 266.99 452.814 266.76 452.694 266.64C452.594 266.52 452.404 266.46 452.124 266.46L451.074 266.4V263.91H456.444ZM452.664 261.33C452.244 260.91 452.034 260.38 452.034 259.74C452.034 259.1 452.244 258.57 452.664 258.15C453.084 257.71 453.634 257.49 454.314 257.49C454.994 257.49 455.544 257.71 455.964 258.15C456.404 258.57 456.624 259.1 456.624 259.74C456.624 260.38 456.404 260.91 455.964 261.33C455.544 261.73 454.994 261.93 454.314 261.93C453.634 261.93 453.084 261.73 452.664 261.33ZM467.421 263.46C468.281 263.46 469.101 263.58 469.881 263.82V260.79C469.881 260.35 469.621 260.11 469.101 260.07L467.811 259.98V257.61H473.391V275.85C473.411 276.31 473.661 276.54 474.141 276.54L475.191 276.6V279H470.331V277.23L470.241 277.2C469.341 278.66 467.981 279.39 466.161 279.39C463.881 279.39 462.281 278.63 461.361 277.11C460.521 275.73 460.101 274.04 460.101 272.04C460.101 269.44 460.741 267.36 462.021 265.8C463.321 264.24 465.121 263.46 467.421 263.46ZM469.881 274.32V266.55C469.161 266.23 468.401 266.07 467.601 266.07C466.281 266.07 465.311 266.6 464.691 267.66C464.091 268.72 463.791 270.07 463.791 271.71C463.791 275.07 464.871 276.75 467.031 276.75C467.851 276.75 468.531 276.52 469.071 276.06C469.611 275.58 469.881 275 469.881 274.32ZM484.472 263.46C485.972 263.46 487.162 263.83 488.042 264.57C488.922 265.29 489.362 266.31 489.362 267.63C489.362 268.51 489.172 269.29 488.792 269.97C488.412 270.63 487.942 271.15 487.382 271.53C486.822 271.91 486.142 272.22 485.342 272.46C484.002 272.86 482.492 273.06 480.812 273.06C480.872 274.12 481.202 274.98 481.802 275.64C482.402 276.28 483.322 276.6 484.562 276.6C485.802 276.6 487.042 276.16 488.282 275.28L489.422 277.71C489.022 278.07 488.342 278.44 487.382 278.82C486.442 279.2 485.362 279.39 484.142 279.39C481.702 279.39 479.912 278.72 478.772 277.38C477.632 276.02 477.062 274.16 477.062 271.8C477.062 269.44 477.712 267.46 479.012 265.86C480.312 264.26 482.132 263.46 484.472 263.46ZM483.092 270.33C483.832 270.19 484.512 269.9 485.132 269.46C485.752 269 486.062 268.46 486.062 267.84C486.062 266.62 485.462 266.01 484.262 266.01C483.142 266.01 482.282 266.46 481.682 267.36C481.082 268.24 480.752 269.3 480.692 270.54C481.572 270.52 482.372 270.45 483.092 270.33ZM491.293 266.31V263.91H496.363V265.86C496.883 265.12 497.573 264.54 498.433 264.12C499.293 263.68 500.223 263.46 501.223 263.46C502.743 263.46 503.913 263.9 504.733 264.78C505.573 265.64 505.993 266.94 505.993 268.68V276.51L507.703 276.6V279H500.563V276.72L501.553 276.63C501.853 276.59 502.073 276.51 502.213 276.39C502.353 276.25 502.423 276 502.423 275.64V269.46C502.423 268.36 502.253 267.55 501.913 267.03C501.573 266.49 500.923 266.22 499.963 266.22C499.023 266.22 498.273 266.52 497.713 267.12C497.153 267.72 496.873 268.43 496.873 269.25V276.51L498.583 276.6V279H491.443V276.72L492.433 276.63C492.733 276.59 492.953 276.51 493.093 276.39C493.233 276.25 493.303 276 493.303 275.64V267.33C493.303 266.73 493.053 266.42 492.553 266.4L491.293 266.31ZM511.591 260.73H513.541V263.91H517.531L517.231 266.43H513.541V274.32C513.541 275.2 513.701 275.82 514.021 276.18C514.341 276.52 514.831 276.69 515.491 276.69C516.171 276.69 516.851 276.48 517.531 276.06L518.431 278.37C517.431 279.07 516.161 279.42 514.621 279.42C513.721 279.42 512.961 279.3 512.341 279.06C511.721 278.84 511.261 278.59 510.961 278.31C510.661 278.03 510.431 277.62 510.271 277.08C510.111 276.54 510.021 276.12 510.001 275.82C509.981 275.5 509.971 275.04 509.971 274.44V266.43H507.841L508.141 264.24C509.081 264.16 509.791 263.83 510.271 263.25C510.751 262.65 511.191 261.81 511.591 260.73ZM527.099 263.46C528.599 263.46 529.789 263.83 530.669 264.57C531.549 265.29 531.989 266.31 531.989 267.63C531.989 268.51 531.799 269.29 531.419 269.97C531.039 270.63 530.569 271.15 530.009 271.53C529.449 271.91 528.769 272.22 527.969 272.46C526.629 272.86 525.119 273.06 523.439 273.06C523.499 274.12 523.829 274.98 524.429 275.64C525.029 276.28 525.949 276.6 527.189 276.6C528.429 276.6 529.669 276.16 530.909 275.28L532.049 277.71C531.649 278.07 530.969 278.44 530.009 278.82C529.069 279.2 527.989 279.39 526.769 279.39C524.329 279.39 522.539 278.72 521.399 277.38C520.259 276.02 519.689 274.16 519.689 271.8C519.689 269.44 520.339 267.46 521.639 265.86C522.939 264.26 524.759 263.46 527.099 263.46ZM525.719 270.33C526.459 270.19 527.139 269.9 527.759 269.46C528.379 269 528.689 268.46 528.689 267.84C528.689 266.62 528.089 266.01 526.889 266.01C525.769 266.01 524.909 266.46 524.309 267.36C523.709 268.24 523.379 269.3 523.319 270.54C524.199 270.52 524.999 270.45 525.719 270.33ZM541.96 266.19C541.48 266.01 540.9 265.92 540.22 265.92C539.54 265.92 538.99 266.08 538.57 266.4C538.17 266.7 537.97 267.08 537.97 267.54C537.97 267.98 538.04 268.33 538.18 268.59C538.34 268.83 538.58 269.04 538.9 269.22C539.4 269.48 540 269.71 540.7 269.91C541.4 270.09 541.92 270.24 542.26 270.36C542.6 270.46 543.02 270.64 543.52 270.9C544.04 271.16 544.43 271.44 544.69 271.74C545.39 272.48 545.74 273.43 545.74 274.59C545.74 276.09 545.19 277.27 544.09 278.13C543.01 278.97 541.63 279.39 539.95 279.39C537.51 279.39 535.67 279.08 534.43 278.46V274.29L537.13 274.08V275.52C537.13 276.4 537.97 276.84 539.65 276.84C541.33 276.84 542.17 276.23 542.17 275.01C542.17 274.57 542.02 274.21 541.72 273.93C541.44 273.65 541.16 273.46 540.88 273.36C540.6 273.26 540.26 273.16 539.86 273.06C539.48 272.96 539.1 272.86 538.72 272.76C538.36 272.66 537.96 272.53 537.52 272.37C537.1 272.19 536.63 271.94 536.11 271.62C535.09 270.96 534.58 269.86 534.58 268.32C534.58 266.76 535.13 265.56 536.23 264.72C537.33 263.88 538.71 263.46 540.37 263.46C542.05 263.46 543.71 263.86 545.35 264.66V268.26L542.65 268.47V267.21C542.65 266.71 542.42 266.37 541.96 266.19ZM561.171 263.46C562.031 263.46 562.851 263.58 563.631 263.82V260.79C563.631 260.35 563.371 260.11 562.851 260.07L561.561 259.98V257.61H567.141V275.85C567.161 276.31 567.411 276.54 567.891 276.54L568.941 276.6V279H564.081V277.23L563.991 277.2C563.091 278.66 561.731 279.39 559.911 279.39C557.631 279.39 556.031 278.63 555.111 277.11C554.271 275.73 553.851 274.04 553.851 272.04C553.851 269.44 554.491 267.36 555.771 265.8C557.071 264.24 558.871 263.46 561.171 263.46ZM563.631 274.32V266.55C562.911 266.23 562.151 266.07 561.351 266.07C560.031 266.07 559.061 266.6 558.441 267.66C557.841 268.72 557.541 270.07 557.541 271.71C557.541 275.07 558.621 276.75 560.781 276.75C561.601 276.75 562.281 276.52 562.821 276.06C563.361 275.58 563.631 275 563.631 274.32ZM578.222 263.46C579.722 263.46 580.912 263.83 581.792 264.57C582.672 265.29 583.112 266.31 583.112 267.63C583.112 268.51 582.922 269.29 582.542 269.97C582.162 270.63 581.692 271.15 581.132 271.53C580.572 271.91 579.892 272.22 579.092 272.46C577.752 272.86 576.242 273.06 574.562 273.06C574.622 274.12 574.952 274.98 575.552 275.64C576.152 276.28 577.072 276.6 578.312 276.6C579.552 276.6 580.792 276.16 582.032 275.28L583.172 277.71C582.772 278.07 582.092 278.44 581.132 278.82C580.192 279.2 579.112 279.39 577.892 279.39C575.452 279.39 573.662 278.72 572.522 277.38C571.382 276.02 570.812 274.16 570.812 271.8C570.812 269.44 571.462 267.46 572.762 265.86C574.062 264.26 575.882 263.46 578.222 263.46ZM576.842 270.33C577.582 270.19 578.262 269.9 578.882 269.46C579.502 269 579.812 268.46 579.812 267.84C579.812 266.62 579.212 266.01 578.012 266.01C576.892 266.01 576.032 266.46 575.432 267.36C574.832 268.24 574.502 269.3 574.442 270.54C575.322 270.52 576.122 270.45 576.842 270.33ZM594.859 271.29C594.859 272.99 595.179 274.31 595.819 275.25C596.459 276.19 597.379 276.66 598.579 276.66C599.799 276.66 600.999 276.23 602.179 275.37L603.469 277.68C602.049 278.84 600.269 279.42 598.129 279.42C595.989 279.42 594.299 278.75 593.059 277.41C591.839 276.05 591.229 274.05 591.229 271.41C591.229 268.77 591.929 266.79 593.329 265.47C594.749 264.13 596.339 263.46 598.099 263.46C599.879 263.46 601.529 263.87 603.049 264.69V268.59L600.289 268.8V267.36C600.289 266.82 600.089 266.49 599.689 266.37C599.309 266.23 598.909 266.16 598.489 266.16C596.069 266.16 594.859 267.87 594.859 271.29ZM618.82 264.51V275.67C618.82 275.99 618.87 276.21 618.97 276.33C619.09 276.45 619.29 276.52 619.57 276.54L620.53 276.6V279H615.76V277.26L615.67 277.23C614.67 278.67 613.3 279.39 611.56 279.39C609.52 279.39 608.01 278.74 607.03 277.44C606.05 276.14 605.56 274.36 605.56 272.1C605.56 269.38 606.22 267.26 607.54 265.74C608.86 264.22 610.84 263.46 613.48 263.46C615.18 263.46 616.96 263.81 618.82 264.51ZM615.34 274.23V266.46C614.78 266.2 614.01 266.07 613.03 266.07C611.69 266.07 610.72 266.61 610.12 267.69C609.52 268.77 609.22 270.2 609.22 271.98C609.22 275.22 610.26 276.84 612.34 276.84C613.22 276.84 613.94 276.58 614.5 276.06C615.06 275.52 615.34 274.91 615.34 274.23ZM624.232 275.64V267.33C624.232 267.01 624.172 266.79 624.052 266.67C623.952 266.53 623.762 266.45 623.482 266.43L622.222 266.34V263.91H627.292V266.16C627.652 265.38 628.212 264.74 628.972 264.24C629.732 263.72 630.602 263.46 631.582 263.46C632.582 263.46 633.532 263.68 634.432 264.12V268.59L631.642 268.8V267.42C631.642 267.02 631.542 266.77 631.342 266.67C631.122 266.57 630.852 266.52 630.532 266.52C629.732 266.52 629.072 266.81 628.552 267.39C628.052 267.95 627.802 268.67 627.802 269.55V276.51L630.412 276.63V279H622.372V276.72L623.362 276.63C623.662 276.59 623.882 276.51 624.022 276.39C624.162 276.25 624.232 276 624.232 275.64ZM638.089 275.64V267.33C638.089 267.01 638.029 266.79 637.909 266.67C637.809 266.53 637.619 266.45 637.339 266.43L636.079 266.34V263.91H641.149V266.16C641.509 265.38 642.069 264.74 642.829 264.24C643.589 263.72 644.459 263.46 645.439 263.46C646.439 263.46 647.389 263.68 648.289 264.12V268.59L645.499 268.8V267.42C645.499 267.02 645.399 266.77 645.199 266.67C644.979 266.57 644.709 266.52 644.389 266.52C643.589 266.52 642.929 266.81 642.409 267.39C641.909 267.95 641.659 268.67 641.659 269.55V276.51L644.269 276.63V279H636.229V276.72L637.219 276.63C637.519 276.59 637.739 276.51 637.879 276.39C638.019 276.25 638.089 276 638.089 275.64ZM656.401 276.81C658.581 276.81 659.671 275.05 659.671 271.53C659.671 269.75 659.421 268.4 658.921 267.48C658.441 266.56 657.621 266.1 656.461 266.1C655.321 266.1 654.481 266.54 653.941 267.42C653.401 268.3 653.131 269.5 653.131 271.02C653.131 273.84 653.651 275.61 654.691 276.33C655.151 276.65 655.721 276.81 656.401 276.81ZM649.501 271.44C649.501 269.96 649.721 268.68 650.161 267.6C650.601 266.5 651.191 265.66 651.931 265.08C653.351 264 654.921 263.46 656.641 263.46C657.841 263.46 658.851 263.66 659.671 264.06C660.511 264.44 661.161 264.89 661.621 265.41C662.101 265.91 662.501 266.65 662.821 267.63C663.161 268.59 663.331 269.73 663.331 271.05C663.331 273.81 662.661 275.9 661.321 277.32C659.981 278.74 658.261 279.45 656.161 279.45C654.081 279.45 652.451 278.78 651.271 277.44C650.091 276.08 649.501 274.08 649.501 271.44ZM667.164 279.45C666.464 279.45 665.924 279.26 665.544 278.88C665.164 278.48 664.974 277.97 664.974 277.35C664.974 276.71 665.164 276.19 665.544 275.79C665.944 275.37 666.474 275.16 667.134 275.16C667.814 275.16 668.354 275.36 668.754 275.76C669.154 276.14 669.354 276.65 669.354 277.29C669.354 277.91 669.164 278.43 668.784 278.85C668.404 279.25 667.864 279.45 667.164 279.45Z" fill="#818696"/>
<path d="M216.783 170L224 177.217L231.217 170L224 162.783L216.783 170ZM629.217 170L622 162.783L614.783 170L622 177.217L629.217 170ZM224 171.25H622V168.75H224V171.25Z" fill="#921F20"/>
</g>
<defs>
<clipPath id="clip0_1753_17941">
<rect width="844" height="390" fill="white"/>
</clipPath>
</defs>
</svg>
