<svg width="371" height="237" viewBox="0 0 371 237" fill="none" xmlns="http://www.w3.org/2000/svg">
<g clip-path="url(#clip0_876_16820)">
<g filter="url(#filter0_d_876_16820)">
<path fill-rule="evenodd" clip-rule="evenodd" d="M26.7099 59.9966H344.29L367 95.1117L367 195.885L344.29 231H26.7098L4 195.885L4.00004 95.1117L26.7099 59.9966ZM28.3424 62.9966L7.00004 95.9973L7 194.999L28.3424 228H342.657L364 194.999L364 95.9973L342.657 62.9966H28.3424Z" fill="#818696"/>
<path fill-rule="evenodd" clip-rule="evenodd" d="M7.00004 95.9973L28.3424 62.9966H342.657L364 95.9973L364 194.999L342.657 228H28.3424L7 194.999L7.00004 95.9973Z" fill="#BFC5D9" fill-opacity="0.8"/>
<path fill-rule="evenodd" clip-rule="evenodd" d="M16 98.654L16 192.343L33.24 219H337.76L355 192.343L355 98.654L337.76 71.9966H33.24L16 98.654ZM28.3424 62.9966L7.00004 95.9973L7 194.999L28.3424 228H342.657L364 194.999L364 95.9973L342.657 62.9966H28.3424Z" fill="#17181C"/>
</g>
<path fill-rule="evenodd" clip-rule="evenodd" d="M60.951 62.9977L32.4692 31.4989L60.951 0H312.261L340.742 31.4989L312.261 62.9977L60.951 62.9977Z" fill="#17181C" fill-opacity="0.85"/>
<path fill-rule="evenodd" clip-rule="evenodd" d="M62.9489 58.4977L38.5361 31.4989L62.9489 4.50002H310.263L334.676 31.4989L310.263 58.4977L62.9489 58.4977ZM312.261 62.9977L60.951 62.9977L32.4692 31.4989L60.951 0H312.261L340.742 31.4989L312.261 62.9977Z" fill="#818696"/>
</g>
<defs>
<filter id="filter0_d_876_16820" x="0" y="57.9966" width="371" height="179.003" filterUnits="userSpaceOnUse" color-interpolation-filters="sRGB">
<feFlood flood-opacity="0" result="BackgroundImageFix"/>
<feColorMatrix in="SourceAlpha" type="matrix" values="0 0 0 0 0 0 0 0 0 0 0 0 0 0 0 0 0 0 127 0" result="hardAlpha"/>
<feOffset dy="2"/>
<feGaussianBlur stdDeviation="2"/>
<feComposite in2="hardAlpha" operator="out"/>
<feColorMatrix type="matrix" values="0 0 0 0 0 0 0 0 0 0 0 0 0 0 0 0 0 0 0.5 0"/>
<feBlend mode="normal" in2="BackgroundImageFix" result="effect1_dropShadow_876_16820"/>
<feBlend mode="normal" in="SourceGraphic" in2="effect1_dropShadow_876_16820" result="shape"/>
</filter>
<clipPath id="clip0_876_16820">
<rect width="371" height="237" fill="white"/>
</clipPath>
</defs>
</svg>
