<svg width="129" height="83" viewBox="0 0 129 83" fill="none" xmlns="http://www.w3.org/2000/svg">
<g filter="url(#filter0_d_805_809)">
<path d="M12.1141 20.4989H11.842L11.6943 20.7274L4.58017 31.7276L4.50001 31.8515L4.50001 31.9991L4.5 64.9996L4.5 65.1472L4.58015 65.2712L11.6943 76.2713L11.842 76.4998H12.1141H116.886H117.158L117.306 76.2714L124.42 65.2712L124.5 65.1472V64.9996L124.5 31.9991V31.8515L124.42 31.7276L117.306 20.7274L117.158 20.4989H116.886H12.1141Z" stroke="#818696"/>
<path d="M6.5 64.5569L6.50001 32.4419L12.9304 22.4989H116.07L122.5 32.4419L122.5 64.5569L116.07 74.4998H12.9304L6.5 64.5569Z" fill="#BFC5D9" fill-opacity="0.8" stroke="#17181C" stroke-width="3"/>
</g>
<path opacity="0.85" d="M30.5562 45.8109V44.5149L31.0842 44.4669C31.3935 44.4349 31.5482 44.2856 31.5482 44.0189V36.5789L30.6362 36.5309V35.1709H38.3642V37.8269L36.7322 37.9389V37.2989C36.7322 37.1176 36.7055 36.9896 36.6522 36.9149C36.5989 36.8402 36.4709 36.8029 36.2682 36.8029H33.5002V39.6349H37.4362V41.2669H33.5002V44.4029L34.9242 44.4509V45.8109H30.5562ZM42.1237 37.7629V44.4829L43.0357 44.5309V45.8109H39.2277V44.5949L39.7557 44.5469C40.065 44.5149 40.2197 44.3442 40.2197 44.0349V39.5869C40.2197 39.4056 40.1877 39.2829 40.1237 39.2189C40.0704 39.1549 39.969 39.1229 39.8197 39.1229L39.2597 39.0909V37.7629H42.1237ZM40.1077 36.3869C39.8837 36.1629 39.7717 35.8802 39.7717 35.5389C39.7717 35.1976 39.8837 34.9149 40.1077 34.6909C40.3317 34.4562 40.625 34.3389 40.9877 34.3389C41.3504 34.3389 41.6437 34.4562 41.8677 34.6909C42.1024 34.9149 42.2197 35.1976 42.2197 35.5389C42.2197 35.8802 42.1024 36.1629 41.8677 36.3869C41.6437 36.6002 41.3504 36.7069 40.9877 36.7069C40.625 36.7069 40.3317 36.6002 40.1077 36.3869ZM43.8661 39.0429V37.7629H46.5701V38.8029C46.8474 38.4082 47.2154 38.0989 47.6741 37.8749C48.1327 37.6402 48.6287 37.5229 49.1621 37.5229C49.9727 37.5229 50.5967 37.7576 51.0341 38.2269C51.4821 38.6856 51.7061 39.3789 51.7061 40.3069V44.4829L52.6181 44.5309V45.8109H48.8101V44.5949L49.3381 44.5469C49.4981 44.5256 49.6154 44.4829 49.6901 44.4189C49.7647 44.3442 49.8021 44.2109 49.8021 44.0189V40.7229C49.8021 40.1362 49.7114 39.7042 49.5301 39.4269C49.3487 39.1389 49.0021 38.9949 48.4901 38.9949C47.9887 38.9949 47.5887 39.1549 47.2901 39.4749C46.9914 39.7949 46.8421 40.1736 46.8421 40.6109V44.4829L47.7541 44.5309V45.8109H43.9461V44.5949L44.4741 44.5469C44.6341 44.5256 44.7514 44.4829 44.8261 44.4189C44.9007 44.3442 44.9381 44.2109 44.9381 44.0189V39.5869C44.9381 39.2669 44.8047 39.1016 44.5381 39.0909L43.8661 39.0429ZM60.7398 38.0829V44.0349C60.7398 44.2056 60.7665 44.3229 60.8198 44.3869C60.8838 44.4509 60.9905 44.4882 61.1398 44.4989L61.6518 44.5309V45.8109H59.1078V44.8829L59.0598 44.8669C58.5265 45.6349 57.7958 46.0189 56.8678 46.0189C55.7798 46.0189 54.9745 45.6722 54.4518 44.9789C53.9292 44.2856 53.6678 43.3362 53.6678 42.1309C53.6678 40.6802 54.0198 39.5496 54.7238 38.7389C55.4278 37.9282 56.4838 37.5229 57.8918 37.5229C58.7985 37.5229 59.7478 37.7096 60.7398 38.0829ZM58.8838 43.2669V39.1229C58.5852 38.9842 58.1745 38.9149 57.6518 38.9149C56.9372 38.9149 56.4198 39.2029 56.0998 39.7789C55.7798 40.3549 55.6198 41.1176 55.6198 42.0669C55.6198 43.7949 56.1745 44.6589 57.2838 44.6589C57.7532 44.6589 58.1372 44.5202 58.4358 44.2429C58.7345 43.9549 58.8838 43.6296 58.8838 43.2669ZM65.4979 34.4029V44.4829L66.4099 44.5309V45.8109H62.6019V44.5949L63.1299 44.5469C63.4393 44.5149 63.5939 44.3442 63.5939 44.0349V36.1469C63.5939 35.9122 63.4606 35.7842 63.1939 35.7629L62.6339 35.7309V34.4029H65.4979ZM70.2956 37.7629V44.4829L71.2076 44.5309V45.8109H67.3996V44.5949L67.9276 44.5469C68.2369 44.5149 68.3916 44.3442 68.3916 44.0349V39.5869C68.3916 39.4056 68.3596 39.2829 68.2956 39.2189C68.2422 39.1549 68.1409 39.1229 67.9916 39.1229L67.4316 39.0909V37.7629H70.2956ZM68.2796 36.3869C68.0556 36.1629 67.9436 35.8802 67.9436 35.5389C67.9436 35.1976 68.0556 34.9149 68.2796 34.6909C68.5036 34.4562 68.7969 34.3389 69.1596 34.3389C69.5222 34.3389 69.8156 34.4562 70.0396 34.6909C70.2742 34.9149 70.3916 35.1976 70.3916 35.5389C70.3916 35.8802 70.2742 36.1629 70.0396 36.3869C69.8156 36.6002 69.5222 36.7069 69.1596 36.7069C68.7969 36.7069 68.5036 36.6002 68.2796 36.3869ZM78.7739 45.8109H72.2459V44.5949L76.3579 39.1869H74.3419C74.1179 39.1869 73.9739 39.2296 73.9099 39.3149C73.8566 39.4002 73.8299 39.5389 73.8299 39.7309V40.2909L72.3259 40.1789V37.7629H78.6939V38.8509L74.5339 44.3709H76.8059C77.1153 44.3709 77.2699 44.1896 77.2699 43.8269V43.1549L78.7739 43.2669V45.8109ZM87.0523 38.0829V44.0349C87.0523 44.2056 87.079 44.3229 87.1323 44.3869C87.1963 44.4509 87.303 44.4882 87.4523 44.4989L87.9643 44.5309V45.8109H85.4203V44.8829L85.3723 44.8669C84.839 45.6349 84.1083 46.0189 83.1803 46.0189C82.0923 46.0189 81.287 45.6722 80.7643 44.9789C80.2417 44.2856 79.9803 43.3362 79.9803 42.1309C79.9803 40.6802 80.3323 39.5496 81.0363 38.7389C81.7403 37.9282 82.7963 37.5229 84.2043 37.5229C85.111 37.5229 86.0603 37.7096 87.0523 38.0829ZM85.1963 43.2669V39.1229C84.8977 38.9842 84.487 38.9149 83.9643 38.9149C83.2497 38.9149 82.7323 39.2029 82.4123 39.7789C82.0923 40.3549 81.9323 41.1176 81.9323 42.0669C81.9323 43.7949 82.487 44.6589 83.5963 44.6589C84.0657 44.6589 84.4497 44.5202 84.7483 44.2429C85.047 43.9549 85.1963 43.6296 85.1963 43.2669ZM89.9384 44.0189V39.5869C89.9384 39.4162 89.9064 39.2989 89.8424 39.2349C89.7891 39.1602 89.6878 39.1176 89.5384 39.1069L88.8664 39.0589V37.7629H91.5704V38.9629C91.7624 38.5469 92.0611 38.2056 92.4664 37.9389C92.8718 37.6616 93.3358 37.5229 93.8584 37.5229C94.3918 37.5229 94.8984 37.6402 95.3784 37.8749V40.2589L93.8904 40.3709V39.6349C93.8904 39.4216 93.8371 39.2882 93.7304 39.2349C93.6131 39.1816 93.4691 39.1549 93.2984 39.1549C92.8718 39.1549 92.5198 39.3096 92.2424 39.6189C91.9758 39.9176 91.8424 40.3016 91.8424 40.7709V44.4829L93.2344 44.5469V45.8109H88.9464V44.5949L89.4744 44.5469C89.6344 44.5256 89.7518 44.4829 89.8264 44.4189C89.9011 44.3442 89.9384 44.2109 89.9384 44.0189ZM46.5896 52.0669H47.6296V53.7629H49.7576L49.5976 55.1069H47.6296V59.3149C47.6296 59.7842 47.715 60.1149 47.8856 60.3069C48.0563 60.4882 48.3176 60.5789 48.6696 60.5789C49.0323 60.5789 49.395 60.4669 49.7576 60.2429L50.2376 61.4749C49.7043 61.8482 49.027 62.0349 48.2056 62.0349C47.7256 62.0349 47.3203 61.9709 46.9896 61.8429C46.659 61.7256 46.4136 61.5922 46.2536 61.4429C46.0936 61.2936 45.971 61.0749 45.8856 60.7869C45.8003 60.4989 45.7523 60.2749 45.7416 60.1149C45.731 59.9442 45.7256 59.6989 45.7256 59.3789V55.1069H44.5896L44.7496 53.9389C45.251 53.8962 45.6296 53.7202 45.8856 53.4109C46.1416 53.0909 46.3763 52.6429 46.5896 52.0669ZM59.0124 60.5469V61.8109H56.4204V60.7709C55.8337 61.6029 54.9697 62.0189 53.8284 62.0189C52.1751 62.0189 51.3484 61.0962 51.3484 59.2509V55.5549C51.3484 55.2669 51.2151 55.1176 50.9484 55.1069L50.4364 55.0749V53.7629H53.2524V58.8349C53.2524 59.4002 53.3324 59.8269 53.4924 60.1149C53.6524 60.4029 53.9831 60.5469 54.4844 60.5469C54.9857 60.5469 55.3857 60.3922 55.6844 60.0829C55.9937 59.7736 56.1484 59.4002 56.1484 58.9629V55.5869C56.1484 55.4162 56.1164 55.2989 56.0524 55.2349C55.9991 55.1602 55.8977 55.1176 55.7484 55.1069L55.2364 55.0749V53.7629H58.0524V60.0349C58.0524 60.2056 58.0791 60.3229 58.1324 60.3869C58.1857 60.4402 58.2924 60.4776 58.4524 60.4989L59.0124 60.5469ZM60.9775 60.0189V55.5869C60.9775 55.4162 60.9455 55.2989 60.8815 55.2349C60.8282 55.1602 60.7268 55.1176 60.5775 55.1069L59.9055 55.0589V53.7629H62.6095V54.9629C62.8015 54.5469 63.1002 54.2056 63.5055 53.9389C63.9108 53.6616 64.3748 53.5229 64.8975 53.5229C65.4308 53.5229 65.9375 53.6402 66.4175 53.8749V56.2589L64.9295 56.3709V55.6349C64.9295 55.4216 64.8762 55.2882 64.7695 55.2349C64.6522 55.1816 64.5082 55.1549 64.3375 55.1549C63.9108 55.1549 63.5588 55.3096 63.2815 55.6189C63.0148 55.9176 62.8815 56.3016 62.8815 56.7709V60.4829L64.2735 60.5469V61.8109H59.9855V60.5949L60.5135 60.5469C60.6735 60.5256 60.7908 60.4829 60.8655 60.4189C60.9402 60.3442 60.9775 60.2109 60.9775 60.0189ZM67.2801 55.0429V53.7629H69.9841V54.8029C70.2615 54.4082 70.6295 54.0989 71.0881 53.8749C71.5468 53.6402 72.0428 53.5229 72.5761 53.5229C73.3868 53.5229 74.0108 53.7576 74.4481 54.2269C74.8961 54.6856 75.1201 55.3789 75.1201 56.3069V60.4829L76.0321 60.5309V61.8109H72.2241V60.5949L72.7521 60.5469C72.9121 60.5256 73.0295 60.4829 73.1041 60.4189C73.1788 60.3442 73.2161 60.2109 73.2161 60.0189V56.7229C73.2161 56.1362 73.1255 55.7042 72.9441 55.4269C72.7628 55.1389 72.4161 54.9949 71.9041 54.9949C71.4028 54.9949 71.0028 55.1549 70.7041 55.4749C70.4055 55.7949 70.2561 56.1736 70.2561 56.6109V60.4829L71.1681 60.5309V61.8109H67.3601V60.5949L67.8881 60.5469C68.0481 60.5256 68.1655 60.4829 68.2401 60.4189C68.3148 60.3442 68.3521 60.2109 68.3521 60.0189V55.5869C68.3521 55.2669 68.2188 55.1016 67.9521 55.0909L67.2801 55.0429ZM80.4936 60.6429C81.6563 60.6429 82.2376 59.7042 82.2376 57.8269C82.2376 56.8776 82.1043 56.1576 81.8376 55.6669C81.5816 55.1762 81.1443 54.9309 80.5256 54.9309C79.9176 54.9309 79.4696 55.1656 79.1816 55.6349C78.8936 56.1042 78.7496 56.7442 78.7496 57.5549C78.7496 59.0589 79.027 60.0029 79.5816 60.3869C79.827 60.5576 80.131 60.6429 80.4936 60.6429ZM76.8136 57.7789C76.8136 56.9896 76.931 56.3069 77.1656 55.7309C77.4003 55.1442 77.715 54.6962 78.1096 54.3869C78.867 53.8109 79.7043 53.5229 80.6216 53.5229C81.2616 53.5229 81.8003 53.6296 82.2376 53.8429C82.6856 54.0456 83.0323 54.2856 83.2776 54.5629C83.5336 54.8296 83.747 55.2242 83.9176 55.7469C84.099 56.2589 84.1896 56.8669 84.1896 57.5709C84.1896 59.0429 83.8323 60.1576 83.1176 60.9149C82.403 61.6722 81.4856 62.0509 80.3656 62.0509C79.2563 62.0509 78.387 61.6936 77.7576 60.9789C77.1283 60.2536 76.8136 59.1869 76.8136 57.7789Z" fill="#17181C"/>
<path d="M23.3166 20.2492L14.5009 10.4996L23.3166 0.75H106.421L115.236 10.4996L106.421 20.2492L23.3166 20.2492Z" fill="#17181C" fill-opacity="0.85" stroke="#818696" stroke-width="1.5"/>
<defs>
<filter id="filter0_d_805_809" x="0" y="17.9989" width="129" height="65.001" filterUnits="userSpaceOnUse" color-interpolation-filters="sRGB">
<feFlood flood-opacity="0" result="BackgroundImageFix"/>
<feColorMatrix in="SourceAlpha" type="matrix" values="0 0 0 0 0 0 0 0 0 0 0 0 0 0 0 0 0 0 127 0" result="hardAlpha"/>
<feOffset dy="2"/>
<feGaussianBlur stdDeviation="2"/>
<feComposite in2="hardAlpha" operator="out"/>
<feColorMatrix type="matrix" values="0 0 0 0 0 0 0 0 0 0 0 0 0 0 0 0 0 0 0.5 0"/>
<feBlend mode="normal" in2="BackgroundImageFix" result="effect1_dropShadow_805_809"/>
<feBlend mode="normal" in="SourceGraphic" in2="effect1_dropShadow_805_809" result="shape"/>
</filter>
</defs>
</svg>
